<svg xmlns="http://www.w3.org/2000/svg" viewBox="0 0 760 111"><defs><style>.cls-1{fill:#8f68eb;}.cls-2{fill:#fff;}</style></defs><title>logo-深色背景</title><g id="图层_2" data-name="图层 2"><g id="图层_1-2" data-name="图层 1"><path class="cls-1" d="M18,0h0a0,0,0,0,1,0,0V111a0,0,0,0,1,0,0h0A18,18,0,0,1,0,93V18A18,18,0,0,1,18,0Z"/><path class="cls-2" d="M667,0h0a0,0,0,0,1,0,0V111a0,0,0,0,1,0,0H649a0,0,0,0,1,0,0V18A18,18,0,0,1,667,0Z"/><path class="cls-1" d="M91,16v2a18,18,0,0,1,18,18V75A18,18,0,0,1,91,93h0Z"/><path class="cls-2" d="M425,94V92a17.89,17.89,0,0,1-18-17.77V35.77A17.88,17.88,0,0,1,425,18h0Z"/><path class="cls-2" d="M536,18h2A17.89,17.89,0,0,1,555.74,0h38.49A17.88,17.88,0,0,1,612,18H536Z"/><path class="cls-1" d="M63.5-27.5h0a0,0,0,0,1,0,0v73a0,0,0,0,1,0,0h-18a0,0,0,0,1,0,0v-55A18,18,0,0,1,63.5-27.5Z" transform="translate(63.5 -45.5) rotate(90)"/><path class="cls-1" d="M335.5-36.5h18a0,0,0,0,1,0,0v91a0,0,0,0,1,0,0h0a18,18,0,0,1-18-18v-73a0,0,0,0,1,0,0Z" transform="translate(353.5 -335.5) rotate(90)"/><path class="cls-2" d="M453.5-28.5h18a0,0,0,0,1,0,0v75a0,0,0,0,1,0,0h0a18,18,0,0,1-18-18v-57A0,0,0,0,1,453.5-28.5Z" transform="translate(471.5 -453.5) rotate(90)"/><path class="cls-2" d="M713.5-28.5h0a0,0,0,0,1,0,0v75a0,0,0,0,1,0,0h-18a0,0,0,0,1,0,0v-57a18,18,0,0,1,18-18Z" transform="translate(713.5 -695.5) rotate(90)"/><path class="cls-2" d="M471.5,63.5h0a0,0,0,0,1,0,0v75a0,0,0,0,1,0,0h-18a0,0,0,0,1,0,0v-57a18,18,0,0,1,18-18Z" transform="translate(361.5 563.5) rotate(-90)"/><path class="cls-1" d="M317.5,55.5h18a0,0,0,0,1,0,0v91a0,0,0,0,1,0,0h0a18,18,0,0,1-18-18v-73A0,0,0,0,1,317.5,55.5Z" transform="translate(225.5 427.5) rotate(-90)"/><path class="cls-1" d="M342.62,18.5h1.88a0,0,0,0,1,0,0v55a18,18,0,0,1-18,18h0a0,0,0,0,1,0,0V34.62A16.12,16.12,0,0,1,342.62,18.5Z" transform="translate(280.5 390.5) rotate(-90)"/><path class="cls-1" d="M295,18h4a0,0,0,0,1,0,0V46a0,0,0,0,1,0,0h-4a14,14,0,0,1-14-14v0a14,14,0,0,1,14-14Z"/><path class="cls-1" d="M386,64h4a0,0,0,0,1,0,0V92a0,0,0,0,1,0,0h-4a14,14,0,0,1-14-14v0A14,14,0,0,1,386,64Z" transform="translate(762 156) rotate(-180)"/><path class="cls-1" d="M45.5,65.5h18a0,0,0,0,1,0,0v73a0,0,0,0,1,0,0h0a18,18,0,0,1-18-18v-55A0,0,0,0,1,45.5,65.5Z" transform="translate(-47.5 156.5) rotate(-90)"/><path class="cls-2" d="M152,0h0a0,0,0,0,1,0,0V111a0,0,0,0,1,0,0h0a18,18,0,0,1-18-18V18A18,18,0,0,1,152,0Z"/><path class="cls-2" d="M538,18h0a0,0,0,0,1,0,0v92a0,0,0,0,1,0,0H520a0,0,0,0,1,0,0V36A18,18,0,0,1,538,18Z"/><path class="cls-2" d="M612,18h18a0,0,0,0,1,0,0v92a0,0,0,0,1,0,0h0a18,18,0,0,1-18-18V18A0,0,0,0,1,612,18Z" transform="translate(1242 128) rotate(-180)"/><path class="cls-2" d="M742,18h18a0,0,0,0,1,0,0v92a0,0,0,0,1,0,0h0a18,18,0,0,1-18-18V18A0,0,0,0,1,742,18Z" transform="translate(1502 128) rotate(-180)"/><path class="cls-2" d="M228,0h18a0,0,0,0,1,0,0V111a0,0,0,0,1,0,0h0a18,18,0,0,1-18-18V0A0,0,0,0,1,228,0Z"/><rect class="cls-2" x="246" y="93" width="19" height="18"/><path class="cls-2" d="M179,0h18a0,0,0,0,1,0,0V111a0,0,0,0,1,0,0h0a18,18,0,0,1-18-18V0A0,0,0,0,1,179,0Z"/><rect class="cls-2" x="197" y="93" width="19" height="18"/><rect class="cls-2" x="538" y="46" width="74" height="18"/></g></g></svg>