<svg width="930" height="111" fill="none" xmlns="http://www.w3.org/2000/svg"><path d="M707.06 110.17H690.7c-.55 0-1-.45-1-1V36.72c0-2.52.48-4.9 1.43-7.11a18.673 18.673 0 0 1 9.81-9.81c2.22-.96 4.59-1.43 7.11-1.43v90.8c0 .55-.45 1-1 1h.01zM763.15 0c2.52 0 4.9.48 7.11 1.43a18.673 18.673 0 0 1 9.81 9.81c.96 2.22 1.43 4.59 1.43 7.11h-73.44c0-2.52.48-4.9 1.43-7.11a18.673 18.673 0 0 1 9.81-9.81C721.53.48 723.9 0 726.42 0h36.73zm-55.08 45.9h73.44v18.36h-73.44V45.9zm73.44-27.54c2.52 0 4.9.48 7.11 1.43a18.673 18.673 0 0 1 9.81 9.81c.96 2.22 1.43 4.59 1.43 7.11v72.44c0 .55-.45 1-1 1H782.5c-.55 0-1-.45-1-1V18.36h.01zM167.11 91.8h-18.16V1c0-.55-.45-1-1-1h-16.36c-.55 0-1 .45-1 1v90.8c0 2.52.48 4.9 1.43 7.11a18.673 18.673 0 0 0 9.81 9.81c2.22.96 4.59 1.43 7.11 1.43v-.06c.42.03.83.06 1.25.06h16.91c.55 0 1-.45 1-1V92.79c0-.55-.45-1-1-1l.01.01zM203.8 91.8c-2.52 0-4.9-.48-7.11-1.43a18.673 18.673 0 0 1-9.81-9.81c-.96-2.22-1.43-4.59-1.43-7.11V36.73c0-2.52.48-4.9 1.43-7.11a18.673 18.673 0 0 1 9.81-9.81c2.22-.96 4.59-1.43 7.11-1.43v73.44-.02zm0-73.44c0-2.52.48-4.9 1.43-7.11a18.673 18.673 0 0 1 9.81-9.81c2.23-.96 4.6-1.44 7.12-1.44h36.72c2.52 0 4.9.48 7.11 1.43a18.673 18.673 0 0 1 9.81 9.81c.96 2.22 1.43 4.59 1.43 7.11h-73.44l.01.01zm73.44 73.44c0 2.52-.48 4.9-1.43 7.11a18.673 18.673 0 0 1-9.81 9.81c-2.22.96-4.59 1.43-7.11 1.43h-36.72c-2.52 0-4.9-.48-7.11-1.43a18.673 18.673 0 0 1-9.81-9.81c-.96-2.22-1.43-4.59-1.43-7.11h73.44-.02zm0-73.44c2.52 0 4.9.48 7.11 1.43a18.673 18.673 0 0 1 9.81 9.81c.96 2.22 1.43 4.59 1.43 7.11v36.72c0 2.52-.48 4.9-1.43 7.11a18.673 18.673 0 0 1-9.81 9.81c-2.22.96-4.59 1.43-7.11 1.43V18.36zM336.6 45.9c-2.52 0-4.9-.48-7.11-1.43a18.673 18.673 0 0 1-9.81-9.81c-.96-2.22-1.43-4.59-1.43-7.11V1c0-.55.45-1 1-1h16.36c.55 0 1 .45 1 1v44.9h-.01zm0 18.36V91.8h-4.59c-1.91 0-3.69-.36-5.34-1.09a14.26 14.26 0 0 1-4.36-2.98 14.086 14.086 0 0 1-2.98-4.36c-.73-1.64-1.09-3.42-1.09-5.34s.36-3.69 1.09-5.34c.73-1.64 1.72-3.1 2.98-4.36 1.26-1.26 2.71-2.26 4.36-2.98 1.64-.73 3.42-1.09 5.34-1.09h4.59zm0 0V45.9h61.26c2.52 0 4.9.48 7.11 1.43a18.673 18.673 0 0 1 9.81 9.81c.96 2.22 1.43 4.59 1.43 7.11h-79.62l.01.01zm79.62 27.54c0 2.52-.48 4.9-1.43 7.11a18.673 18.673 0 0 1-9.81 9.81c-2.22.96-4.59 1.43-7.11 1.43h-60.26c-.55 0-1-.45-1-1V91.79h79.62l-.01.01zm4.59-27.54c1.91 0 3.69.36 5.34 1.09 1.64.73 3.1 1.72 4.36 2.98 1.26 1.26 2.26 2.72 2.98 4.36.73 1.65 1.09 3.43 1.09 5.34 0 1.91-.36 3.69-1.09 5.34a14.26 14.26 0 0 1-2.98 4.36 14.204 14.204 0 0 1-4.36 2.98c-1.65.73-3.42 1.09-5.34 1.09h-4.59V64.26h4.59z" fill="#201E1F"/><path d="M464.89 45.9c-1.91 0-3.69-.36-5.34-1.09a14.26 14.26 0 0 1-4.36-2.98 14.086 14.086 0 0 1-2.98-4.36c-.73-1.64-1.09-3.42-1.09-5.34s.36-3.69 1.09-5.34c.73-1.64 1.72-3.1 2.98-4.36 1.26-1.26 2.71-2.26 4.36-2.98 1.64-.73 3.42-1.09 5.34-1.09h4.59V45.9h-4.59zm78.03 45.9c0 2.52-.48 4.9-1.43 7.11a18.673 18.673 0 0 1-9.81 9.81c-2.22.96-4.59 1.43-7.11 1.43h-72.44c-.55 0-1-.45-1-1V92.79c0-.55.45-1 1-1h90.8l-.01.01zm-73.44-73.44c0-2.52.48-4.9 1.43-7.11a18.673 18.673 0 0 1 9.81-9.81c2.22-.96 4.6-1.44 7.12-1.44h72.44c.55 0 1 .45 1 1v16.36c0 .55-.45 1-1 1h-90.8zm0 27.54h55.08c2.52 0 4.9.48 7.11 1.43a18.673 18.673 0 0 1 9.81 9.81c.96 2.22 1.43 4.59 1.43 7.11h-55.08c-2.52 0-4.9-.48-7.11-1.43a18.673 18.673 0 0 1-9.81-9.81c-.96-2.22-1.43-4.59-1.43-7.11zm73.44 45.9V64.26h4.59c1.91 0 3.69.36 5.34 1.09 1.64.73 3.1 1.72 4.36 2.98 1.26 1.26 2.26 2.72 2.98 4.36.73 1.65 1.09 3.43 1.09 5.34 0 1.91-.36 3.69-1.09 5.34a14.26 14.26 0 0 1-2.98 4.36 14.204 14.204 0 0 1-4.36 2.98c-1.65.73-3.42 1.09-5.34 1.09h-4.59z" fill="#9A71F2"/><path d="M596.18 91.8c-2.52 0-4.9-.48-7.11-1.43a18.673 18.673 0 0 1-9.81-9.81c-.96-2.22-1.43-4.59-1.43-7.11V36.73c0-2.52.48-4.9 1.43-7.11a18.673 18.673 0 0 1 9.81-9.81c2.22-.96 4.59-1.43 7.11-1.43v73.44-.02zm0-73.44c0-2.52.48-4.9 1.43-7.11a18.673 18.673 0 0 1 9.81-9.81c2.23-.96 4.6-1.44 7.13-1.44h55.35c.55 0 1 .45 1 1v16.36c0 .55-.45 1-1 1h-73.72zm74.71 74.44v16.36c0 .55-.45 1-1 1h-55.35c-2.52 0-4.9-.48-7.11-1.43a18.673 18.673 0 0 1-9.81-9.81c-.96-2.22-1.43-4.59-1.43-7.11h73.71c.55 0 1 .45 1 1l-.01-.01zM836.69 110.17h-16.36c-.55 0-1-.45-1-1V18.36c0-2.52.48-4.9 1.43-7.11a18.673 18.673 0 0 1 9.81-9.81C832.8.48 835.17 0 837.69 0v109.17c0 .55-.45 1-1 1zm1-91.8V0h55.08c2.52 0 4.9.48 7.11 1.43a18.673 18.673 0 0 1 9.81 9.81c.96 2.22 1.43 4.59 1.43 7.11h-73.44l.01.02zm73.44 0c2.52 0 4.9.48 7.11 1.43a18.673 18.673 0 0 1 9.81 9.81c.96 2.22 1.43 4.59 1.43 7.11v72.44c0 .55-.45 1-1 1h-16.36c-.55 0-1-.45-1-1v-90.8l.01.01z" fill="#201E1F"/><path d="M0 18.36h18.36v91.8H0v-91.8zm18.36 0c0-2.52.48-4.9 1.43-7.12a18.673 18.673 0 0 1 9.81-9.81C31.82.47 34.19 0 36.71 0h36.72c2.52 0 4.89.48 7.11 1.43a18.673 18.673 0 0 1 9.81 9.81c.96 2.22 1.44 4.59 1.44 7.12H18.36zM91.8 45.9v18.36H18.36V45.9H91.8zm0 45.9c0 2.52-.48 4.9-1.44 7.11a18.673 18.673 0 0 1-9.81 9.81c-2.22.96-4.59 1.43-7.11 1.43H18.36V91.79H91.8v.01zm0-45.9V18.36h4.59c1.91 0 3.69.36 5.34 1.09 1.64.73 3.1 1.72 4.36 2.98 1.26 1.26 2.26 2.72 2.98 4.36.73 1.65 1.09 3.42 1.09 5.34s-.36 3.69-1.09 5.34a14.26 14.26 0 0 1-2.98 4.36 14.204 14.204 0 0 1-4.36 2.98c-1.65.73-3.42 1.09-5.34 1.09H91.8zm0 18.36h4.59c1.91 0 3.69.36 5.34 1.09 1.64.73 3.1 1.72 4.36 2.98 1.26 1.26 2.26 2.72 2.98 4.36.73 1.65 1.09 3.42 1.09 5.34s-.36 3.69-1.09 5.34a14.26 14.26 0 0 1-2.98 4.36 14.204 14.204 0 0 1-4.36 2.98c-1.65.73-3.42 1.09-5.34 1.09H91.8V64.26z" fill="#9A71F2"/></svg>