<svg width="930" height="111" viewBox="0 0 930 111" fill="none" xmlns="http://www.w3.org/2000/svg">
<path d="M707.06 110.17H690.7C690.15 110.17 689.7 109.72 689.7 109.17V36.72C689.7 34.2 690.18 31.82 691.13 29.61C692.09 27.39 693.41 25.44 695.09 23.76C696.77 22.08 698.72 20.76 700.94 19.8C703.16 18.84 705.53 18.37 708.05 18.37V109.17C708.05 109.72 707.6 110.17 707.05 110.17H707.06ZM763.15 0C765.67 0 768.05 0.48 770.26 1.43C772.48 2.39 774.43 3.71 776.11 5.39C777.79 7.07 779.11 9.02 780.07 11.24C781.03 13.46 781.5 15.83 781.5 18.35H708.06C708.06 15.83 708.54 13.45 709.49 11.24C710.45 9.02 711.77 7.07 713.45 5.39C715.13 3.71 717.08 2.39 719.3 1.43C721.53 0.48 723.9 0 726.42 0H763.14H763.15ZM708.07 45.9H781.51V64.26H708.07V45.9ZM781.51 18.36C784.03 18.36 786.41 18.84 788.62 19.79C790.84 20.75 792.79 22.07 794.47 23.75C796.15 25.43 797.47 27.38 798.43 29.6C799.39 31.82 799.86 34.19 799.86 36.71V109.15C799.86 109.7 799.41 110.15 798.86 110.15H782.5C781.95 110.15 781.5 109.7 781.5 109.15V18.36H781.51Z" fill="#201E1F"/>
<path d="M167.11 91.8H148.95V1C148.95 0.45 148.5 0 147.95 0H131.59C131.04 0 130.59 0.45 130.59 1V91.8C130.59 94.32 131.07 96.7 132.02 98.91C132.98 101.13 134.3 103.08 135.98 104.76C137.66 106.44 139.61 107.76 141.83 108.72C144.05 109.68 146.42 110.15 148.94 110.15V110.09C149.36 110.12 149.77 110.15 150.19 110.15H167.1C167.65 110.15 168.1 109.7 168.1 109.15V92.79C168.1 92.24 167.65 91.79 167.1 91.79L167.11 91.8Z" fill="#201E1F"/>
<path d="M203.8 91.8C201.28 91.8 198.9 91.32 196.69 90.37C194.47 89.41 192.52 88.09 190.84 86.41C189.16 84.73 187.84 82.78 186.88 80.56C185.92 78.34 185.45 75.97 185.45 73.45V36.73C185.45 34.21 185.93 31.83 186.88 29.62C187.84 27.4 189.16 25.45 190.84 23.77C192.52 22.09 194.47 20.77 196.69 19.81C198.91 18.85 201.28 18.38 203.8 18.38V91.82V91.8ZM203.8 18.36C203.8 15.84 204.28 13.46 205.23 11.25C206.19 9.03 207.51 7.08 209.19 5.4C210.87 3.72 212.82 2.4 215.04 1.44C217.27 0.48 219.64 0 222.16 0H258.88C261.4 0 263.78 0.48 265.99 1.43C268.21 2.39 270.16 3.71 271.84 5.39C273.52 7.07 274.84 9.02 275.8 11.24C276.76 13.46 277.23 15.83 277.23 18.35H203.79L203.8 18.36ZM277.24 91.8C277.24 94.32 276.76 96.7 275.81 98.91C274.85 101.13 273.53 103.08 271.85 104.76C270.17 106.44 268.22 107.76 266 108.72C263.78 109.68 261.41 110.15 258.89 110.15H222.17C219.65 110.15 217.27 109.67 215.06 108.72C212.84 107.76 210.89 106.44 209.21 104.76C207.53 103.08 206.21 101.13 205.25 98.91C204.29 96.69 203.82 94.32 203.82 91.8H277.26H277.24ZM277.24 18.36C279.76 18.36 282.14 18.84 284.35 19.79C286.57 20.75 288.52 22.07 290.2 23.75C291.88 25.43 293.2 27.38 294.16 29.6C295.12 31.82 295.59 34.19 295.59 36.71V73.43C295.59 75.95 295.11 78.33 294.16 80.54C293.2 82.76 291.88 84.71 290.2 86.39C288.52 88.07 286.57 89.39 284.35 90.35C282.13 91.31 279.76 91.78 277.24 91.78V18.36Z" fill="#201E1F"/>
<path d="M336.6 45.9C334.08 45.9 331.7 45.42 329.49 44.47C327.27 43.51 325.32 42.19 323.64 40.51C321.96 38.83 320.64 36.88 319.68 34.66C318.72 32.44 318.25 30.07 318.25 27.55V1C318.25 0.45 318.7 0 319.25 0H335.61C336.16 0 336.61 0.45 336.61 1V45.9H336.6ZM336.6 64.26V91.8H332.01C330.1 91.8 328.32 91.44 326.67 90.71C325.02 89.98 323.57 88.99 322.31 87.73C321.05 86.47 320.05 85.02 319.33 83.37C318.6 81.73 318.24 79.95 318.24 78.03C318.24 76.11 318.6 74.34 319.33 72.69C320.06 71.05 321.05 69.59 322.31 68.33C323.57 67.07 325.02 66.07 326.67 65.35C328.31 64.62 330.09 64.26 332.01 64.26H336.6ZM336.6 64.26V45.9H397.86C400.38 45.9 402.76 46.38 404.97 47.33C407.19 48.29 409.14 49.61 410.82 51.29C412.5 52.97 413.82 54.92 414.78 57.14C415.74 59.36 416.21 61.73 416.21 64.25H336.59L336.6 64.26ZM416.22 91.8C416.22 94.32 415.74 96.7 414.79 98.91C413.83 101.13 412.51 103.08 410.83 104.76C409.15 106.44 407.2 107.76 404.98 108.72C402.76 109.68 400.39 110.15 397.87 110.15H337.61C337.06 110.15 336.61 109.7 336.61 109.15V91.79H416.23L416.22 91.8ZM420.81 64.26C422.72 64.26 424.5 64.62 426.15 65.35C427.79 66.08 429.25 67.07 430.51 68.33C431.77 69.59 432.77 71.05 433.49 72.69C434.22 74.34 434.58 76.12 434.58 78.03C434.58 79.94 434.22 81.72 433.49 83.37C432.76 85.02 431.77 86.47 430.51 87.73C429.25 88.99 427.79 89.99 426.15 90.71C424.5 91.44 422.73 91.8 420.81 91.8H416.22V64.26H420.81Z" fill="#201E1F"/>
<path d="M464.89 45.9C462.98 45.9 461.2 45.54 459.55 44.81C457.9 44.08 456.45 43.09 455.19 41.83C453.93 40.57 452.93 39.12 452.21 37.47C451.48 35.83 451.12 34.05 451.12 32.13C451.12 30.21 451.48 28.44 452.21 26.79C452.94 25.15 453.93 23.69 455.19 22.43C456.45 21.17 457.9 20.17 459.55 19.45C461.19 18.72 462.97 18.36 464.89 18.36H469.48V45.9H464.89ZM542.92 91.8C542.92 94.32 542.44 96.7 541.49 98.91C540.53 101.13 539.21 103.08 537.53 104.76C535.85 106.44 533.9 107.76 531.68 108.72C529.46 109.68 527.09 110.15 524.57 110.15H452.13C451.58 110.15 451.13 109.7 451.13 109.15V92.79C451.13 92.24 451.58 91.79 452.13 91.79H542.93L542.92 91.8ZM469.48 18.36C469.48 15.84 469.96 13.46 470.91 11.25C471.87 9.03 473.19 7.08 474.87 5.4C476.55 3.72 478.5 2.4 480.72 1.44C482.94 0.48 485.32 0 487.84 0H560.28C560.83 0 561.28 0.45 561.28 1V17.36C561.28 17.91 560.83 18.36 560.28 18.36H469.48ZM469.48 45.9H524.56C527.08 45.9 529.46 46.38 531.67 47.33C533.89 48.29 535.84 49.61 537.52 51.29C539.2 52.97 540.52 54.92 541.48 57.14C542.44 59.36 542.91 61.73 542.91 64.25H487.83C485.31 64.25 482.93 63.77 480.72 62.82C478.5 61.86 476.55 60.54 474.87 58.86C473.19 57.18 471.87 55.23 470.91 53.01C469.95 50.79 469.48 48.42 469.48 45.9ZM542.92 91.8V64.26H547.51C549.42 64.26 551.2 64.62 552.85 65.35C554.49 66.08 555.95 67.07 557.21 68.33C558.47 69.59 559.47 71.05 560.19 72.69C560.92 74.34 561.28 76.12 561.28 78.03C561.28 79.94 560.92 81.72 560.19 83.37C559.46 85.02 558.47 86.47 557.21 87.73C555.95 88.99 554.49 89.99 552.85 90.71C551.2 91.44 549.43 91.8 547.51 91.8H542.92Z" fill="#9A71F2"/>
<path d="M596.18 91.8C593.66 91.8 591.28 91.32 589.07 90.37C586.85 89.41 584.9 88.09 583.22 86.41C581.54 84.73 580.22 82.78 579.26 80.56C578.3 78.34 577.83 75.97 577.83 73.45V36.73C577.83 34.21 578.31 31.83 579.26 29.62C580.22 27.4 581.54 25.45 583.22 23.77C584.9 22.09 586.85 20.77 589.07 19.81C591.29 18.85 593.66 18.38 596.18 18.38V91.82V91.8ZM596.18 18.36C596.18 15.84 596.66 13.46 597.61 11.25C598.57 9.03 599.89 7.08 601.57 5.4C603.25 3.72 605.2 2.4 607.42 1.44C609.65 0.48 612.02 0 614.55 0H669.9C670.45 0 670.9 0.45 670.9 1V17.36C670.9 17.91 670.45 18.36 669.9 18.36H596.19H596.18ZM670.89 92.8V109.16C670.89 109.71 670.44 110.16 669.89 110.16H614.54C612.02 110.16 609.64 109.68 607.43 108.73C605.21 107.77 603.26 106.45 601.58 104.77C599.9 103.09 598.58 101.14 597.62 98.92C596.66 96.7 596.19 94.33 596.19 91.81H669.9C670.45 91.81 670.9 92.26 670.9 92.81L670.89 92.8Z" fill="#201E1F"/>
<path d="M836.69 110.17H820.33C819.78 110.17 819.33 109.72 819.33 109.17V18.36C819.33 15.84 819.81 13.46 820.76 11.25C821.72 9.03 823.04 7.08 824.72 5.4C826.4 3.72 828.35 2.4 830.57 1.44C832.8 0.48 835.17 0 837.69 0V109.17C837.69 109.72 837.24 110.17 836.69 110.17ZM837.69 18.37V0H892.77C895.29 0 897.67 0.48 899.88 1.43C902.1 2.39 904.05 3.71 905.73 5.39C907.41 7.07 908.73 9.02 909.69 11.24C910.65 13.46 911.12 15.83 911.12 18.35H837.68L837.69 18.37ZM911.13 18.37C913.65 18.37 916.03 18.85 918.24 19.8C920.46 20.76 922.41 22.08 924.09 23.76C925.77 25.44 927.09 27.39 928.05 29.61C929.01 31.83 929.48 34.2 929.48 36.72V109.16C929.48 109.71 929.03 110.16 928.48 110.16H912.12C911.57 110.16 911.12 109.71 911.12 109.16V18.36L911.13 18.37Z" fill="#201E1F"/>
<path d="M0 18.36H18.36V110.16H0V18.36ZM18.36 18.36C18.36 15.84 18.84 13.46 19.79 11.24C20.75 9.02 22.07 7.07 23.75 5.39C25.43 3.71 27.38 2.39 29.6 1.43C31.82 0.47 34.19 0 36.71 0H73.43C75.95 0 78.32 0.48 80.54 1.43C82.76 2.39 84.71 3.71 86.39 5.39C88.07 7.07 89.39 9.02 90.35 11.24C91.31 13.46 91.79 15.83 91.79 18.36H18.36ZM91.8 45.9V64.26H18.36V45.9H91.8ZM91.8 91.8C91.8 94.32 91.32 96.7 90.36 98.91C89.4 101.13 88.08 103.08 86.4 104.76C84.72 106.44 82.77 107.76 80.55 108.72C78.33 109.68 75.96 110.15 73.44 110.15H18.36V91.79H91.8V91.8ZM91.8 45.9V18.36H96.39C98.3 18.36 100.08 18.72 101.73 19.45C103.37 20.18 104.83 21.17 106.09 22.43C107.35 23.69 108.35 25.15 109.07 26.79C109.8 28.44 110.16 30.21 110.16 32.13C110.16 34.05 109.8 35.82 109.07 37.47C108.34 39.12 107.35 40.57 106.09 41.83C104.83 43.09 103.37 44.09 101.73 44.81C100.08 45.54 98.31 45.9 96.39 45.9H91.8ZM91.8 64.26H96.39C98.3 64.26 100.08 64.62 101.73 65.35C103.37 66.08 104.83 67.07 106.09 68.33C107.35 69.59 108.35 71.05 109.07 72.69C109.8 74.34 110.16 76.11 110.16 78.03C110.16 79.95 109.8 81.72 109.07 83.37C108.34 85.02 107.35 86.47 106.09 87.73C104.83 88.99 103.37 89.99 101.73 90.71C100.08 91.44 98.31 91.8 96.39 91.8H91.8V64.26Z" fill="#9A71F2"/>
</svg>
