<svg width="260" height="64" viewBox="0 0 260 64" fill="none" xmlns="http://www.w3.org/2000/svg">
<path d="M73.5068 49.0113V12.8604H79.4331V28.506C80.9871 25.836 84.1939 24.2326 87.8386 24.2326C94.6902 24.2326 98.8648 29.5796 98.8648 37.1588C98.8648 44.7379 94.3441 49.647 87.4431 49.647C83.8478 49.647 80.7893 48.0436 79.3766 45.2747L78.9881 49.0184H73.4998L73.5068 49.0113ZM86.2352 44.2011C90.4168 44.2011 92.889 41.192 92.889 36.9115C92.889 32.6311 90.4098 29.5726 86.2352 29.5726C82.0607 29.5726 79.4825 32.5816 79.4825 36.9115C79.4825 41.2415 82.1525 44.2011 86.2352 44.2011Z" fill="white"/>
<path d="M101.733 49.0113V12.8604H107.609V49.0113H101.733Z" fill="white"/>
<path d="M123.304 24.3242C130.735 24.3242 136.132 29.4735 136.132 36.9537C136.132 44.434 130.735 49.5833 123.304 49.5833C115.874 49.5833 110.477 44.434 110.477 36.9537C110.477 29.4735 115.867 24.3242 123.304 24.3242ZM123.304 44.2927C127.387 44.2927 130.205 41.326 130.205 36.9537C130.205 32.5814 127.387 29.6148 123.304 29.6148C119.222 29.6148 116.403 32.5814 116.403 36.9537C116.403 41.326 119.222 44.2927 123.304 44.2927Z" fill="white"/>
<path d="M138.894 49.0113V12.8604H144.82V28.506C146.374 25.836 149.581 24.2326 153.225 24.2326C160.077 24.2326 164.252 29.5796 164.252 37.1588C164.252 44.7379 159.731 49.647 152.83 49.647C149.235 49.647 146.176 48.0436 144.763 45.2747L144.375 49.0184H138.887L138.894 49.0113ZM151.622 44.2011C155.804 44.2011 158.276 41.192 158.276 36.9115C158.276 32.6311 155.797 29.5726 151.622 29.5726C147.447 29.5726 144.869 32.5816 144.869 36.9115C144.869 41.2415 147.539 44.2011 151.622 44.2011Z" fill="white"/>
<path d="M170.813 41.7222C170.863 43.813 172.417 45.1198 175.136 45.1198C177.856 45.1198 179.41 44.0037 179.41 42.252C179.41 41.0371 178.781 40.1612 176.641 39.6738L172.318 38.6567C167.995 37.6819 165.904 35.6406 165.904 31.8051C165.904 27.0937 169.888 24.2754 175.426 24.2754C180.964 24.2754 184.46 27.3833 184.51 32.0523H178.873C178.823 30.0109 177.467 28.6971 175.179 28.6971C172.89 28.6971 171.485 29.7637 171.485 31.5649C171.485 32.9282 172.551 33.797 174.592 34.2844L178.915 35.3015C182.949 36.2268 184.99 38.0704 184.99 41.7646C184.99 46.6243 180.858 49.6333 174.932 49.6333C169.005 49.6333 165.163 46.4265 165.163 41.7152H170.799L170.813 41.7222Z" fill="white"/>
<path d="M198.17 24.2754C204.732 24.2754 209.197 27.9202 209.832 33.6981H203.906C203.228 30.9786 201.236 29.5659 198.418 29.5659C194.625 29.5659 192.103 32.4337 192.103 36.9544C192.103 41.475 194.434 44.2933 198.227 44.2933C201.194 44.2933 203.277 42.8382 203.913 40.2106H209.889C209.161 45.7978 204.499 49.6333 198.227 49.6333C190.937 49.6333 186.177 44.5829 186.177 36.9544C186.177 29.3258 191.086 24.2754 198.177 24.2754H198.17Z" fill="white"/>
<path d="M211.28 42.1594C211.28 37.7377 214.487 34.9688 220.173 34.5308L227.364 33.994V33.4572C227.364 30.2009 225.421 28.8871 222.405 28.8871C218.909 28.8871 216.966 30.3422 216.966 32.8709H211.916C211.916 27.6722 216.189 24.2676 222.702 24.2676C229.214 24.2676 233.149 27.764 233.149 34.4249V49.0039H227.95L227.512 45.4581C226.495 47.9373 223.239 49.6396 219.495 49.6396C214.395 49.6396 211.287 46.673 211.287 42.1594H211.28ZM227.413 39.2916V38.0273L222.412 38.4158C218.718 38.7548 217.312 39.9697 217.312 41.9122C217.312 44.1019 218.768 45.1684 221.445 45.1684C225.089 45.1684 227.42 42.9788 227.42 39.2916H227.413Z" fill="white"/>
<path d="M237.034 49.0115V25.0098H242.522L243.009 28.1177C244.514 25.6879 247.431 24.2822 250.687 24.2822C256.713 24.2822 259.821 28.0259 259.821 34.2417V49.0115H253.894V35.6474C253.894 31.6141 251.902 29.6717 248.844 29.6717C245.199 29.6717 242.967 32.2004 242.967 36.0853V49.0115H237.041H237.034Z" fill="white"/>
<path d="M28.0742 53.2669V61.9692L53.9619 47.0228V17.123L49.6744 19.7365" stroke="#9A71F2" stroke-width="2.49" stroke-linecap="round" stroke-linejoin="round"/>
<path d="M10.0764 21.8909L2.17944 17.123V47.0228L28.0742 61.9692V53.2669" stroke="#9A71F2" stroke-width="2.49" stroke-linecap="round" stroke-linejoin="round"/>
<path d="M10.0764 21.891L2.17944 17.1231L28.0742 2.17676L53.9619 17.1231L46.0649 21.891" stroke="#9A71F2" stroke-width="2.49" stroke-linecap="round" stroke-linejoin="round"/>
<path d="M2.17944 16.9463V46.8461L28.0742 61.7925L53.9619 46.8461V16.9463L28.0742 2L2.17944 16.9463Z" stroke="#9A71F2" stroke-width="2.49" stroke-linecap="round" stroke-linejoin="round"/>
<path d="M28.0743 53.1893L46.1215 42.7706V21.9333L28.0743 11.5146L10.0271 21.9333V42.7706L28.0743 53.1893ZM17.4791 26.235L28.0743 20.118L38.6696 26.235V38.4689L28.0743 44.5859L17.4791 38.4689V26.235Z" stroke="#9A71F2" stroke-width="2.49" stroke-linecap="round" stroke-linejoin="round"/>
<path d="M17.479 26.2344L28.0742 32.8882V44.5783L17.479 38.4683V26.2344Z" stroke="#9A71F2" stroke-miterlimit="10"/>
<path d="M38.6624 26.2344L28.0742 32.8882V44.5783L38.6624 38.4683V26.2344Z" fill="#9A71F2"/>
<path d="M17.479 26.2352L28.0742 20.1182L38.6624 26.2352L28.0742 32.889L17.479 26.2352Z" stroke="#9A71F2" stroke-width="2.49" stroke-linecap="round" stroke-linejoin="round"/>
<path d="M28.0742 61.7926V53.2669L46.1144 42.7706V21.9333L53.9619 17.123V46.8462L28.0742 61.7926Z" fill="#9A71F2"/>
</svg>
