<svg xmlns="http://www.w3.org/2000/svg" fill="none" viewBox="0 0 930 111">
  <path fill="#201E1F" d="M707.06 110.17H690.7c-.55 0-1-.45-1-1V36.72c0-2.52.48-4.9 1.43-7.11a18.67 18.67 0 0 1 9.81-9.81c2.22-.96 4.59-1.43 7.11-1.43v90.8c0 .55-.45 1-1 1zM763.15 0c2.52 0 4.9.48 7.11 1.43a18.67 18.67 0 0 1 9.81 9.81c.96 2.22 1.43 4.59 1.43 7.11h-73.44c0-2.52.48-4.9 1.43-7.11a18.67 18.67 0 0 1 9.81-9.81C721.53.48 723.9 0 726.42 0zm-55.08 45.9h73.44v18.36h-73.44zm73.44-27.54c2.52 0 4.9.48 7.11 1.43a18.67 18.67 0 0 1 9.81 9.81c.96 2.22 1.43 4.59 1.43 7.11v72.44c0 .55-.45 1-1 1H782.5c-.55 0-1-.45-1-1V18.36zM167.11 91.8h-18.16V1c0-.55-.45-1-1-1h-16.36c-.55 0-1 .45-1 1v90.8c0 2.52.48 4.9 1.43 7.11a18.67 18.67 0 0 0 9.81 9.81c2.22.96 4.59 1.43 7.11 1.43v-.06c.42.03.83.06 1.25.06h16.91c.55 0 1-.45 1-1V92.79c0-.55-.45-1-1-1zm36.69 0c-2.52 0-4.9-.48-7.11-1.43a18.67 18.67 0 0 1-9.81-9.81c-.96-2.22-1.43-4.59-1.43-7.11V36.73c0-2.52.48-4.9 1.43-7.11a18.67 18.67 0 0 1 9.81-9.81c2.22-.96 4.59-1.43 7.11-1.43v73.44zm0-73.44c0-2.52.48-4.9 1.43-7.11a18.67 18.67 0 0 1 9.81-9.81c2.23-.96 4.6-1.44 7.12-1.44h36.72c2.52 0 4.9.48 7.11 1.43a18.67 18.67 0 0 1 9.81 9.81c.96 2.22 1.43 4.59 1.43 7.11h-73.44zm73.44 73.44c0 2.52-.48 4.9-1.43 7.11a18.67 18.67 0 0 1-9.81 9.81c-2.22.96-4.59 1.43-7.11 1.43h-36.72c-2.52 0-4.9-.48-7.11-1.43a18.67 18.67 0 0 1-9.81-9.81c-.96-2.22-1.43-4.59-1.43-7.11h73.44zm0-73.44c2.52 0 4.9.48 7.11 1.43a18.67 18.67 0 0 1 9.81 9.81c.96 2.22 1.43 4.59 1.43 7.11v36.72c0 2.52-.48 4.9-1.43 7.11a18.67 18.67 0 0 1-9.81 9.81c-2.22.96-4.59 1.43-7.11 1.43zM336.6 45.9c-2.52 0-4.9-.48-7.11-1.43a18.67 18.67 0 0 1-9.81-9.81c-.96-2.22-1.43-4.59-1.43-7.11V1c0-.55.45-1 1-1h16.36c.55 0 1 .45 1 1v44.9zm0 18.36V91.8h-4.59c-1.91 0-3.69-.36-5.34-1.09a14.3 14.3 0 0 1-4.36-2.98 14.1 14.1 0 0 1-2.98-4.36c-.73-1.64-1.09-3.42-1.09-5.34s.36-3.69 1.09-5.34c.73-1.64 1.72-3.1 2.98-4.36s2.71-2.26 4.36-2.98c1.64-.73 3.42-1.09 5.34-1.09zm0 0V45.9h61.26c2.52 0 4.9.48 7.11 1.43a18.67 18.67 0 0 1 9.81 9.81c.96 2.22 1.43 4.59 1.43 7.11h-79.62zm79.62 27.54c0 2.52-.48 4.9-1.43 7.11a18.67 18.67 0 0 1-9.81 9.81c-2.22.96-4.59 1.43-7.11 1.43h-60.26c-.55 0-1-.45-1-1V91.79h79.62zm4.59-27.54c1.91 0 3.69.36 5.34 1.09 1.64.73 3.1 1.72 4.36 2.98s2.26 2.72 2.98 4.36c.73 1.65 1.09 3.43 1.09 5.34s-.36 3.69-1.09 5.34a14.3 14.3 0 0 1-2.98 4.36 14.2 14.2 0 0 1-4.36 2.98c-1.65.73-3.42 1.09-5.34 1.09h-4.59V64.26z"/>
  <path fill="#9A71F2" d="M464.89 45.9c-1.91 0-3.69-.36-5.34-1.09a14.3 14.3 0 0 1-4.36-2.98 14.1 14.1 0 0 1-2.98-4.36c-.73-1.64-1.09-3.42-1.09-5.34s.36-3.69 1.09-5.34c.73-1.64 1.72-3.1 2.98-4.36s2.71-2.26 4.36-2.98c1.64-.73 3.42-1.09 5.34-1.09h4.59V45.9zm78.03 45.9c0 2.52-.48 4.9-1.43 7.11a18.67 18.67 0 0 1-9.81 9.81c-2.22.96-4.59 1.43-7.11 1.43h-72.44c-.55 0-1-.45-1-1V92.79c0-.55.45-1 1-1h90.8zm-73.44-73.44c0-2.52.48-4.9 1.43-7.11a18.67 18.67 0 0 1 9.81-9.81c2.22-.96 4.6-1.44 7.12-1.44h72.44c.55 0 1 .45 1 1v16.36c0 .55-.45 1-1 1zm0 27.54h55.08c2.52 0 4.9.48 7.11 1.43a18.67 18.67 0 0 1 9.81 9.81c.96 2.22 1.43 4.59 1.43 7.11h-55.08c-2.52 0-4.9-.48-7.11-1.43a18.67 18.67 0 0 1-9.81-9.81c-.96-2.22-1.43-4.59-1.43-7.11m73.44 45.9V64.26h4.59c1.91 0 3.69.36 5.34 1.09 1.64.73 3.1 1.72 4.36 2.98s2.26 2.72 2.98 4.36c.73 1.65 1.09 3.43 1.09 5.34s-.36 3.69-1.09 5.34a14.3 14.3 0 0 1-2.98 4.36 14.2 14.2 0 0 1-4.36 2.98c-1.65.73-3.42 1.09-5.34 1.09z"/>
  <path fill="#201E1F" d="M596.18 91.8c-2.52 0-4.9-.48-7.11-1.43a18.67 18.67 0 0 1-9.81-9.81c-.96-2.22-1.43-4.59-1.43-7.11V36.73c0-2.52.48-4.9 1.43-7.11a18.67 18.67 0 0 1 9.81-9.81c2.22-.96 4.59-1.43 7.11-1.43v73.44zm0-73.44c0-2.52.48-4.9 1.43-7.11a18.67 18.67 0 0 1 9.81-9.81c2.23-.96 4.6-1.44 7.13-1.44h55.35c.55 0 1 .45 1 1v16.36c0 .55-.45 1-1 1zm74.71 74.44v16.36c0 .55-.45 1-1 1h-55.35c-2.52 0-4.9-.48-7.11-1.43a18.67 18.67 0 0 1-9.81-9.81c-.96-2.22-1.43-4.59-1.43-7.11h73.71c.55 0 1 .45 1 1zm165.8 17.37h-16.36c-.55 0-1-.45-1-1V18.36c0-2.52.48-4.9 1.43-7.11a18.67 18.67 0 0 1 9.81-9.81C832.8.48 835.17 0 837.69 0v109.17c0 .55-.45 1-1 1m1-91.8V0h55.08c2.52 0 4.9.48 7.11 1.43a18.67 18.67 0 0 1 9.81 9.81c.96 2.22 1.43 4.59 1.43 7.11h-73.44zm73.44 0c2.52 0 4.9.48 7.11 1.43a18.67 18.67 0 0 1 9.81 9.81c.96 2.22 1.43 4.59 1.43 7.11v72.44c0 .55-.45 1-1 1h-16.36c-.55 0-1-.45-1-1v-90.8z"/>
  <path fill="#9A71F2" d="M0 18.36h18.36v91.8H0zm18.36 0c0-2.52.48-4.9 1.43-7.12a18.67 18.67 0 0 1 9.81-9.81C31.82.47 34.19 0 36.71 0h36.72c2.52 0 4.89.48 7.11 1.43a18.67 18.67 0 0 1 9.81 9.81c.96 2.22 1.44 4.59 1.44 7.12zM91.8 45.9v18.36H18.36V45.9zm0 45.9c0 2.52-.48 4.9-1.44 7.11a18.67 18.67 0 0 1-9.81 9.81c-2.22.96-4.59 1.43-7.11 1.43H18.36V91.79H91.8zm0-45.9V18.36h4.59c1.91 0 3.69.36 5.34 1.09 1.64.73 3.1 1.72 4.36 2.98s2.26 2.72 2.98 4.36c.73 1.65 1.09 3.42 1.09 5.34s-.36 3.69-1.09 5.34a14.3 14.3 0 0 1-2.98 4.36 14.2 14.2 0 0 1-4.36 2.98c-1.65.73-3.42 1.09-5.34 1.09zm0 18.36h4.59c1.91 0 3.69.36 5.34 1.09 1.64.73 3.1 1.72 4.36 2.98s2.26 2.72 2.98 4.36c.73 1.65 1.09 3.42 1.09 5.34s-.36 3.69-1.09 5.34a14.3 14.3 0 0 1-2.98 4.36 14.2 14.2 0 0 1-4.36 2.98c-1.65.73-3.42 1.09-5.34 1.09H91.8z"/>
</svg>
