<svg width="260" height="64" viewBox="0 0 260 64" fill="none" xmlns="http://www.w3.org/2000/svg">
<path d="M73.5068 49.0115V12.8606H79.4331V28.5062C80.9871 25.8362 84.1939 24.2328 87.8386 24.2328C94.6902 24.2328 98.8648 29.5799 98.8648 37.159C98.8648 44.7381 94.3441 49.6473 87.4431 49.6473C83.8478 49.6473 80.7893 48.0438 79.3766 45.275L78.9881 49.0186H73.4998L73.5068 49.0115ZM86.2352 44.2013C90.4168 44.2013 92.889 41.1923 92.889 36.9118C92.889 32.6313 90.4098 29.5728 86.2352 29.5728C82.0607 29.5728 79.4825 32.5819 79.4825 36.9118C79.4825 41.2417 82.1525 44.2013 86.2352 44.2013Z" fill="black"/>
<path d="M101.733 49.0115V12.8606H107.609V49.0115H101.733Z" fill="black"/>
<path d="M123.304 24.3246C130.735 24.3246 136.132 29.4739 136.132 36.9541C136.132 44.4343 130.735 49.5836 123.304 49.5836C115.874 49.5836 110.477 44.4343 110.477 36.9541C110.477 29.4739 115.867 24.3246 123.304 24.3246ZM123.304 44.2931C127.387 44.2931 130.205 41.3264 130.205 36.9541C130.205 32.5818 127.387 29.6151 123.304 29.6151C119.222 29.6151 116.403 32.5818 116.403 36.9541C116.403 41.3264 119.222 44.2931 123.304 44.2931Z" fill="black"/>
<path d="M138.894 49.0115V12.8606H144.82V28.5062C146.374 25.8362 149.581 24.2328 153.225 24.2328C160.077 24.2328 164.252 29.5799 164.252 37.159C164.252 44.7381 159.731 49.6473 152.83 49.6473C149.235 49.6473 146.176 48.0438 144.763 45.275L144.375 49.0186H138.887L138.894 49.0115ZM151.622 44.2013C155.804 44.2013 158.276 41.1923 158.276 36.9118C158.276 32.6313 155.797 29.5728 151.622 29.5728C147.447 29.5728 144.869 32.5819 144.869 36.9118C144.869 41.2417 147.539 44.2013 151.622 44.2013Z" fill="black"/>
<path d="M170.813 41.722C170.863 43.8128 172.417 45.1195 175.136 45.1195C177.856 45.1195 179.41 44.0035 179.41 42.2517C179.41 41.0368 178.781 40.1609 176.641 39.6736L172.318 38.6564C167.995 37.6817 165.904 35.6403 165.904 31.8048C165.904 27.0935 169.888 24.2751 175.426 24.2751C180.964 24.2751 184.46 27.3831 184.51 32.0521H178.873C178.823 30.0107 177.467 28.6969 175.179 28.6969C172.89 28.6969 171.485 29.7635 171.485 31.5647C171.485 32.9279 172.551 33.7967 174.592 34.2841L178.915 35.3013C182.949 36.2266 184.99 38.0701 184.99 41.7643C184.99 46.624 180.858 49.6331 174.932 49.6331C169.005 49.6331 165.163 46.4263 165.163 41.7149H170.799L170.813 41.722Z" fill="black"/>
<path d="M198.17 24.2751C204.732 24.2751 209.197 27.9199 209.832 33.6978H203.906C203.228 30.9784 201.236 29.5657 198.418 29.5657C194.625 29.5657 192.103 32.4335 192.103 36.9541C192.103 41.4747 194.434 44.2931 198.227 44.2931C201.194 44.2931 203.277 42.838 203.913 40.2104H209.889C209.161 45.7976 204.499 49.6331 198.227 49.6331C190.937 49.6331 186.177 44.5827 186.177 36.9541C186.177 29.3255 191.086 24.2751 198.177 24.2751H198.17Z" fill="black"/>
<path d="M211.28 42.16C211.28 37.7383 214.487 34.9694 220.173 34.5314L227.364 33.9946V33.4578C227.364 30.2015 225.421 28.8877 222.405 28.8877C218.909 28.8877 216.966 30.3428 216.966 32.8715H211.916C211.916 27.6728 216.189 24.2682 222.702 24.2682C229.214 24.2682 233.149 27.7646 233.149 34.4255V49.0045H227.95L227.512 45.4587C226.495 47.938 223.239 49.6403 219.495 49.6403C214.395 49.6403 211.287 46.6736 211.287 42.16H211.28ZM227.413 39.2922V38.0279L222.412 38.4164C218.718 38.7554 217.312 39.9703 217.312 41.9128C217.312 44.1025 218.768 45.1691 221.445 45.1691C225.089 45.1691 227.42 42.9794 227.42 39.2922H227.413Z" fill="black"/>
<path d="M237.034 49.0115V25.0098H242.522L243.009 28.1177C244.514 25.6879 247.431 24.2822 250.687 24.2822C256.713 24.2822 259.821 28.0259 259.821 34.2417V49.0115H253.894V35.6474C253.894 31.6141 251.902 29.6717 248.844 29.6717C245.199 29.6717 242.967 32.2004 242.967 36.0853V49.0115H237.041H237.034Z" fill="black"/>
<path d="M28.0742 53.2668V61.969L53.9619 47.0227V17.1229L49.6744 19.7364" stroke="#5D25D4" stroke-width="2.49" stroke-linecap="round" stroke-linejoin="round"/>
<path d="M10.0764 21.8908L2.17944 17.1229V47.0227L28.0742 61.969V53.2668" stroke="#5D25D4" stroke-width="2.49" stroke-linecap="round" stroke-linejoin="round"/>
<path d="M10.0764 21.8908L2.17944 17.123L28.0742 2.17664L53.9619 17.123L46.0649 21.8908" stroke="#5D25D4" stroke-width="2.49" stroke-linecap="round" stroke-linejoin="round"/>
<path d="M2.17944 16.9463V46.8461L28.0742 61.7925L53.9619 46.8461V16.9463L28.0742 2L2.17944 16.9463Z" stroke="#5D25D4" stroke-width="2.49" stroke-linecap="round" stroke-linejoin="round"/>
<path d="M28.0743 53.1891L46.1215 42.7705V21.9332L28.0743 11.5145L10.0271 21.9332V42.7705L28.0743 53.1891ZM17.4791 26.2348L28.0743 20.1179L38.6696 26.2348V38.4688L28.0743 44.5858L17.4791 38.4688V26.2348Z" stroke="#5D25D4" stroke-width="2.49" stroke-linecap="round" stroke-linejoin="round"/>
<path d="M17.479 26.2349L28.0742 32.8887V44.5788L17.479 38.4688V26.2349Z" stroke="#5D25D4" stroke-miterlimit="10"/>
<path d="M38.6624 26.2349L28.0742 32.8887V44.5788L38.6624 38.4688V26.2349Z" fill="#5D25D4"/>
<path d="M17.479 26.2349L28.0742 20.1179L38.6624 26.2349L28.0742 32.8887L17.479 26.2349Z" stroke="#5D25D4" stroke-width="2.49" stroke-linecap="round" stroke-linejoin="round"/>
<path d="M28.0742 61.7924V53.2668L46.1144 42.7705V21.9332L53.9619 17.1229V46.8461L28.0742 61.7924Z" fill="#5D25D4"/>
</svg>
