<svg width="56" height="64" viewBox="0 0 56 64" fill="none" xmlns="http://www.w3.org/2000/svg">
<path d="M28.0742 53.2669V61.9692L53.9619 47.0228V17.123L49.6744 19.7365" stroke="#9A71F2" stroke-width="2.49" stroke-linecap="round" stroke-linejoin="round"/>
<path d="M10.0764 21.8909L2.17944 17.123V47.0228L28.0742 61.9692V53.2669" stroke="#9A71F2" stroke-width="2.49" stroke-linecap="round" stroke-linejoin="round"/>
<path d="M10.0764 21.891L2.17944 17.1231L28.0742 2.17676L53.9619 17.1231L46.0649 21.891" stroke="#9A71F2" stroke-width="2.49" stroke-linecap="round" stroke-linejoin="round"/>
<path d="M2.17944 16.9463V46.8461L28.0742 61.7925L53.9619 46.8461V16.9463L28.0742 2L2.17944 16.9463Z" stroke="#9A71F2" stroke-width="2.49" stroke-linecap="round" stroke-linejoin="round"/>
<path d="M28.0743 53.1893L46.1215 42.7706V21.9333L28.0743 11.5146L10.0271 21.9333V42.7706L28.0743 53.1893ZM17.4791 26.235L28.0743 20.118L38.6696 26.235V38.4689L28.0743 44.5859L17.4791 38.4689V26.235Z" stroke="#9A71F2" stroke-width="2.49" stroke-linecap="round" stroke-linejoin="round"/>
<path d="M17.479 26.2344L28.0742 32.8882V44.5783L17.479 38.4683V26.2344Z" stroke="#9A71F2" stroke-miterlimit="10"/>
<path d="M38.6624 26.2344L28.0742 32.8882V44.5783L38.6624 38.4683V26.2344Z" fill="#9A71F2"/>
<path d="M17.479 26.2352L28.0742 20.1182L38.6624 26.2352L28.0742 32.889L17.479 26.2352Z" stroke="#9A71F2" stroke-width="2.49" stroke-linecap="round" stroke-linejoin="round"/>
<path d="M28.0742 61.7926V53.2669L46.1144 42.7706V21.9333L53.9619 17.123V46.8462L28.0742 61.7926Z" fill="#9A71F2"/>
</svg>
