<svg xmlns="http://www.w3.org/2000/svg" fill="none" viewBox="0 0 111 111">
  <path fill="#9A71F2" d="M0 18.36h18.36v91.8H0zm18.36 0c0-2.52.48-4.9 1.43-7.12a18.67 18.67 0 0 1 9.81-9.81C31.82.48 34.2 0 36.72 0h36.72c2.53 0 4.9.48 7.12 1.43a18.67 18.67 0 0 1 9.81 9.81c.96 2.22 1.44 4.59 1.44 7.12zM91.8 45.9v18.36H18.36V45.9zm0 45.9c0 2.52-.48 4.9-1.44 7.11a18.67 18.67 0 0 1-9.81 9.81c-2.22.96-4.59 1.43-7.11 1.43H18.36V91.79H91.8zm0-45.9V18.36h4.59c1.91 0 3.69.36 5.34 1.09 1.64.73 3.1 1.72 4.36 2.98s2.26 2.72 2.98 4.36c.73 1.65 1.09 3.42 1.09 5.34s-.36 3.69-1.09 5.34a14.3 14.3 0 0 1-2.98 4.36 14.2 14.2 0 0 1-4.36 2.98c-1.65.73-3.42 1.09-5.34 1.09zm0 18.36h4.59c1.91 0 3.69.36 5.34 1.09 1.64.73 3.1 1.72 4.36 2.98s2.26 2.72 2.98 4.36c.73 1.65 1.09 3.42 1.09 5.34s-.36 3.69-1.09 5.34a14.3 14.3 0 0 1-2.98 4.36 14.2 14.2 0 0 1-4.36 2.98c-1.65.73-3.42 1.09-5.34 1.09H91.8z"/>
</svg>
