<svg width="20" height="20" viewBox="0 0 20 20" fill="none" xmlns="http://www.w3.org/2000/svg">
<path d="M8.43629 2.82949C8.83427 1.19018 11.1657 1.19018 11.5637 2.8295C11.8207 3.88847 13.034 4.39102 13.9646 3.824C15.4052 2.94624 17.0537 4.5948 16.176 6.03538C15.609 6.96598 16.1115 8.17924 17.1705 8.43632C18.8098 8.8343 18.8098 11.1657 17.1705 11.5637C16.1115 11.8208 15.609 13.034 16.176 13.9646C17.0537 15.4052 15.4052 17.0538 13.9646 16.176C13.034 15.609 11.8207 16.1115 11.5637 17.1705C11.1657 18.8098 8.83427 18.8098 8.43629 17.1705C8.17921 16.1115 6.96595 15.609 6.03535 16.176C4.59477 17.0538 2.94621 15.4052 3.82397 13.9646C4.39099 13.034 3.88844 11.8208 2.82946 11.5637C1.19015 11.1657 1.19015 8.8343 2.82946 8.43632C3.88844 8.17924 4.39099 6.96598 3.82397 6.03538C2.94621 4.5948 4.59477 2.94624 6.03535 3.824C6.96595 4.39102 8.17921 3.88847 8.43629 2.82949Z" stroke="#404040" stroke-width="1.67" stroke-linecap="round" stroke-linejoin="round"/>
<path d="M12.8 10C12.8 11.5464 11.5464 12.8 9.99998 12.8C8.45358 12.8 7.19998 11.5464 7.19998 10C7.19998 8.45361 8.45358 7.20001 9.99998 7.20001C11.5464 7.20001 12.8 8.45361 12.8 10Z" stroke="#404040" stroke-width="1.67" stroke-linecap="round" stroke-linejoin="round"/>
</svg>
