<?xml version="1.0" encoding="UTF-8"?>
<svg fill="none" viewBox="0 0 119 30" xmlns="http://www.w3.org/2000/svg">
<path d="m33.271 22.784v-16.526h2.7092v7.1523c0.7104-1.2206 2.1764-1.9536 3.8425-1.9536 3.1322 0 5.0405 2.4444 5.0405 5.9092 0 3.4647-2.0665 5.7089-5.2213 5.7089-1.6436 0-3.0417-0.733-3.6875-1.9988l-0.1776 1.7114h-2.509l0.0032-0.0032zm5.8187-2.199c1.9116 0 3.0418-1.3756 3.0418-3.3324 0-1.9567-1.1334-3.3549-3.0418-3.3549-1.9083 0-3.0869 1.3755-3.0869 3.3549s1.2206 3.3324 3.0869 3.3324z" fill="#fff"/>
<path d="m46.174 22.784v-16.526h2.6865v16.526h-2.6865z" fill="#fff"/>
<path d="m56.035 11.498c3.397 0 5.8639 2.354 5.8639 5.7735 0 3.4196-2.4669 5.7735-5.8639 5.7735-3.3969 0-5.8639-2.3539-5.8639-5.7735 0-3.4195 2.4638-5.7735 5.8639-5.7735zm0 9.1285c1.8664 0 3.1548-1.3562 3.1548-3.355 0-1.9987-1.2884-3.3549-3.1548-3.3549s-3.1547 1.3562-3.1547 3.3549c0 1.9988 1.2883 3.355 3.1547 3.355z" fill="#fff"/>
<path d="m63.162 22.784v-16.526h2.7091v7.1523c0.7104-1.2206 2.1764-1.9536 3.8425-1.9536 3.1322 0 5.0406 2.4444 5.0406 5.9092 0 3.4647-2.0666 5.7089-5.2214 5.7089-1.6436 0-3.0417-0.733-3.6875-1.9988l-0.1776 1.7114h-2.509l0.0033-0.0032zm5.8187-2.199c1.9115 0 3.0417-1.3756 3.0417-3.3324 0-1.9567-1.1334-3.3549-3.0417-3.3549-1.9084 0-3.087 1.3755-3.087 3.3549s1.2206 3.3324 3.087 3.3324z" fill="#fff"/>
<path d="m77.754 19.452c0.0226 0.9558 0.733 1.5532 1.9762 1.5532s1.9535-0.5102 1.9535-1.311c0-0.5554-0.2873-0.9558-1.2657-1.1786l-1.9762-0.465c-1.9762-0.4456-2.932-1.3788-2.932-3.1321 0-2.1538 1.8212-3.4422 4.3528-3.4422 2.5315 0 4.1299 1.4208 4.1525 3.5552h-2.5768c-0.0226-0.9332-0.6425-1.5338-1.6887-1.5338s-1.6888 0.4876-1.6888 1.311c0 0.6232 0.4876 1.0204 1.4207 1.2432l1.9762 0.4649c1.8438 0.423 2.777 1.2658 2.777 2.9546 0 2.2216-1.889 3.5971-4.5982 3.5971-2.7091 0-4.4657-1.4659-4.4657-3.6197h2.5768l0.0064 0.0032z" fill="#fff"/>
<path d="m90.26 11.476c2.9997 0 5.0405 1.6662 5.3311 4.3076h-2.7092c-0.31-1.2432-1.2205-1.889-2.5089-1.889-1.734 0-2.8868 1.311-2.8868 3.3775 0 2.0666 1.0656 3.355 2.7996 3.355 1.3562 0 2.3088-0.6652 2.5994-1.8664h2.7317c-0.3326 2.5542-2.4637 4.3075-5.3311 4.3075-3.3324 0-5.5087-2.3087-5.5087-5.7961 0-3.4873 2.2442-5.7961 5.4861-5.7961h-0.0032z" fill="#fff"/>
<path d="m96.253 19.652c0-2.0214 1.466-3.2872 4.0651-3.4874l3.287-0.2454v-0.2454c0-1.4886-0.888-2.0892-2.266-2.0892-1.5987 0-2.4867 0.6652-2.4867 1.8212h-2.3088c0-2.3766 1.9536-3.9329 4.9305-3.9329 2.977 0 4.776 1.5983 4.776 4.6433v6.6647h-2.377l-0.2-1.621c-0.465 1.1334-1.953 1.9116-3.665 1.9116-2.3311 0-3.7518-1.3562-3.7518-3.4195h-0.0033zm7.3751-1.311v-0.578l-2.286 0.1776c-1.6889 0.155-2.3315 0.7104-2.3315 1.5984 0 1.001 0.6652 1.4885 1.8895 1.4885 1.666 0 2.731-1.001 2.731-2.6865h-3e-3z" fill="#fff"/>
<path d="m108.03 22.784v-10.972h2.509l0.223 1.4208c0.687-1.1108 2.021-1.7534 3.51-1.7534 2.754 0 4.175 1.7114 4.175 4.553v6.7519h-2.709v-6.1093c0-1.8438-0.911-2.7318-2.309-2.7318-1.666 0-2.687 1.156-2.687 2.9319v5.9092h-2.712z" fill="#fff"/>
<path d="m12.502 24.729v3.9782l11.834-6.8326v-13.668l-1.96 1.1947" stroke="#9A71F2" stroke-linecap="round" stroke-linejoin="round" stroke-width="1.1383"/>
<path d="m4.274 10.386-3.61-2.1796v13.668l11.838 6.8326v-3.9782" stroke="#9A71F2" stroke-linecap="round" stroke-linejoin="round" stroke-width="1.1383"/>
<path d="m4.274 10.386-3.61-2.1796 11.838-6.8326 11.834 6.8326-3.61 2.1796" stroke="#9A71F2" stroke-linecap="round" stroke-linejoin="round" stroke-width="1.1383"/>
<path d="m0.66394 8.1256v13.668l11.838 6.8327 11.834-6.8327v-13.668l-11.834-6.8326-11.838 6.8326z" stroke="#9A71F2" stroke-linecap="round" stroke-linejoin="round" stroke-width="1.1383"/>
<path d="m12.502 24.694 8.2502-4.7628v-9.5256l-8.2502-4.7628-8.2501 4.7628v9.5256l8.2501 4.7628zm-4.8435-12.322 4.8435-2.7964 4.8436 2.7964v5.5926l-4.8436 2.7964-4.8435-2.7964v-5.5926z" stroke="#9A71F2" stroke-linecap="round" stroke-linejoin="round" stroke-width="1.1383"/>
<path d="m7.658 12.372 4.8436 3.0418v5.344l-4.8436-2.7931v-5.5927z" stroke="#9A71F2" stroke-miterlimit="10" stroke-width=".45714"/>
<path d="m17.342 12.372-4.8403 3.0418v5.344l4.8403-2.7931v-5.5927z" fill="#9A71F2"/>
<path d="m7.658 12.372 4.8436-2.7964 4.8403 2.7964-4.8403 3.0417-4.8436-3.0417z" stroke="#9A71F2" stroke-linecap="round" stroke-linejoin="round" stroke-width="1.1383"/>
<path d="m12.502 28.627v-3.8975l8.247-4.7983v-9.5256l3.5874-2.199v13.588l-11.834 6.8327z" fill="#9A71F2"/>
</svg>
