<svg width="280" height="54" viewBox="0 0 280 54" fill="none" xmlns="http://www.w3.org/2000/svg">
<path d="M23.3539 0L14.8815 13.5084H0L7.7834 0H23.3539Z" fill="#5D25D4"/>
<path d="M23.3539 27.0129L14.8815 13.5083H0L7.7834 27.0129H23.3539Z" fill="#896EE1"/>
<path d="M23.3538 0L31.1372 13.5084L23.3538 27.013L14.8813 13.5084L23.3538 0Z" fill="#372779"/>
<path d="M54.3578 0L45.8854 13.5084H31.0039L38.7873 0H54.3578Z" fill="#896EE1"/>
<path d="M54.3578 27.0129L45.8854 13.5083H31.0039L38.7873 27.0129H54.3578Z" fill="#372779"/>
<path d="M54.3582 0L62.1416 13.5084L54.3582 27.013L45.8857 13.5084L54.3582 0Z" fill="#5D25D4"/>
<path d="M38.9428 26.9871L30.4703 40.4954H15.5889L23.3723 26.9871H38.9428Z" fill="#896EE1"/>
<path d="M38.9428 54L30.4703 40.4954H15.5889L23.3723 54H38.9428Z" fill="#5D25D4"/>
<path d="M38.9427 26.9871L46.7261 40.4954L38.9427 54L30.4702 40.4954L38.9427 26.9871Z" fill="#372779"/>
<path d="M69.9467 26.9871L61.4742 40.4954H46.5928L54.3762 26.9871H69.9467Z" fill="#5D25D4"/>
<path d="M69.9467 54L61.4742 40.4954H46.5928L54.3762 54H69.9467Z" fill="#896EE1"/>
<path d="M69.9466 26.9871L77.73 40.4954L69.9466 54L61.4741 40.4954L69.9466 26.9871Z" fill="#372779"/>
<path d="M89.73 45.0841V8.27014H95.7574V24.2018C97.3393 21.4816 100.599 19.8487 104.304 19.8487C111.269 19.8487 115.518 25.2929 115.518 33.0119C115.518 40.731 110.924 45.7298 103.911 45.7298C100.255 45.7298 97.1429 44.097 95.7129 41.2765L95.3165 45.0878H89.7337L89.73 45.0841ZM102.67 40.1855C106.919 40.1855 109.439 37.1164 109.439 32.7633C109.439 28.4102 106.919 25.2929 102.67 25.2929C98.421 25.2929 95.8056 28.362 95.8056 32.7633C95.8056 37.1646 98.521 40.1855 102.67 40.1855Z" fill="#171717"/>
<path d="M118.426 45.0841V8.27014H124.402V45.0841H118.426Z" fill="#171717"/>
<path d="M140.357 19.9452C147.915 19.9452 153.398 25.189 153.398 32.8115C153.398 40.4341 147.915 45.6779 140.357 45.6779C132.8 45.6779 127.317 40.4341 127.317 32.8115C127.317 25.189 132.8 19.9452 140.357 19.9452ZM140.357 40.2819C144.507 40.2819 147.37 37.2648 147.37 32.8115C147.37 28.3582 144.507 25.3411 140.357 25.3411C136.208 25.3411 133.345 28.3582 133.345 32.8115C133.345 37.2648 136.208 40.2819 140.357 40.2819Z" fill="#171717"/>
<path d="M156.209 45.0841V8.27014H162.237V24.2018C163.819 21.4816 167.079 19.8487 170.783 19.8487C177.748 19.8487 181.997 25.2929 181.997 33.0119C181.997 40.731 177.404 45.7298 170.391 45.7298C166.734 45.7298 163.622 44.097 162.192 41.2765L161.796 45.0878H156.213L156.209 45.0841ZM169.15 40.1855C173.399 40.1855 175.918 37.1164 175.918 32.7633C175.918 28.4102 173.399 25.2929 169.15 25.2929C164.901 25.2929 162.285 28.362 162.285 32.7633C162.285 37.1646 165.001 40.1855 169.15 40.1855Z" fill="#171717"/>
<path d="M188.662 37.662C188.71 39.7884 190.292 41.1244 193.059 41.1244C195.826 41.1244 197.405 39.9851 197.405 38.2038C197.405 36.968 196.764 36.0774 194.589 35.5801L190.192 34.541C185.794 33.5501 183.672 31.4719 183.672 27.5641C183.672 22.7657 187.721 19.8933 193.352 19.8933C198.983 19.8933 202.539 23.0589 202.587 27.8091H196.856C196.808 25.7308 195.423 24.3949 193.104 24.3949C190.784 24.3949 189.351 25.4822 189.351 27.3155C189.351 28.6997 190.436 29.5904 192.511 30.0877L196.908 31.1268C201.009 32.0657 203.084 33.9472 203.084 37.7065C203.084 42.6534 198.886 45.7225 192.859 45.7225C186.832 45.7225 182.931 42.4567 182.931 37.6583H188.662V37.662Z" fill="#171717"/>
<path d="M216.469 19.897C223.137 19.897 227.683 23.6081 228.323 29.4976H222.296C221.603 26.7254 219.581 25.2929 216.713 25.2929C212.86 25.2929 210.293 28.2135 210.293 32.8153C210.293 37.417 212.664 40.2857 216.517 40.2857C219.529 40.2857 221.655 38.8012 222.296 36.1293H228.372C227.631 41.8184 222.889 45.7298 216.517 45.7298C209.108 45.7298 204.266 40.5826 204.266 32.8153C204.266 25.048 209.256 19.9007 216.465 19.9007L216.469 19.897Z" fill="#171717"/>
<path d="M229.805 38.1073C229.805 33.6057 233.065 30.7853 238.844 30.34L246.154 29.7944V29.2489C246.154 25.9349 244.179 24.5989 241.115 24.5989C237.559 24.5989 235.584 26.0834 235.584 28.6551H230.446C230.446 23.3594 234.792 19.897 241.412 19.897C248.032 19.897 252.033 23.4596 252.033 30.2398V45.0841H246.746L246.302 41.4732C245.265 43.9968 241.956 45.7298 238.152 45.7298C232.965 45.7298 229.805 42.7127 229.805 38.111V38.1073ZM246.206 35.1866V33.8989L241.119 34.296C237.366 34.6411 235.933 35.8806 235.933 37.8586C235.933 40.0853 237.414 41.1726 240.13 41.1726C243.835 41.1726 246.206 38.946 246.206 35.1866Z" fill="#171717"/>
<path d="M255.982 45.0841V20.6392H261.565L262.058 23.8047C263.588 21.3295 266.551 19.897 269.863 19.897C275.987 19.897 279.151 23.7083 279.151 30.0394V45.0804H273.123V31.4718C273.123 27.3637 271.097 25.3857 267.985 25.3857C264.281 25.3857 262.01 27.9574 262.01 31.9172V45.0804H255.982V45.0841Z" fill="#171717"/>
</svg>
