<svg width="280" height="54" viewBox="0 0 280 54" fill="none" xmlns="http://www.w3.org/2000/svg">
<path d="M23.7784 0L15.306 13.5084H0.42453L8.20793 0H23.7784Z" fill="#5D25D4"/>
<path d="M23.7784 27.013L15.306 13.5083H0.42453L8.20793 27.013H23.7784Z" fill="#896EE1"/>
<path d="M23.7784 0L31.5619 13.5084L23.7784 27.013L15.306 13.5084L23.7784 0Z" fill="#372779"/>
<path d="M54.7823 0L46.3099 13.5084H31.4284L39.2118 0H54.7823Z" fill="#896EE1"/>
<path d="M54.7823 27.013L46.3099 13.5084H31.4284L39.2118 27.013H54.7823Z" fill="#372779"/>
<path d="M54.7827 0L62.5661 13.5084L54.7827 27.013L46.3103 13.5084L54.7827 0Z" fill="#5D25D4"/>
<path d="M39.3673 26.987L30.8948 40.4954H16.0134L23.7968 26.987H39.3673Z" fill="#896EE1"/>
<path d="M39.3673 54L30.8948 40.4953H16.0134L23.7968 54H39.3673Z" fill="#5D25D4"/>
<path d="M39.3673 26.987L47.1507 40.4954L39.3673 54L30.8949 40.4954L39.3673 26.987Z" fill="#372779"/>
<path d="M70.3712 26.987L61.8988 40.4954H47.0173L54.8007 26.987H70.3712Z" fill="#5D25D4"/>
<path d="M70.3712 54L61.8988 40.4953H47.0173L54.8007 54H70.3712Z" fill="#896EE1"/>
<path d="M70.3712 26.987L78.1546 40.4954L70.3712 54L61.8988 40.4954L70.3712 26.987Z" fill="#372779"/>
<path d="M90.1546 45.0841V8.27014H96.182V24.2018C97.7639 21.4816 101.024 19.8487 104.729 19.8487C111.693 19.8487 115.942 25.2929 115.942 33.0119C115.942 40.731 111.349 45.7298 104.336 45.7298C100.679 45.7298 97.5676 44.097 96.1376 41.2765L95.7412 45.0878H90.1583L90.1546 45.0841ZM103.095 40.1855C107.344 40.1855 109.863 37.1164 109.863 32.7633C109.863 28.4102 107.344 25.2929 103.095 25.2929C98.8457 25.2929 96.2302 28.362 96.2302 32.7633C96.2302 37.1646 98.9457 40.1855 103.095 40.1855Z" fill="#171717"/>
<path d="M118.851 45.0841V8.27014H124.826V45.0841H118.851Z" fill="#171717"/>
<path d="M140.782 19.9452C148.339 19.9452 153.822 25.189 153.822 32.8116C153.822 40.4341 148.339 45.6779 140.782 45.6779C133.225 45.6779 127.742 40.4341 127.742 32.8116C127.742 25.189 133.225 19.9452 140.782 19.9452ZM140.782 40.282C144.931 40.282 147.795 37.2649 147.795 32.8116C147.795 28.3583 144.931 25.3411 140.782 25.3411C136.633 25.3411 133.769 28.3583 133.769 32.8116C133.769 37.2649 136.633 40.282 140.782 40.282Z" fill="#171717"/>
<path d="M156.634 45.0841V8.27014H162.661V24.2018C164.243 21.4816 167.503 19.8487 171.208 19.8487C178.173 19.8487 182.422 25.2929 182.422 33.0119C182.422 40.731 177.828 45.7298 170.815 45.7298C167.159 45.7298 164.047 44.097 162.617 41.2765L162.221 45.0878H156.638L156.634 45.0841ZM169.574 40.1855C173.823 40.1855 176.343 37.1164 176.343 32.7633C176.343 28.4102 173.823 25.2929 169.574 25.2929C165.325 25.2929 162.71 28.362 162.71 32.7633C162.71 37.1646 165.425 40.1855 169.574 40.1855Z" fill="#171717"/>
<path d="M189.086 37.6619C189.135 39.7884 190.716 41.1244 193.484 41.1244C196.251 41.1244 197.829 39.9851 197.829 38.2038C197.829 36.968 197.188 36.0773 195.014 35.58L190.616 34.5409C186.219 33.5501 184.096 31.4719 184.096 27.5641C184.096 22.7656 188.145 19.8933 193.776 19.8933C199.408 19.8933 202.964 23.0588 203.012 27.809H197.281C197.233 25.7308 195.847 24.3948 193.528 24.3948C191.209 24.3948 189.776 25.4822 189.776 27.3154C189.776 28.6997 190.861 29.5903 192.936 30.0876L197.333 31.1267C201.434 32.0656 203.509 33.9471 203.509 37.7065C203.509 42.6533 199.311 45.7224 193.284 45.7224C187.256 45.7224 183.355 42.4567 183.355 37.6582H189.086V37.6619Z" fill="#171717"/>
<path d="M216.893 19.897C223.562 19.897 228.107 23.6081 228.748 29.4976H222.721C222.028 26.7254 220.005 25.2929 217.138 25.2929C213.285 25.2929 210.718 28.2135 210.718 32.8153C210.718 37.417 213.089 40.2857 216.941 40.2857C219.953 40.2857 222.08 38.8012 222.721 36.1293H228.796C228.055 41.8184 223.313 45.7298 216.941 45.7298C209.532 45.7298 204.69 40.5826 204.69 32.8153C204.69 25.048 209.68 19.9007 216.89 19.9007L216.893 19.897Z" fill="#171717"/>
<path d="M230.23 38.1073C230.23 33.6057 233.49 30.7853 239.269 30.34L246.578 29.7944V29.2489C246.578 25.9349 244.604 24.5989 241.54 24.5989C237.984 24.5989 236.009 26.0834 236.009 28.6551H230.871C230.871 23.3594 235.216 19.897 241.837 19.897C248.457 19.897 252.458 23.4596 252.458 30.2398V45.0841H247.171L246.727 41.4732C245.689 43.9968 242.381 45.7298 238.576 45.7298C233.39 45.7298 230.23 42.7127 230.23 38.111V38.1073ZM246.63 35.1866V33.8989L241.544 34.296C237.791 34.6411 236.357 35.8806 236.357 37.8586C236.357 40.0853 237.839 41.1726 240.555 41.1726C244.259 41.1726 246.63 38.946 246.63 35.1866Z" fill="#171717"/>
<path d="M256.407 45.0841V20.6392H261.99L262.482 23.8047C264.012 21.3295 266.976 19.897 270.288 19.897C276.412 19.897 279.575 23.7083 279.575 30.0394V45.0804H273.548V31.4718C273.548 27.3637 271.522 25.3857 268.41 25.3857C264.705 25.3857 262.434 27.9574 262.434 31.9172V45.0804H256.407V45.0841Z" fill="#171717"/>
</svg>
