<svg width="285" height="58" viewBox="0 0 285 58" fill="none" xmlns="http://www.w3.org/2000/svg">
<path d="M2 15.5L10 2H26M2 15.5L10 29H26.5M2 15.5H17M26 2L34 15.5L26.5 29M26 2L17 15.5M26.5 29L17 15.5" stroke="white" stroke-width="3"/>
<path d="M18 42.5L26 29H42M18 42.5L26 56H42.5M18 42.5H33M42 29L50 42.5L42.5 56M42 29L33 42.5M42.5 56L33 42.5" stroke="white" stroke-width="3"/>
<path d="M35 15.5L43 2H59M35 15.5L43 29H59.5M35 15.5H50M59 2L67 15.5L59.5 29M59 2L50 15.5M59.5 29L50 15.5" stroke="white" stroke-width="3"/>
<path d="M51 42.5L59 29H75M51 42.5L59 56H75.5M51 42.5H66M75 29L83 42.5L75.5 56M75 29L66 42.5M75.5 56L66 42.5" stroke="white" stroke-width="3"/>
<path d="M95 47.0841V10.2701H101.027V26.2018C102.609 23.4816 105.869 21.8487 109.574 21.8487C116.539 21.8487 120.788 27.2929 120.788 35.0119C120.788 42.731 116.194 47.7298 109.181 47.7298C105.525 47.7298 102.413 46.097 100.983 43.2765L100.587 47.0878H95.0037L95 47.0841ZM107.94 42.1855C112.189 42.1855 114.709 39.1164 114.709 34.7633C114.709 30.4102 112.189 27.2929 107.94 27.2929C103.691 27.2929 101.076 30.362 101.076 34.7633C101.076 39.1646 103.791 42.1855 107.94 42.1855Z" fill="white"/>
<path d="M123.696 47.0841V10.2701H129.672V47.0841H123.696Z" fill="white"/>
<path d="M145.627 21.9452C153.185 21.9452 158.668 27.189 158.668 34.8115C158.668 42.4341 153.185 47.6779 145.627 47.6779C138.07 47.6779 132.587 42.4341 132.587 34.8115C132.587 27.189 138.07 21.9452 145.627 21.9452ZM145.627 42.2819C149.777 42.2819 152.64 39.2648 152.64 34.8115C152.64 30.3582 149.777 27.3411 145.627 27.3411C141.478 27.3411 138.615 30.3582 138.615 34.8115C138.615 39.2648 141.478 42.2819 145.627 42.2819Z" fill="white"/>
<path d="M161.479 47.0841V10.2701H167.507V26.2018C169.089 23.4816 172.349 21.8487 176.053 21.8487C183.018 21.8487 187.267 27.2929 187.267 35.0119C187.267 42.731 182.674 47.7298 175.661 47.7298C172.004 47.7298 168.892 46.097 167.462 43.2765L167.066 47.0878H161.483L161.479 47.0841ZM174.42 42.1855C178.669 42.1855 181.188 39.1164 181.188 34.7633C181.188 30.4102 178.669 27.2929 174.42 27.2929C170.171 27.2929 167.555 30.362 167.555 34.7633C167.555 39.1646 170.271 42.1855 174.42 42.1855Z" fill="white"/>
<path d="M193.932 39.662C193.98 41.7884 195.562 43.1244 198.329 43.1244C201.096 43.1244 202.675 41.9851 202.675 40.2038C202.675 38.968 202.034 38.0774 199.859 37.5801L195.462 36.541C191.064 35.5501 188.942 33.4719 188.942 29.5641C188.942 24.7657 192.991 21.8933 198.622 21.8933C204.253 21.8933 207.809 25.0589 207.857 29.8091H202.126C202.078 27.7308 200.693 26.3949 198.374 26.3949C196.054 26.3949 194.621 27.4822 194.621 29.3155C194.621 30.6997 195.706 31.5904 197.781 32.0877L202.178 33.1268C206.279 34.0657 208.354 35.9472 208.354 39.7065C208.354 44.6534 204.156 47.7225 198.129 47.7225C192.102 47.7225 188.201 44.4567 188.201 39.6583H193.932V39.662Z" fill="white"/>
<path d="M221.739 21.897C228.407 21.897 232.953 25.6081 233.593 31.4976H227.566C226.873 28.7254 224.851 27.2929 221.983 27.2929C218.13 27.2929 215.563 30.2135 215.563 34.8153C215.563 39.417 217.934 42.2857 221.787 42.2857C224.799 42.2857 226.925 40.8012 227.566 38.1293H233.642C232.901 43.8184 228.159 47.7298 221.787 47.7298C214.378 47.7298 209.536 42.5826 209.536 34.8153C209.536 27.048 214.526 21.9007 221.735 21.9007L221.739 21.897Z" fill="white"/>
<path d="M235.075 40.1073C235.075 35.6057 238.335 32.7853 244.114 32.34L251.424 31.7944V31.2489C251.424 27.9349 249.449 26.5989 246.385 26.5989C242.829 26.5989 240.854 28.0834 240.854 30.6551H235.716C235.716 25.3594 240.062 21.897 246.682 21.897C253.302 21.897 257.303 25.4596 257.303 32.2398V47.0841H252.016L251.572 43.4732C250.535 45.9968 247.226 47.7298 243.422 47.7298C238.235 47.7298 235.075 44.7127 235.075 40.111V40.1073ZM251.476 37.1866V35.8989L246.389 36.296C242.636 36.6411 241.203 37.8806 241.203 39.8586C241.203 42.0853 242.684 43.1726 245.4 43.1726C249.105 43.1726 251.476 40.946 251.476 37.1866Z" fill="white"/>
<path d="M261.252 47.0841V22.6392H266.835L267.328 25.8047C268.858 23.3295 271.821 21.897 275.133 21.897C281.257 21.897 284.421 25.7083 284.421 32.0394V47.0804H278.393V33.4718C278.393 29.3637 276.367 27.3857 273.255 27.3857C269.551 27.3857 267.28 29.9574 267.28 33.9172V47.0804H261.252V47.0841Z" fill="white"/>
</svg>
