<?xml version="1.0" encoding="UTF-8"?>
<svg fill="none" viewBox="0 0 17 17" xmlns="http://www.w3.org/2000/svg">
<path d="m6.7941 0.44894c0.23606 0.23606 0.30846 0.59022 0.18397 0.89999-0.30811 0.76669-0.47807 1.6047-0.47807 2.4844 0 3.6819 2.9848 6.6666 6.6667 6.6666 0.8797 0 1.7177-0.1699 2.4844-0.4781 0.3097-0.12444 0.6639-0.05205 0.9 0.184 0.236 0.2361 0.3084 0.5902 0.1839 0.9-1.2308 3.0627-4.2291 5.2274-7.735 5.2274-4.6024 0-8.3333-3.7309-8.3333-8.3333 0-3.5059 2.1648-6.5043 5.2274-7.7351 0.30977-0.12449 0.66394-0.052089 0.9 0.18398zm-1.8894 2.29c-1.5655 1.2204-2.5713 3.1239-2.5713 5.2611 0 3.6819 2.9848 6.6667 6.6667 6.6667 2.1372 0 4.0406-1.0058 5.2611-2.5713-0.3584 0.047-0.7237 0.0713-1.0944 0.0713-4.6024 0-8.3334-3.731-8.3334-8.3334 0-0.37076 0.02426-0.73608 0.07132-1.0944z" clip-rule="evenodd" fill="#FAFAFF" fill-rule="evenodd"/>
</svg>
