<svg width="260" height="64" viewBox="0 0 260 64" fill="none" xmlns="http://www.w3.org/2000/svg">
<path d="M73.3274 49.0116V12.8606H79.2537V28.5063C80.8076 25.8363 84.0144 24.2328 87.6592 24.2328C94.5108 24.2328 98.6853 29.5799 98.6853 37.159C98.6853 44.7382 94.1647 49.6473 87.2637 49.6473C83.6683 49.6473 80.6098 48.0439 79.1971 45.275L78.8086 49.0186H73.3203L73.3274 49.0116ZM86.0558 44.2013C90.2374 44.2013 92.7096 41.1923 92.7096 36.9118C92.7096 32.6313 90.2303 29.5728 86.0558 29.5728C81.8813 29.5728 79.3031 32.5819 79.3031 36.9118C79.3031 41.2417 81.9731 44.2013 86.0558 44.2013Z" fill="black"/>
<path d="M101.553 49.0116V12.8606H107.43V49.0116H101.553Z" fill="black"/>
<path d="M123.125 24.3247C130.556 24.3247 135.952 29.474 135.952 36.9542C135.952 44.4344 130.556 49.5837 123.125 49.5837C115.694 49.5837 110.298 44.4344 110.298 36.9542C110.298 29.474 115.687 24.3247 123.125 24.3247ZM123.125 44.2932C127.208 44.2932 130.026 41.3265 130.026 36.9542C130.026 32.5819 127.208 29.6152 123.125 29.6152C119.042 29.6152 116.224 32.5819 116.224 36.9542C116.224 41.3265 119.042 44.2932 123.125 44.2932Z" fill="black"/>
<path d="M138.714 49.0116V12.8606H144.64V28.5063C146.194 25.8363 149.401 24.2328 153.046 24.2328C159.898 24.2328 164.072 29.5799 164.072 37.159C164.072 44.7382 159.551 49.6473 152.65 49.6473C149.055 49.6473 145.997 48.0439 144.584 45.275L144.195 49.0186H138.707L138.714 49.0116ZM151.443 44.2013C155.624 44.2013 158.096 41.1923 158.096 36.9118C158.096 32.6313 155.617 29.5728 151.443 29.5728C147.268 29.5728 144.69 32.5819 144.69 36.9118C144.69 41.2417 147.36 44.2013 151.443 44.2013Z" fill="black"/>
<path d="M170.634 41.722C170.683 43.8128 172.237 45.1196 174.957 45.1196C177.676 45.1196 179.23 44.0036 179.23 42.2518C179.23 41.0369 178.602 40.161 176.461 39.6736L172.138 38.6565C167.816 37.6817 165.725 35.6404 165.725 31.8049C165.725 27.0936 169.709 24.2752 175.246 24.2752C180.784 24.2752 184.281 27.3832 184.33 32.0521H178.693C178.644 30.0108 177.288 28.697 174.999 28.697C172.711 28.697 171.305 29.7636 171.305 31.5647C171.305 32.928 172.372 33.7968 174.413 34.2842L178.736 35.3013C182.769 36.2267 184.81 38.0702 184.81 41.7644C184.81 46.6241 180.678 49.6332 174.752 49.6332C168.826 49.6332 164.983 46.4263 164.983 41.715H170.62L170.634 41.722Z" fill="black"/>
<path d="M197.991 24.2752C204.553 24.2752 209.017 27.92 209.653 33.6979H203.726C203.048 30.9785 201.056 29.5658 198.238 29.5658C194.445 29.5658 191.923 32.4336 191.923 36.9542C191.923 41.4748 194.254 44.2932 198.047 44.2932C201.014 44.2932 203.098 42.8381 203.734 40.2105H209.709C208.982 45.7977 204.32 49.6332 198.047 49.6332C190.758 49.6332 185.997 44.5828 185.997 36.9542C185.997 29.3256 190.906 24.2752 197.998 24.2752H197.991Z" fill="black"/>
<path d="M211.101 42.16C211.101 37.7382 214.308 34.9693 219.994 34.5314L227.184 33.9946V33.4578C227.184 30.2015 225.242 28.8877 222.226 28.8877C218.729 28.8877 216.787 30.3428 216.787 32.8715H211.737C211.737 27.6728 216.01 24.2682 222.523 24.2682C229.035 24.2682 232.969 27.7646 232.969 34.4255V49.0045H227.771L227.333 45.4586C226.316 47.9379 223.059 49.6402 219.316 49.6402C214.216 49.6402 211.108 46.6736 211.108 42.16H211.101ZM227.234 39.2922V38.0278L222.233 38.4163C218.539 38.7554 217.133 39.9703 217.133 41.9128C217.133 44.1024 218.588 45.169 221.265 45.169C224.91 45.169 227.241 42.9793 227.241 39.2922H227.234Z" fill="black"/>
<path d="M236.854 49.0116V25.0098H242.343L242.83 28.1178C244.335 25.6879 247.252 24.2823 250.508 24.2823C256.533 24.2823 259.641 28.0259 259.641 34.2418V49.0116H253.715V35.6474C253.715 31.6142 251.723 29.6717 248.664 29.6717C245.02 29.6717 242.788 32.2005 242.788 36.0854V49.0116H236.861H236.854Z" fill="black"/>
<path d="M27.8948 53.2669V61.9691L53.7825 47.0227V17.123L49.4949 19.7365" stroke="#5D25D4" stroke-width="2.49" stroke-linecap="round" stroke-linejoin="round"/>
<path d="M9.89698 21.8908L2 17.123V47.0227L27.8948 61.9691V53.2669" stroke="#5D25D4" stroke-width="2.49" stroke-linecap="round" stroke-linejoin="round"/>
<path d="M9.89698 21.8908L2 17.123L27.8948 2.17661L53.7825 17.123L45.8855 21.8908" stroke="#5D25D4" stroke-width="2.49" stroke-linecap="round" stroke-linejoin="round"/>
<path d="M2 16.9463V46.8461L27.8948 61.7925L53.7825 46.8461V16.9463L27.8948 2L2 16.9463Z" stroke="#5D25D4" stroke-width="2.49" stroke-linecap="round" stroke-linejoin="round"/>
<path d="M27.8949 53.1891L45.9421 42.7705V21.9332L27.8949 11.5145L9.84766 21.9332V42.7705L27.8949 53.1891ZM17.2996 26.2348L27.8949 20.1179L38.4901 26.2348V38.4688L27.8949 44.5858L17.2996 38.4688V26.2348Z" stroke="#5D25D4" stroke-width="2.49" stroke-linecap="round" stroke-linejoin="round"/>
<path d="M17.2996 26.2348L27.8948 32.8886V44.5787L17.2996 38.4688V26.2348Z" stroke="#5D25D4" stroke-miterlimit="10"/>
<path d="M38.4829 26.2348L27.8948 32.8886V44.5787L38.4829 38.4688V26.2348Z" fill="#5D25D4"/>
<path d="M17.2996 26.2348L27.8948 20.1179L38.483 26.2348L27.8948 32.8887L17.2996 26.2348Z" stroke="#5D25D4" stroke-width="2.49" stroke-linecap="round" stroke-linejoin="round"/>
<path d="M27.8948 61.7925V53.2668L45.9349 42.7705V21.9332L53.7825 17.123V46.8461L27.8948 61.7925Z" fill="#5D25D4"/>
</svg>
