<svg xmlns="http://www.w3.org/2000/svg" fill="none" viewBox="0 0 276 270">
  <path fill="#5353D3" fill-rule="evenodd" d="M115.899 40c0-5.523-4.477-10-10-10H82.2c-5.523 0-10 4.477-10 10v23.698c0 5.523-4.477 10-10 10H40c-5.523 0-10 4.478-10 10v146.055c0 5.522 4.477 10 10 10h23.699c5.522 0 10-4.478 10-10V83.699c0-5.523 4.477-10 10-10h22.2c5.523 0 10-4.478 10-10zm87.397 0c0-5.523-4.478-10-10-10h-23.699c-5.523 0-10 4.477-10 10v23.699c0 5.522 4.477 10 10 10h22.2c5.523 0 10 4.477 10 10v146.054c0 5.522 4.478 10 10 10h23.699c5.523 0 10-4.478 10-10V83.698c0-5.522-4.477-10-10-10h-22.2c-5.523 0-10-4.477-10-10zm-43.699 83.651c0-5.522-4.477-10-10-10h-23.698c-5.523 0-10 4.478-10 10v64.9c0 5.523 4.477 10 10 10h23.698c5.523 0 10-4.477 10-10z" clip-rule="evenodd"/>
</svg>
