<svg width="111" height="111" viewBox="0 0 111 111" fill="none" xmlns="http://www.w3.org/2000/svg">
<path d="M0 18.36H18.36V110.16H0V18.36ZM18.36 18.36C18.36 15.84 18.84 13.46 19.79 11.24C20.75 9.02 22.07 7.07 23.75 5.39C25.43 3.71 27.38 2.39 29.6 1.43C31.82 0.48 34.2 0 36.72 0H73.44C75.97 0 78.34 0.48 80.56 1.43C82.78 2.39 84.73 3.71 86.41 5.39C88.09 7.07 89.41 9.02 90.37 11.24C91.33 13.46 91.81 15.83 91.81 18.36H18.36ZM91.8 45.9V64.26H18.36V45.9H91.8ZM91.8 91.8C91.8 94.32 91.32 96.7 90.36 98.91C89.4 101.13 88.08 103.08 86.4 104.76C84.72 106.44 82.77 107.76 80.55 108.72C78.33 109.68 75.96 110.15 73.44 110.15H18.36V91.79H91.8V91.8ZM91.8 45.9V18.36H96.39C98.3 18.36 100.08 18.72 101.73 19.45C103.37 20.18 104.83 21.17 106.09 22.43C107.35 23.69 108.35 25.15 109.07 26.79C109.8 28.44 110.16 30.21 110.16 32.13C110.16 34.05 109.8 35.82 109.07 37.47C108.34 39.12 107.35 40.57 106.09 41.83C104.83 43.09 103.37 44.09 101.73 44.81C100.08 45.54 98.31 45.9 96.39 45.9H91.8ZM91.8 64.26H96.39C98.3 64.26 100.08 64.62 101.73 65.35C103.37 66.08 104.83 67.07 106.09 68.33C107.35 69.59 108.35 71.05 109.07 72.69C109.8 74.34 110.16 76.11 110.16 78.03C110.16 79.95 109.8 81.72 109.07 83.37C108.34 85.02 107.35 86.47 106.09 87.73C104.83 88.99 103.37 89.99 101.73 90.71C100.08 91.44 98.31 91.8 96.39 91.8H91.8V64.26Z" fill="#9A71F2"/>
</svg>
