<svg xmlns="http://www.w3.org/2000/svg" fill="none" viewBox="0 0 80 80">
  <path fill="currentColor" d="M61.01 46.912c-.22 1.124-.566 2.132-1.05 3.025-.598 1.113-1.449 2.132-2.573 3.067-1.071.883-2.184 1.523-3.319 1.912s-2.573.578-4.306.578q-3.466 0-6.238-1.418-2.773-1.419-4.097-4.192a10.75 10.75 0 0 1-4.043 4.044c-1.733.998-3.886 1.503-6.47 1.503-1.69 0-3.214-.263-4.569-.778a9.8 9.8 0 0 1-3.465-2.227 8.6 8.6 0 0 1-1.818-2.689c-.44-1.019-.672-2.184-.672-3.498 0-1.313.252-2.5.756-3.581a8 8 0 0 1 2.059-2.742 9.5 9.5 0 0 1 3.004-1.765c1.134-.42 2.321-.64 3.56-.64 1.576-.043 3.14-.064 4.685-.085 1.543-.02 3.108-.031 4.684-.031v-3.12c0-1.964-.567-3.403-1.712-4.306-1.145-.904-2.626-1.356-4.474-1.356s-3.382.41-4.6 1.24c-1.208.83-1.87 2.164-1.996 4.023l-4.726-.85c.147-1.303.504-2.438 1.06-3.425a8.9 8.9 0 0 1 2.595-2.92 11 11 0 0 1 3.613-1.65 16.5 16.5 0 0 1 4.106-.514c.85 0 1.712.084 2.605.262.893.179 1.754.431 2.605.778.84.346 1.628.798 2.342 1.355a8.8 8.8 0 0 1 1.817 1.933 9.9 9.9 0 0 1 3.634-3.12c1.46-.736 3.287-1.103 5.493-1.103 2.51 0 4.516.451 6.039 1.355q2.284 1.355 3.844 3.781a12.4 12.4 0 0 1 1.796 4.423c.304 1.596.462 3.477.462 5.64v1.503l-19.766.063v.23c0 1.24.136 2.438.399 3.614.273 1.176.714 2.216 1.334 3.12a7 7 0 0 0 2.426 2.195c1.008.557 2.237.84 3.707.84 1.418 0 2.773-.42 4.044-1.27s2.121-2.196 2.542-4.045zm-32.117-5.757c-1.502 0-2.804.431-3.896 1.303-1.103.872-1.65 2.111-1.65 3.729s.526 2.857 1.586 3.729 2.364 1.303 3.897 1.303c1.113 0 2.216-.169 3.287-.494a6.4 6.4 0 0 0 2.773-1.65c1.114-1.113 1.796-2.258 2.017-3.413a19.3 19.3 0 0 0 .346-3.76v-.81zm27.749-3.645c-.042-1.344-.2-2.573-.494-3.666-.284-1.102-.756-2.048-1.418-2.857a6.4 6.4 0 0 0-2.08-1.701c-.85-.442-1.922-.662-3.234-.662-1.114 0-2.08.189-2.889.578a7.1 7.1 0 0 0-2.142 1.565 8.2 8.2 0 0 0-1.817 3.004 11.4 11.4 0 0 0-.61 3.76h14.684z"/>
  <path fill="currentColor" d="M39.995 80C17.939 80 0 62.059 0 40S17.939 0 39.995 0 80 17.941 80 40 62.05 80 39.995 80m0-75.578C20.385 4.422 4.422 20.378 4.422 40s15.953 35.578 35.573 35.578c19.619 0 35.573-15.956 35.573-35.578S59.614 4.422 39.995 4.422"/>
</svg>
