<svg xmlns="http://www.w3.org/2000/svg" version="1.0" viewBox="0 0 64 64">
  <path d="M30 14.6c0 .3.5 1.4 1 2.5.9 1.6.7 1.9-.9 1.9-1.5 0-2.7 2-5.4 8.7-2.7 6.8-4 8.9-5.6 9.1-1.2.2-2.1 1-2.1 1.8 0 1.1 2.4 1.4 13.1 1.4 11.4 0 13 .2 11.9 1.5-1.7 2-.3 5.5 2.2 5.5 2.1 0 2.1-.9.3-5.3-.5-1.2-.2-1.7.9-1.7.9 0 1.6-.7 1.6-1.5 0-.9-.9-1.5-2.2-1.5-2 0-2.9-1.5-6.7-11.5-3.4-9-4.7-11.5-6.2-11.5-1.1 0-1.9.3-1.9.6m5.5 14.2c1.5 4 2.5 7.5 2.2 7.8-.2.3-3.2.4-6.5.2l-5.9-.3 3-8.3c1.6-4.6 3.3-7.9 3.7-7.5s2 4.1 3.5 8.1"/>
  <path d="M18.3 44.1c-1.1 2.8-1 3 1 2.7 1.6-.2 2.3-1.1 2.5-3.1.5-3.8-2-3.5-3.5.4"/>
</svg>
