<svg xmlns="http://www.w3.org/2000/svg" version="1.0" viewBox="0 0 200 200">
  <path fill="#F58B00" d="M50.3 21.7c-1 .3-1.3 6.1-1.3 23.9V69h23.4c20.4 0 23.5-.2 24-1.6 1.2-3.1.7-43.9-.6-45.2-.9-.9-7.2-1.2-22.7-1.1-11.9 0-22.2.3-22.8.6M49 99.4c0 20.4.2 23.5 1.6 24 3.1 1.2 43.9.7 45.2-.6s1.8-42.1.6-45.2c-.5-1.4-3.6-1.6-24-1.6H49zm54.6-21.8c-1.2 3.1-.7 43.9.6 45.2s42.1 1.8 45.2.6c1.4-.5 1.6-3.6 1.6-24V76h-23.4c-20.4 0-23.5.2-24 1.6m-53.3 53.1c-1 .3-1.3 6.1-1.3 23.9V178h23.4c20.4 0 23.5-.2 24-1.6 1.2-3.1.7-43.9-.6-45.2-.9-.9-7.2-1.2-22.7-1.1-11.9 0-22.2.3-22.8.6m53.9.5c-1.3 1.3-1.8 42.1-.6 45.2.5 1.4 3.6 1.6 24 1.6H151v-23.4c0-20.4-.2-23.5-1.6-24-3.1-1.2-43.9-.7-45.2.6"/>
</svg>
