<svg xmlns="http://www.w3.org/2000/svg" fill="none" viewBox="0 0 980 1080">
  <path fill="#AEDB01" d="M492.9 720H0V0h492.9c169.2 0 306.3 137.1 306.3 306.2v107.5c0 169.2-137.1 306.3-306.3 306.3"/>
  <path fill="#B0B1AC" d="M619.9 1080H0V720c0-198.8 161.2-360 360.1-360h259.8C818.8 360 980 521.2 980 720s-161.2 360-360.1 360"/>
  <path fill="#5D6D3C" d="M799.2 407.8v6C799.2 583 662.1 720 492.8 720H0c0-99.4 40.4-189.4 105.4-254.6C170.6 400.2 260.6 360 360.2 360h259.7c65.3.1 126.5 17.5 179.3 47.8"/>
</svg>
