<svg xmlns="http://www.w3.org/2000/svg" fill="none" viewBox="0 0 570 609">
  <path fill="#111" d="M304.5 609C136.602 609 0 472.405 0 304.5S136.595 0 304.5 0c105.501 0 202.562 54.22 258.074 142.813 6.253 9.975 3.731 23.091-5.765 30.052l-63.988 46.898c-10.628 7.794-25.654 4.793-32.476-6.489-38.089-62.938-95.699-89.127-155.845-89.127-99.444 0-180.346 80.902-180.346 180.346S205.056 484.839 304.5 484.839c60.284 0 125.869-39.242 157.137-98.762 6.523-12.421 22.633-15.985 33.706-7.378l65.946 51.281c8.941 6.954 11.289 19.459 5.53 29.212a305.4 305.4 0 0 1-100.576 103.327c-48.42 30.406-104.348 46.474-161.743 46.474z"/>
  <path fill="#111" d="m307.904 432.516-46.995 46.995a179.2 179.2 0 0 1-40.556-15.533l73.525-73.525a19.83 19.83 0 0 1 14.019-5.808 19.83 19.83 0 0 1 14.019 5.808l69.093 69.093c-12.338 7.35-25.342 13.248-38.597 17.492l-44.515-44.515zm-56.297-28.044c2.591-9.295 7.127-21.522 15.373-34.366 13.616-21.209 30.58-33.546 40.924-39.882 9.837 6.662 23.925 17.937 36.61 35.471a147 147 0 0 1 20.048 38.777c7.544-16.478 24.835-66.586-12.06-91.733-51.441-35.068-49.364-55.019-49.364-55.019s-.021 3.696-6.62 16.485c-9.823 19.048-20.042 28.412-29.719 38.041 0 0-11.073 11.907-17.172 20.528-7.774 10.983-13.095 31.191 1.945 71.649"/>
  <path fill="#FF6D01" d="M266.806 312.246s-11.073 11.907-17.172 20.528c-7.774 10.982-13.095 31.191 1.945 71.649-85.724-75.033 2.549-151.621.785-145.793-6.565 21.674 14.442 53.616 14.442 53.616m20.917-23.585a121 121 0 0 0 8.774-14.498c6.593-12.789 6.62-16.485 6.62-16.485s-2.077 19.952 49.364 55.019c36.895 25.148 19.611 75.262 12.06 91.733 0 0 43.536-27.759 37.367-74.664-7.426-56.416-37.944-51.324-60.625-93.109-21.153-38.971 14.977-70.197 14.977-70.197s-48.37-2.598-70.517 48.245c-23.334 53.588 1.987 73.949 1.987 73.949z"/>
</svg>
