<svg xmlns="http://www.w3.org/2000/svg" fill="none" class="flynet_svg__w-4 flynet_svg__md:w-5 flynet_svg__h-4 flynet_svg__md:h-5 flynet_svg__mb-1" viewBox="0 0 78 78">
  <path fill="currentColor" d="M51.195 51.896V12.188a23.6 23.6 0 0 0-4.885.5 24.26 24.26 0 0 0-12.481 6.9 25 25 0 0 0-6.588 12.81 25.24 25.24 0 0 0 1.541 14.373 24.7 24.7 0 0 0 9.147 11.062 24.3 24.3 0 0 1-9.02-5.937H4.875v4.964h15.114a19.1 19.1 0 0 1 10.716 3.307L35.6 63.48a19.07 19.07 0 0 0 10.71 3.306h.486a19.06 19.06 0 0 0 10.716-3.306l4.896-3.314a19.05 19.05 0 0 1 10.716-3.307v-4.964z"/>
</svg>
