<svg xmlns="http://www.w3.org/2000/svg" xml:space="preserve" id="fraxtal_svg__Layer_1" x="0" y="0" version="1.1" viewBox="0 0 283.46 283.46">
  <style>
    .fraxtal_svg__st0{fill:#fff}
  </style>
  <path d="M141.73 283.46c-19.13 0-37.69-3.75-55.17-11.14-16.88-7.14-32.03-17.36-45.05-30.37-13.01-13.01-23.23-28.17-30.37-45.05C3.75 179.42 0 160.86 0 141.73s3.75-37.69 11.14-55.17c7.14-16.88 17.36-32.03 30.37-45.05C54.53 28.5 69.68 18.28 86.56 11.14 104.04 3.75 122.6 0 141.73 0s37.69 3.75 55.17 11.14c16.88 7.14 32.03 17.36 45.05 30.37 13.01 13.01 23.23 28.17 30.37 45.05 7.39 17.48 11.14 36.04 11.14 55.17s-3.75 37.69-11.14 55.17c-7.14 16.88-17.36 32.03-30.37 45.05-13.01 13.01-28.17 23.23-45.05 30.37-17.48 7.4-36.04 11.14-55.17 11.14" class="fraxtal_svg__st0"/>
  <circle cx="141.73" cy="141.73" r="134.22"/>
  <path d="M234.89 97.01H209.2a36.4 36.4 0 0 0-9.03-14.94c-4.25-4.25-9.37-7.33-14.94-9.05V47.35h-18.25v24.87a34.4 34.4 0 0 0-17.08 9.34l-12.16 12.16c-3.56 3.56-3.56 9.34 0 12.91 3.56 3.56 9.34 3.56 12.91 0l12.16-12.16c3.16-3.16 7.43-4.86 12-4.81 4.67.06 9.09 1.95 12.46 5.32 6.88 6.88 7.11 17.86.51 24.46l-25.57 25.57c-6.6 6.6-17.58 6.37-24.46-.51-3.56-3.56-9.34-3.56-12.91 0-3.56 3.56-3.56 9.34 0 12.91 7.09 7.09 16.38 10.65 25.61 10.65 8.98 0 17.9-3.37 24.67-10.14l25.57-25.57c4.85-4.85 7.94-10.8 9.32-17.08h24.9V97.01z" class="fraxtal_svg__st0"/>
  <path d="M131.38 175.84 119.22 188c-6.6 6.6-17.57 6.37-24.46-.51-6.88-6.88-7.11-17.86-.51-24.46l25.57-25.57c6.6-6.6 17.58-6.37 24.46.51 3.56 3.56 9.34 3.56 12.91 0 3.56-3.56 3.56-9.34 0-12.91-14-14-36.55-14.23-50.27-.51l-25.57 25.57c-4.85 4.85-7.94 10.8-9.32 17.08h-24.9v18.25h25.69a36.4 36.4 0 0 0 9.03 14.94c4.33 4.33 9.48 7.34 14.94 9.03v25.7h18.25v-24.9c6.29-1.37 12.24-4.47 17.08-9.32l12.16-12.16c3.56-3.56 3.56-9.34 0-12.91a9.117 9.117 0 0 0-12.9.01" class="fraxtal_svg__st0"/>
</svg>
