<svg xmlns="http://www.w3.org/2000/svg" fill="none" viewBox="0 0 1096 1096">
  <rect width="1096" height="1096" fill="url(#gravity_svg__a)" rx="548"/>
  <path fill="#fff" d="M932.341 327.013c-5.558-9.605-17.945-12.768-27.429-7.002L395.528 629.385c-12.981-24.25-20.337-51.96-20.337-81.384 0-95.535 77.538-172.981 173.187-172.981 41.07 0 78.775 14.316 108.464 38.171l-108.365 74.3 281.618-162.406c6.07-3.492 8.148-11.252 4.635-17.298-3.695-6.392-12.057-8.286-18.16-4.102l-68.961 47.282c-50.818-51.269-121.297-83.031-199.231-83.031-154.862 0-280.398 125.387-280.398 280.065 0 49.803 13.03 96.557 35.841 137.084L161 771.823l146.632-80.181c48.97 81.714 138.45 136.425 240.746 136.425 154.862 0 280.398-125.387 280.398-280.066v-33.443c0-26.2 10.645-59.721 48.36-79.901 3.233-1.73 4.404-5.782 2.573-8.962-1.798-3.097-5.756-4.168-8.857-2.372L536.469 616.156c37.326-15.848 65.859-25.485 103.682-33.075 78.789-15.808 80.794 21.708 50.367 64.027-20.374 28.335-66.4 73.842-142.107 73.842-61.737 0-115.903-32.257-146.582-80.823l522.876-285.882c9.748-5.321 13.195-17.627 7.636-27.232"/>
  <defs>
    <linearGradient id="gravity_svg__a" x1="109.451" x2="807.019" y1="1096" y2="0" gradientUnits="userSpaceOnUse">
      <stop offset=".023" stop-color="#E57536"/>
      <stop offset=".605"/>
    </linearGradient>
  </defs>
</svg>
