<svg xmlns="http://www.w3.org/2000/svg" version="1.0" viewBox="0 0 608 548">
  <path fill="currentColor" d="M277.8 33.5c-24.9 3-52.3 11.2-75.3 22.5C86 113.1 37.9 254 95 370.5 152.2 487 293 535.2 409.5 478S574.1 280.2 517 163.5c-35-71.6-104.4-120.7-183.7-130-15.3-1.8-40.7-1.8-55.5 0M210.1 132c19.4 4.4 35.4 8 35.6 8s.2 57.5.1 127.7l-.3 127.8-35 7.2c-19.2 4-36 7.2-37.2 7.3H171V267c0-139.4 0-143 1.9-143 1 0 17.8 3.6 37.2 8M441 267v143h-2.2c-1.3-.1-18-3.3-37.3-7.3l-35-7.2-.3-127.7-.2-127.6 11.2-2.6c44.7-10.3 58.6-13.4 61.1-13.5l2.7-.1zm-97.5-1v37.5l-37.7.3-37.8.2v-37.3c0-20.6.3-37.7.7-38 .4-.4 17.3-.6 37.7-.5l37.1.3z"/>
</svg>
