<svg xmlns="http://www.w3.org/2000/svg" version="1.0" viewBox="0 0 64 64">
  <path fill="#D22B2B" d="M22.3 1.9C11.8 5.5 5.4 11.8 2 21.9c-2.6 7.7-2.5 12.4.2 20.6 4.3 13.4 18.5 22.6 32.3 21.2 12.7-1.3 23.6-9.8 27.4-21.3 2.7-8.1 2.7-12.7-.1-20.9C56.5 5.3 38.4-3.7 22.3 1.9m15.3 7.4c2.2 1.9 2.8 3.4 3.2 8l.4 5.7h4.4c5.9 0 9.4 4 8 9.3-.8 3.2-16.6 22-19.8 23.5-5.6 2.7-11.4-3.2-10.6-10.9l.4-3.9h-4.8c-3.8 0-5-.5-6.7-2.6-3.4-4.4-2.7-7.2 4-15.4C30.2 5.7 32.1 4.6 37.6 9.3"/>
  <path fill="#fff" d="M24 23.1c-4.6 5.6-7.8 10.5-7.4 10.9.5.5 3.6 1 6.9 1.2l6 .3.3 7.2c.2 5.5.6 7.3 1.7 7.3.8 0 1.9-.9 2.5-1.9.5-1.1 1.6-2.5 2.3-3.3C39.9 41 48 30.7 48 29.9c0-.5-2.4-.9-5.4-.9-8.5 0-8.6-.1-8.6-8.6 0-4.1-.4-7.4-.9-7.4-.4 0-4.5 4.5-9.1 10.1"/>
</svg>
