<svg xmlns="http://www.w3.org/2000/svg" version="1.0" viewBox="0 0 400 400">
  <g fill="#6D6D6D">
    <path d="M182.6 76c-24.1 6.5-44 25.8-50.6 49-5.9 20.8-2.5 42.4 9.4 59.8 6.9 10.1 7.7 10.6 12 6.2l3.5-3.5-4.6-6c-14.4-18.7-16.8-41.8-6.6-62 7.3-14.4 20.8-26.3 35.6-31.5 10-3.5 18.5-4.3 28.2-2.6 24.1 4.1 43.6 22 49 44.8 1.9 8.3 1.9 22.5-.1 30.2-3.7 14.3-6.2 17.5-40.3 51.9-31.4 31.7-39.5 38.8-48.4 42.6-2.6 1.1-4.7 2.6-4.7 3.3 0 3 2.2 8.8 3.3 8.8 2-.1 13.4-6.3 19.5-10.7 3.2-2.4 20.4-19 38.2-37 33.8-34.1 36.9-37.9 41.6-50.7 13.7-37.8-10.1-81.3-50.8-92.6-9.5-2.6-24.5-2.6-34.2 0"/>
    <path d="M188 93.3c-9.8 2.9-16.4 6.9-24.6 15.1-11.9 11.9-16.3 22.1-16.4 37.7 0 11.8 4.1 23 11.5 31.7l3.8 4.3 3.3-3.2c1.9-1.8 3.4-3.7 3.4-4.1s-1.5-2.8-3.4-5.3c-6.5-8.4-9.5-20.6-7.6-30.5 4.3-22.6 28.1-40.2 48.8-36.1 13.6 2.7 25.9 11.9 31.3 23.4 5.9 12.7 5.9 24.8-.1 37.6-2.8 5.9-6.5 10-35.5 39.1-23.7 23.8-32.9 33.7-34.4 37-7.7 16.9 4.9 7.8 45-32.6 25.6-25.8 31.2-31.9 33.8-37.1 4.2-8.5 6.1-16.2 6.1-25.3 0-21-11-38.5-30.4-48.1-8.3-4.1-9.1-4.3-19.4-4.6-6.8-.2-12.3.2-15.2 1"/>
    <path d="M188.3 112c-4.4 1.5-7.8 3.5-11.7 7.1-3.1 2.8-5.6 5.4-5.6 5.8s4.2 2.8 9.4 5.4c5.1 2.6 11.7 6.8 14.5 9.3l5.2 4.7 3.2-3c4.6-4.3 11.8-9 19.2-12.5 3.6-1.6 6.5-3.4 6.5-3.9 0-2-8.6-9.3-13.8-11.7-7.7-3.5-18.3-4-26.9-1.2M166 135.8c-1.6 6.1-1.4 6.5 6.3 10.5 4.1 2 9.2 5.3 11.4 7.2l4 3.4 3.7-3.8 3.7-3.8-4.8-4.2c-4.5-3.8-14.6-9.7-20.6-12-2.5-1-2.7-.8-3.7 2.7m-54.1 1.4c-16.5 8.2-29.5 24.8-35 44.4-2.9 10.3-3.2 26.9-.6 36.4 5.2 19.2 18.1 35.2 35.7 44.4 10.7 5.5 10.6 5.6 10.1-1.2l-.3-5.7-6.1-2.9c-12.7-6.1-23.5-19.9-28.3-36.2-2.1-7.2-2.4-23.5-.5-31.4 3.7-15.5 15-30.5 28-37.4l6.9-3.6.4-5.5c.2-3.6-.1-5.5-.8-5.5s-4.9 1.9-9.5 4.2m112.6-1.3c-3.3 1.6-8.2 4.5-11 6.5-6.3 4.5-67.7 65.7-71.5 71.1-4.4 6.5-7.8 13.8-10.2 22.2-2.9 10.1-3.1 27.5-.4 37.3 8.6 31.9 39.3 54.5 71.6 52.6 10.9-.6 18.7-2.8 28.6-8 35.9-18.8 50.3-61.9 31.8-95.3-2.7-4.8-7.4-11.6-12.1-17.2-.2-.3-2.1 1.3-4.3 3.4l-3.9 3.8 4.1 4.6c4.6 5.1 9.1 14.2 11.3 22.8 1.8 6.8 2 21.1.4 28.5-4.8 22.5-24.9 42-47.4 45.9-18.8 3.2-40.5-4-54.6-18.3-18.9-19.1-22.7-44.9-10.1-69.3 3.1-6.2 7.6-11.1 38.1-41.6 32.1-32.1 35.2-34.9 42.3-38.5 8.3-4.1 9-5.2 6.8-10.8-1.2-3.3-2.1-3.2-9.5.3m53.5 2.6v5.6l4.3 1.8c20.4 8.8 33.9 33 32.3 57.9-1.3 21.3-12.6 39.6-30.4 49l-6.2 3.3v5.5c0 5.3.1 5.5 2.3 4.9 5.2-1.6 16.3-8.4 21.7-13.3 10.9-9.8 18.3-22.5 22-37.7 1.9-7.6 2.2-10.7 1.7-20-1-19.5-6.2-31.1-20.1-45-8.5-8.5-17.7-14.6-25.3-17-2.2-.6-2.3-.4-2.3 5m-112 15.6c1.4 4.9 4.9 11.5 7.1 13.5 1.9 1.7 2.1 1.7 5.7-1.9 3.6-3.7 3.6-3.7 1.7-5.6-2.1-2.1-13.4-9.1-14.6-9.1-.4 0-.4 1.4.1 3.1"/>
    <path d="M228 154.1c-7.2 4.1-66.6 62.8-72.2 71.4-5.9 9-8.3 17.9-8.2 30.5 0 8.9.5 11.6 2.7 17.3 3.4 8.7 7.1 14 14.9 21.2 17.7 16.4 43.6 17.6 65.1 2.9 12.6-8.6 20.7-21.2 22.8-35.4 1-6.3.9-8.8-.5-15.9-2-9.6-6.1-18.9-11-24.6l-3.5-4-3.7 3.6-3.7 3.7 3.6 4.7c16.2 21.2 8.2 50.6-17.2 63.3-7.1 3.5-8 3.7-17.5 3.7-9.2 0-10.7-.3-16.6-3.1-9.5-4.5-16.2-11.1-20.7-20.2-3.7-7.4-3.8-7.9-3.8-18.7 0-10.4.2-11.4 3.3-18 3-6.3 6.3-9.9 36.1-40 30.3-30.4 33-33.4 35-38.8 1.1-3.2 2.1-6 2.1-6.2 0-1-1.7-.4-7 2.6m-111.5 1c-13.2 8.2-21.2 20.9-23.5 37.1-2.4 16.4 3.6 34.7 14.7 45.6 4.9 4.8 12.9 9.9 13.9 8.9 1-.9 2.2-10.2 1.4-10.5-.5-.2-2.5-1.6-4.6-3.2-20.4-16.3-20.4-50.1 0-66.2 5.3-4.2 5.6-5.3 3.8-12.3l-.7-2.6zm161 2.5c-.4 3.1-.5 5.7-.3 5.8 13.1 8.8 20 21.3 20 36.1 0 13.5-6.3 26.9-16 33.8l-4.4 3.2.7 5c.3 2.7.8 5.2 1.1 5.4 1.1 1.1 8.3-3.8 14-9.4 19.9-19.7 20.4-54 .9-74.4-3-3.2-7.7-7-10.4-8.4l-4.9-2.7z"/>
    <path d="M119.1 176.6c-12.4 13.5-12.1 33.6.8 47.7 5 5.5 5.6 5.3 8.9-1.8 3.5-7.4 8.2-14.6 12.4-19.1l3-3.2-5.2-6.3c-2.8-3.5-6.9-10.1-9.2-14.7-2.2-4.5-4.3-8.2-4.8-8.2-.4 0-3.1 2.5-5.9 5.6m151.6 2c-3.8 7.5-9.9 16.7-13 19.2-1.4 1.2-1 2.1 3.9 8.5 3 4 7.2 10.7 9.2 14.9 2 4.3 4 7.8 4.3 7.8s2.9-2.4 5.6-5.3c7-7.3 9.6-14.6 9.1-25.2-.2-6.7-.9-9.2-3.6-14.7-2.8-5.7-9-12.8-11.2-12.8-.3 0-2.3 3.4-4.3 7.6m-49.6 55.8-3.2 3.3 3.6 3.2c4.2 3.6 13.5 8.6 13.5 7.1 0-3.7-7.3-17-9.4-17-.7 0-2.7 1.5-4.5 3.4m-11.9 11.9c-1.8 1.8-3.2 3.7-3.2 4.3 0 3.4 25 17.8 27.1 15.7.6-.6 1.3-2.9 1.6-5.1l.5-4.1-6.9-3.4c-3.8-2-8.8-5.1-11.2-7.1s-4.4-3.6-4.5-3.6-1.6 1.5-3.4 3.3m-13.7 13.3c-4.9 4.4-17.8 12.1-21.6 12.9-3.7.8-3.6 1.7.5 6.3 9.6 10.5 26.7 13.8 41 7.7 4.1-1.7 13.6-10.1 13.6-11.9-.1-.6-3.4-2.6-7.4-4.5-4.1-1.8-10.6-5.7-14.6-8.7-3.9-3-7.2-5.4-7.3-5.4-.1.1-2 1.7-4.2 3.6"/>
  </g>
</svg>
