<svg xmlns="http://www.w3.org/2000/svg" version="1.0" viewBox="0 0 400 400">
  <path fill="currentColor" d="M181.5 5c-25.8 2.3-55.3 11.7-78.5 25-56.7 32.6-92.6 89.7-98.2 156.2-3.2 37.2 6.9 80.1 26.6 113.2 12.1 20.3 32.7 43.4 51.4 57.3 62.2 46.6 146.8 51.8 214.2 13.2 33.9-19.4 62.8-50.4 79.3-85 12.2-25.5 19.7-58 19.7-85.5 0-25.7-7.5-58.7-18.9-82.9C359.2 78.5 325.7 44 288 25 256.3 9 217.7 1.7 181.5 5M180 90.6c16.3 5.1 28.3 12.4 40.5 24.8 16 16.1 25.6 36.9 27.2 58.6l.6 8.5L238 204c-5.6 11.8-10.6 21.9-11 22.4-.6.6-1.3-.1-1.9-1.5-.5-1.3-5.3-11.4-10.6-22.4-7.7-15.8-10.1-21.9-11.6-28.9-2.3-11.1-5.6-18-12.2-25.3-21.3-23.3-56.1-23.4-77.1-.2-6 6.7-11.2 17.3-12.6 25.9-.6 3.9-1 28.9-1 62.2V292H55.9l.4-62.8c.3-60.1.4-63 2.4-70.2 4.2-15.1 9.6-25.6 19.1-37.2 12.3-15.3 28.5-26 48.2-31.8 14.9-4.4 39-4.2 54 .6m95.6-.1c34.9 10.7 60.7 39.6 66.9 75.2 1.2 7 1.5 19.6 1.5 67.4V292h-44v-55.8c0-30.6-.5-58.6-1-62.1-1.8-12.9-11.6-27.8-23-35.1-7.5-4.8-17.8-8-26.2-8.2l-7.3-.2-3.5-5.4c-4.6-7.3-17.4-20.7-24.3-25.7-3.1-2.2-5.6-4.3-5.7-4.7 0-.4 4.4-2.1 9.8-3.9 16.7-5.4 39.9-5.6 56.8-.4m-103.8 53c12.5 6.3 20.6 17.5 23.2 32 1.4 8.1.9 7 15.2 36.4 5.9 12.3 10.8 22.5 10.8 22.6 0 .2 4.6 9.7 10.1 21.1 10.2 21.1 16.9 35.3 16.9 36 0 .3-9.9.3-22 .2l-22-.3-17.1-35.5c-39.7-82.5-35.2-71.9-34.5-82 .9-13.7 7.3-34 10.7-34 .9 0 4.8 1.6 8.7 3.5m13 126.6 10.3 21.4-21.2.3c-11.7.1-21.4.1-21.6-.2-.2-.2 3.7-9.1 8.8-19.7 5.1-10.7 9.7-20.4 10.3-21.6.6-1.3 1.5-2.1 2.1-2 .5.2 5.6 10 11.3 21.8"/>
</svg>
