<svg xmlns="http://www.w3.org/2000/svg" version="1.0" viewBox="0 0 96 96">
  <path fill="currentColor" d="M36.8 1.6c-8.8 2.1-15.6 6-22.5 13-18.9 18.8-18.8 48 .3 67.2 7.4 7.4 15.6 11.6 26.2 13.4 31 5.3 59.7-23.4 54.4-54.5C90.4 12.9 63.7-5 36.8 1.6m-6.6 40.1 6.8 6.7V61h-7v-4.8c0-4.3-.4-5.2-4.5-9.2l-4.4-4.3-.3 8.9-.3 8.9h-7L13.2 49c-.3-12.9.2-14 6.7-14 3 0 4.5 1 10.3 6.7m6.8-3.2c0 2.7-.4 3.5-1.8 3.5-2.5 0-4.2-1.9-4.2-4.7 0-1.9.5-2.3 3-2.3 2.8 0 3 .3 3 3.5m24.4-2.9c1.3.5 1.6 2.6 1.6 13V61h-7V42.9l-4.5 3.8c-4.3 3.5-4.5 4-4.5 9V61h-7V47.3l6.4-6.1c5.4-5.2 7-6.2 9.9-6.2 2 0 4.2.3 5.1.6m9.8 1.1c1.5 1.3 1.8 3.1 1.8 10V55h5.1c4.9 0 5 .1 4.7 2.7-.3 2.7-.6 2.8-6.2 3.1-4.9.3-6.2 0-8.2-1.9-2.2-2.1-2.4-3-2.4-13.1 0-9.4.2-10.8 1.7-10.8.9 0 2.5.7 3.5 1.7"/>
</svg>
