<svg xmlns="http://www.w3.org/2000/svg" version="1.0" viewBox="0 0 801 800">
  <path fill="currentColor" d="M1 400v400h800V0H1zm317.8-190.4c2 .8 5 2.7 6.5 4.2 1.5 1.4 40.9 60.2 87.4 130.5 69.4 104.9 85.3 128.4 88.6 130.5 2.9 1.9 5.6 2.7 10.2 3 8.2.5 12.8-1.1 17.9-6.2 6.1-6 8.1-14.8 5.4-22.7-.6-1.9-31.9-50-69.6-106.9s-69.1-105.1-69.9-107c-3.7-8.6.8-20 9.6-24.7l4.4-2.3h168.4l4.4 2.3c2.4 1.3 5.8 4.3 7.4 6.6l3 4.3.3 177.7.2 177.7-2.3 4.5c-1.3 2.4-4.3 5.7-6.6 7.4l-4.3 3-45.6.3c-50.6.3-50.9.3-56.9-6.1-1.6-1.7-41.2-60.9-87.8-131.5-51.8-78.3-86-129.3-87.9-130.6-11.4-8.5-27.3-4.8-33.8 7.8-2.5 4.8-2.9 14.6-.9 18.6.8 1.4 32.9 50.2 71.5 108.5l70.1 106v7.7c0 7-.2 7.9-3.1 11.5-1.6 2.1-5 4.8-7.4 6l-4.4 2.3H224.3l-4.4-2.3c-2.4-1.3-5.7-4.3-7.4-6.6l-3-4.3-.3-177.5-.2-177.6 2.1-4.4c2.2-4.6 6.5-8.4 11.4-10.1 1.9-.7 19.3-1.1 47.8-1.1 38.3-.1 45.3.1 48.5 1.5"/>
</svg>
