<svg xmlns="http://www.w3.org/2000/svg" fill="none" viewBox="0 0 96 96">
  <path fill="#F0B90B" d="M22.881 14.704 48.143 0l25.261 14.704-9.287 5.433-15.974-9.273-15.974 9.273zM73.404 33.25l-9.287-5.432-15.974 9.272-15.974-9.272-9.288 5.432v10.864l15.974 9.272V71.93l9.288 5.432 9.287-5.432V53.385l15.974-9.272zm0 29.409V51.793l-9.287 5.432V68.09zm6.594 3.84L64.024 75.77v10.864L89.286 71.93V42.52l-9.288 5.432zm-9.287-42.521 9.287 5.432v10.864l9.288-5.432V23.977l-9.288-5.433zM38.856 79.703v10.865L48.143 96l9.287-5.432V79.703l-9.287 5.433zM22.88 62.658l9.288 5.432V57.225l-9.288-5.432zm15.974-38.681 9.288 5.432 9.287-5.432-9.287-5.433zm-22.568 5.432 9.288-5.432-9.288-5.433L7 23.977V34.84l9.287 5.432zm0 18.544L7 42.521V71.93l25.261 14.704V75.77l-15.974-9.272z"/>
</svg>
