<svg xmlns="http://www.w3.org/2000/svg" fill="none" viewBox="0 0 1000 1000">
  <circle cx="500" cy="500" r="500" fill="#000"/>
  <path fill="#FF1A2D" fill-rule="evenodd" d="M351 700.766C289.709 655.203 250 582.239 250 500c0-138.071 111.929-250 250-250s250 111.929 250 250c0 92.535-50.275 173.328-125 216.554v-49.602l-224 131.81v108.53l-50 50zm50 39.982 224-131.81V363.023L401 495.087zM1000 500c0 276.142-223.858 500-500 500S0 776.142 0 500 223.858 0 500 0s500 223.858 500 500" clip-rule="evenodd"/>
</svg>
