<svg xmlns="http://www.w3.org/2000/svg" viewBox="0 0 24 24">
  <g fill="none" fill-rule="evenodd">
    <path fill="#04040F" d="M0 0h24v24H0z"/>
    <path fill="#CC38FF" d="m16.2 8.888 1.607 2.461h-1.522l-1.537-2.356h-2.086V7.765h2.824c.554 0 1.003-.419 1.003-.936a.9.9 0 0 0-.294-.659 1.03 1.03 0 0 0-.71-.275h-2.823V4.667h2.824c.642 0 1.221.242 1.642.634a2.2 2.2 0 0 1 .314.364 2.02 2.02 0 0 1 .137 2.1c-.273.529-.77.941-1.378 1.123m-5.228-3.224a2.2 2.2 0 0 0-.314-.364c-.42-.392-1-.633-1.641-.633H6.193v1.228h2.825c.278 0 .528.105.709.274a.9.9 0 0 1 .294.66c0 .517-.449.935-1.003.935H6.193v3.585H7.43V8.992h1.588c.922 0 1.718-.501 2.092-1.228a2.03 2.03 0 0 0-.137-2.1m6.834 6.987h-1.513l-1.412 2.176-1.412-2.176h-1.513l2.169 3.341-2.169 3.341h1.513l1.412-2.176 1.412 2.176h1.513l-2.169-3.341zm-6.533 3.341c0 .923-.372 1.758-.974 2.362a3.3 3.3 0 0 1-2.35.979H6.193v-1.23H7.95c1.16 0 2.1-.945 2.1-2.111a2.11 2.11 0 0 0-2.1-2.112H6.193v-1.23H7.95a3.333 3.333 0 0 1 3.324 3.341"/>
  </g>
</svg>
