<svg xmlns="http://www.w3.org/2000/svg" fill="none" viewBox="0 0 180 180">
  <path fill="#CDFA50" d="M0 28.8C0 18.72 0 13.679 1.962 9.828a18 18 0 0 1 7.866-7.866C13.678 0 18.72 0 28.8 0h122.4c10.081 0 15.121 0 18.972 1.962a18 18 0 0 1 7.866 7.866C180 13.678 180 18.72 180 28.8v122.4c0 10.081 0 15.121-1.962 18.972a18 18 0 0 1-7.866 7.866C166.321 180 161.281 180 151.2 180H28.8c-10.08 0-15.121 0-18.972-1.962a18 18 0 0 1-7.866-7.866C0 166.321 0 161.281 0 151.2z"/>
  <path fill="#1A1A1A" d="M42 110h20v30H42zm80-50h20v30h-20zM62 90h60v20H62zM42 40h80v20H62v30l-20-.25z"/>
</svg>
