<svg xmlns="http://www.w3.org/2000/svg" version="1.0" viewBox="0 0 512 512">
  <path fill="#CDFE40" d="M219.2 35c-17.9 3.3-36 13.8-46.9 27.3-17.7 21.9-26.7 43.7-46.1 111.7-5 17.3-9.9 33.7-10.9 36.3l-1.8 4.8-9 3c-22 7.3-41.5 19.6-41.5 26.3 0 5.5 6 12.8 11.8 14.3 1.6.4 6.9-.5 13.8-2.3 6.2-1.5 11.6-2.5 12-2.1.8.8.6 1.6-16.6 59.2-18.5 61.8-31.7 99-45.9 129.4-3.8 8-7.2 16.1-7.6 18-1 4.8 1.9 10.8 6.4 13.1 7.7 3.9 21.4 3.4 30.1-1 9.6-4.9 17.7-18.7 31.5-53.5 12.5-31.4 18.6-51.3 48.9-158.9 3.6-12.9 4.5-15.1 6.7-15.9 1.5-.7 16.2-1.1 38.6-1.2 32.4-.1 36.4-.3 38.7-1.9 7.6-4.9 5.4-20.2-4-28.7-4.7-4.1-11.3-7.5-18.7-9.5-6.3-1.7-24.7-1.8-35.2-.3-4.4.7-8 .8-8.5.3-.8-.9 17.2-63.6 25.4-88.4 8.3-25.1 18-43.9 25.9-50.6 10.4-8.8 22.7-8.2 27.2 1.2 1.3 2.7 1.6 5.6 1.3 11.8-.5 11.9-5.1 21-16.4 32.1-9.5 9.4-9.9 10.7-6 19.1 5 10.8 14.6 16.3 26.3 15.1 19.6-2 36.5-25.9 38-53.7 1.7-33.2-18-53.9-52.9-55.5-5.1-.2-11.7 0-14.6.5m107.6 147.9c-16.6 5.3-29.4 20.5-31.9 37.7-2.3 16.7 3.2 50 13.8 83.1l3.6 11.3-3.9 5.6c-12.3 17.9-35.7 42.6-56.9 59.9-15.6 12.8-18.5 15.8-18.5 19 0 4 2.6 7.7 7.9 11.3 9.5 6.4 17.2 5.8 28.7-2.3 10.5-7.3 30.5-28.2 42.8-44.5 6-8 11.2-14.6 11.5-14.8.4-.1 3.8 6.4 7.6 14.5 12.6 26.7 24.5 41.8 38.1 48.4 6.3 3.1 7.6 3.4 15.9 3.3 24.1-.3 46.8-17.5 49.2-37.2.7-6-.8-9.2-4.3-9.2-1.4 0-5.8 1.4-9.7 3.2-8.1 3.6-17.4 4.7-23 2.9-7.7-2.6-16.1-12.7-22.2-26.9-1.9-4.3-5.9-15.9-9-25.9-6.6-21.4-6.9-18.9 5.3-33.5 8.9-10.6 35.2-38 46.2-48.2 18.4-16.9 37.7-30.8 52.7-37.8 9-4.2 10.8-6.2 9.4-10.1-3.5-9.1-24.3-14.5-39.2-10.1-23.2 6.8-57.5 37.8-80.1 72.3-3.7 5.8-6.8 10.9-6.8 11.3s-.8.8-1.9.8c-2.2 0-2.4-.8-4.7-21.5-1-9.1-1.7-23.9-1.8-37.6-.1-20.8-.3-22.9-2-24.8-2.4-2.7-8.8-2.7-16.8-.2"/>
</svg>
