<svg xmlns="http://www.w3.org/2000/svg" fill="none" viewBox="0 0 200 200">
  <rect width="199.297" height="199.297" x=".351" y=".351" fill="#55E794" rx="99.648"/>
  <rect width="199.297" height="199.297" x=".351" y=".351" stroke="#000" stroke-width=".703" rx="99.648"/>
  <g clip-path="url(#powerloom_svg__a)">
    <path fill="#0D0F0F" fill-rule="evenodd" d="M146.949 33.724c0 26.025-21.071 47.121-47.065 47.121-12.934 0-24.65-5.225-33.158-13.682 8.473 8.52 13.71 20.27 13.71 33.243 0 13.011-5.27 24.791-13.787 33.319l-33.278-33.319v-47.12c12.974 0 24.721 5.255 33.235 13.756l33.278-33.318zm-13.617 99.884c8.514 8.502 20.262 13.758 33.237 13.758v-47.12l-33.278-33.319c-8.518 8.528-13.786 20.308-13.786 33.319 0 12.916 5.19 24.618 13.597 33.13-8.499-8.392-20.17-13.572-33.047-13.572-25.994 0-47.065 21.096-47.065 47.121h47.065z" clip-rule="evenodd"/>
  </g>
  <defs>
    <clipPath id="powerloom_svg__a">
      <path fill="#fff" d="M33.368 33.726h133.2v133.201h-133.2z"/>
    </clipPath>
  </defs>
</svg>
