<svg xmlns="http://www.w3.org/2000/svg" version="1.0" viewBox="0 0 256 292">
  <g fill="currentColor">
    <path d="M105.5 32.5c-47 8.5-86.9 44.1-100 89-21.3 73.3 23 147 97.8 162.6 14.2 3 35.2 3 49.4 0 39.4-8.2 72.6-33.6 90.3-69 10.8-21.7 15.3-50.6 11.5-75.1-4.2-28-16-51.4-36-71.6-18.9-19-42.6-31.4-68.3-35.9-10.3-1.8-34.9-1.8-44.7 0m50.8 16.8c31.3 8.3 58.6 30.5 73.1 59.5 6.7 13.3 11.6 34.3 11.6 49.7 0 3.8-.7 11.4-1.5 16.8-7.2 47.6-43.3 85.1-90.8 94.2-10.2 1.9-31.2 1.9-41.4 0-47.5-9.1-83.6-46.6-90.8-94.2-1.9-12.4-1.9-21.2 0-33.6 7-46.8 42-83.5 89-93.7 13.3-2.9 37.1-2.3 50.8 1.3"/>
    <path d="M97 84c0 .6 8.8 1 24.8.9 15.9-.1 22.9-.4 19.7-.9-7.6-1.2-44.5-1.2-44.5 0m0 6c0 .6 11.7 1 33.1 1 21.7 0 32.8-.3 32.4-1-.4-.6-12.5-1-33.1-1-20.9 0-32.4.4-32.4 1m12.5 5.7c32.9.7 61.5.7 61.5 0 0-.4-16.8-.6-37.2-.5-20.5.1-31.4.4-24.3.5m50.8 6c3.2.2 8.1.2 11 0s.3-.3-5.8-.3c-6 0-8.4.1-5.2.3m2.7 5.3c0 .6 3.5 1 8.6 1 5.4 0 8.3-.4 7.9-1-.3-.6-4.2-1-8.6-1-4.6 0-7.9.4-7.9 1m3.5 6c.3.5 4 1 8.1 1 4.3 0 7.4-.4 7.4-1s-3.4-1-8.1-1c-5.1 0-7.8.4-7.4 1m6.3 5.7c2.3.2 5.9.2 8 0 2-.2.1-.4-4.3-.4s-6.1.2-3.7.4m1 6c2.3.2 5.9.2 8 0 2-.2.1-.4-4.3-.4s-6.1.2-3.7.4m-3.3 5.3c-.4.6 2.2 1 7 1s7.4-.4 7-1c-.3-.6-3.5-1-7-1s-6.7.4-7 1m-1.5 6c0 .6 3.2 1 7.5 1s7.5-.4 7.5-1-3.2-1-7.5-1-7.5.4-7.5 1m-2 6c0 .6 3.3 1 8 1s8-.4 8-1-3.3-1-8-1-8 .4-8 1m.8 5.7c2.9.2 7.4.2 10 0s.2-.3-5.3-.3-7.6.1-4.7.3m-10.3 5.3c-.4.6 3.2 1 9.9 1 6.4 0 10.6-.4 10.6-1s-4-1-9.9-1c-5.6 0-10.3.4-10.6 1M97 159c0 .6 13.3 1 37.9 1 24.3 0 38.2-.4 38.6-1 .4-.7-12.5-1-37.9-1-25.1 0-38.6.4-38.6 1m0 6c0 1.3 65.9 1.3 68 0 1-.6-10.4-1-33.2-1-22.6 0-34.8.4-34.8 1m13.3 5.7c7.6.2 19.8.2 27 0 7.3-.1 1.1-.3-13.8-.3-14.8 0-20.8.2-13.2.3m14.5 6c2.8.2 7.6.2 10.5 0 2.8-.2.5-.3-5.3-.3s-8.1.1-5.2.3m-1.3 5.3c.3.6 4.9 1 10.1 1 6.1 0 9.3-.4 8.9-1-.3-.6-4.9-1-10.1-1-6.1 0-9.3.4-8.9 1m4 6c.3.6 4.8 1 10.1 1 5.6 0 9.4-.4 9.4-1s-4-1-10.1-1c-6.4 0-9.8.4-9.4 1m8.3 5.7c2.8.2 7.6.2 10.5 0 2.8-.2.5-.3-5.3-.3s-8.1.1-5.2.3m4 6c2.8.2 7.6.2 10.5 0 2.8-.2.5-.3-5.3-.3s-8.1.1-5.2.3m-.8 5.3c0 .6 4.2 1 10.6 1 6.7 0 10.3-.4 9.9-1-.3-.6-5-1-10.6-1-5.9 0-9.9.4-9.9 1m4 6c0 .6 4.2 1 10.6 1 6.7 0 10.3-.4 9.9-1-.3-.6-5-1-10.6-1-5.9 0-9.9.4-9.9 1m9.3 5.7c3.2.2 8.1.2 11 0s.3-.3-5.8-.3c-6 0-8.4.1-5.2.3m4 6c3.2.2 8.1.2 11 0s.3-.3-5.8-.3c-6 0-8.4.1-5.2.3M155 228c0 .6 4.2 1 10.6 1 6.7 0 10.3-.4 9.9-1-.3-.6-5-1-10.6-1-5.9 0-9.9.4-9.9 1m4 6c0 .6 4.2 1 10.5 1s10.5-.4 10.5-1-4.2-1-10.5-1-10.5.4-10.5 1"/>
  </g>
</svg>
