<svg xmlns="http://www.w3.org/2000/svg" fill="none" viewBox="0 0 23 19">
  <path fill="#B16EFF" d="M0 4.844V1.719C0 .769.953 0 2.13 0H6c1.176 0 2.13.77 2.13 1.719v2.523c0 .435.213.852.595 1.16.793.64 2.08.64 2.874 0L17.667.503c.4-.322.941-.503 1.506-.503h1.053c1.176 0 2.13.77 2.13 1.719v.85c0 .456-.225.893-.624 1.215l-6.069 4.9c-.793.64-.793 1.679 0 2.32.381.307.898.48 1.437.48h3.126c1.176 0 2.13.77 2.13 1.719v3.124c0 .95-.954 1.719-2.13 1.719h-3.87c-1.177 0-2.13-.77-2.13-1.719v-2.523c0-.435-.214-.853-.595-1.16-.794-.64-2.08-.64-2.874 0l-6.069 4.899c-.399.322-.94.503-1.505.503H2.129C.953 18.046 0 17.276 0 16.327v-.85c0-.456.224-.893.624-1.216l6.068-4.898c.794-.64.794-1.68 0-2.32-.38-.308-.898-.48-1.437-.48H2.13C.953 6.562 0 5.792 0 4.842"/>
</svg>
