<svg xmlns="http://www.w3.org/2000/svg" xml:space="preserve" viewBox="0 0 100 100">
  <path d="M100 50c0 27.6-22.4 50-50 50S0 77.6 0 50 22.4 0 50 0s50 22.4 50 50m-24-9.5 5.1 5.1c2.3 2.3 2.3 6.1 0 8.5L72.2 63c-1.6 1.6-4.3.5-4.3-1.8V47.7c0-.7-.3-1.4-.8-1.9-1.7-1.7-4.6-.5-4.6 1.9v19.8c0 3.2-1.2 6.1-3.2 8.3l-5.1 5.1c-2.4 2.3-6.2 2.3-8.5 0l-5.1-5.1-19-19-2.8-2.8c-2.3-2.3-2.3-6.1 0-8.5l9-9c1.6-1.6 4.3-.5 4.3 1.8v13.6c0 .7.3 1.4.8 1.9 1.7 1.7 4.6.5 4.6-1.9V32.2c0-3.2 1.2-6.1 3.2-8.3l5.1-5.1c2.4-2.4 6.2-2.3 8.5 0l5.1 5.1z" style="fill-rule:evenodd;clip-rule:evenodd;fill:#005650"/>
</svg>
