<svg xmlns="http://www.w3.org/2000/svg" fill="none" viewBox="0 0 51 51">
  <path fill="url(#swellchain_svg__a)" d="m48.856 30.902-.064.067-.091.093-17.663 17.634a7.89 7.89 0 0 1-11.142 0l-4.877-4.87a.882.882 0 0 1 .36-1.468q7.842-2.42 12.744-5.588 11.673-7.545 20.733-5.868m-3.703-14.506c6.522 2.055 5.76 6.852 5.847 8.743q-10.713-5.617-25.775 4.118Q14 36.512 6.417 35.239C1.363 34.392.226 28.22 0 26.579q8.331 4.212 22.328-4.835 13.044-8.43 22.826-5.347M31.039 2.304l4.583 4.575a.883.883 0 0 1-.448 1.49q-9.952 2.005-15.918 5.861Q9.03 20.838 1.83 20.372L19.897 2.303a7.89 7.89 0 0 1 11.142 0"/>
  <defs>
    <linearGradient id="swellchain_svg__a" x1="25.5" x2="25" y1="0" y2="86" gradientUnits="userSpaceOnUse">
      <stop stop-color="#3068EF"/>
      <stop offset="1" stop-color="#1322AC"/>
    </linearGradient>
  </defs>
</svg>
