<svg xmlns="http://www.w3.org/2000/svg" fill="none" viewBox="0 0 100 72">
  <g fill="#75FB6E">
    <path d="M27.792 5.049v-.127l.606-.517h9.347V0h-9.347l-1.396 1.31v1.828l-.657.518h-.1c.545.44 1.024.936 1.547 1.393"/>
    <path d="M26.498 3.596H24.65l-1.257 1.316v1.756l1.257 1.31h1.848l1.323-1.31V4.912zM32.62 29.541h-1.847l-1.257 1.316v4.581l1.257 1.31h1.847l1.324-1.31v-4.581zM26.454 36.844h-1.847l-1.257 1.31v1.756l1.257 1.316h1.847l1.324-1.316v-1.756zM50.56 36.844h-1.847l-1.252 1.31v1.756l1.252 1.316h1.847l1.33-1.316v-1.756z"/>
    <path d="m24.83 6.414-1.324.154-.39.49-1.836.209-4.45 5.577.217 1.817-.518.622.128 1.134 1.436-.165.4-.462 1.836-.21 4.4-5.571-.216-1.795.467-.534zM16.606 28.3l1.33.155.389.49 1.83.209 4.45 5.577-.216 1.817.523.622-.134 1.134-1.435-.165-.4-.462-1.837-.21-4.395-5.571.212-1.795-.468-.534z"/>
    <path d="m17.574 14.349-.957.92-.01.621-1.325 1.272-.105 10.406 1.29 1.31-.033.815.806.815 1.035-.991.034-.611 1.324-1.272.067-10.373-1.269-1.293.039-.705zM47.494 5.049v-.127l-.606-.517h-9.364V0h9.347l1.396 1.31v1.828l.657.518h.1c-.529.44-1.007.936-1.53 1.393"/>
    <path d="M48.785 3.596h1.847l1.258 1.316v1.756l-1.258 1.31h-1.847l-1.324-1.31V4.912zM42.667 29.571h1.847l1.258 1.316v4.556l-1.258 1.31h-1.847l-1.324-1.31v-4.556z"/>
    <path d="m50.453 6.414 1.324.154.395.49 1.83.209 4.451 5.577-.216 1.817.523.622-.134 1.134-1.435-.165-.4-.462-1.837-.21-4.395-5.571.212-1.795-.468-.534zM58.678 28.3l-1.324.155-.39.49-1.835.209-4.446 5.577.212 1.817-.523.622.133 1.134 1.436-.165.4-.462 1.836-.21 4.4-5.571-.21-1.795.461-.534z"/>
    <path d="m57.709 14.349.962.92.006.621 1.324 1.272.106 10.406-1.29 1.31.032.815-.8.815-1.035-.991-.04-.611-1.323-1.272-.067-10.373 1.268-1.293-.039-.705zM11.767 33.162H9.92l-1.257 1.316v1.756l1.257 1.31h1.847l1.325-1.31v-1.756z"/>
    <path d="m11.01 36.336-.957.925-.012.617-1.324 1.277-.1 8.16 1.285 1.31-.027.809.806.66 1.03-.83.033-.612 1.324-1.272.072-8.131-1.274-1.294.045-.705zM0 27.815l.228 1.817 6.526 4.993 1.836-.23.634.511 1.14-.143-.177-1.415-.468-.39-.228-1.818-6.52-4.944-1.808.226z"/>
    <path d="m26.526 41.874-.034-.683-.917-.892-.94.947.005.622-1.057 1.063-.234.23v9.118l-.567.54h-9.213l-.546-.54v-1.828l-1.307-1.288H9.87l-1.252 1.288v1.828l1.252 1.244h1.847l.595.584v1.828l1.258 1.244h9.213l1.302-1.244v-1.828l.59-.584h1.852l1.252-1.244v-9.117zM63.473 33.162h1.847l1.257 1.316v1.756l-1.257 1.31h-1.847l-1.325-1.31v-1.756z"/>
    <path d="m64.225 36.336.963.925.01.617 1.325 1.277.1 8.16-1.285 1.31.028.809-.807.66-1.03-.83-.033-.612-1.33-1.272-.066-8.131 1.274-1.294-.045-.705zM75.239 27.815l-.234 1.817-6.52 4.993-1.836-.23-.635.511-1.145-.143.183-1.415.467-.39.228-1.818 6.52-4.944 1.809.226z"/>
    <path d="m48.713 41.874.033-.683.918-.892.94.947-.01.622 1.062 1.063.234.23v9.118l.567.54h9.213l.545-.54v-1.828l1.302-1.288h1.847l1.257 1.288v1.828l-1.257 1.244h-1.847l-.59.584v1.828l-1.257 1.244h-9.213l-1.302-1.244v-1.828l-.595-.584h-1.847L47.46 52.28v-9.117zM35.084 56.272l-.017-.011.022-1.784-1.29-1.305-1.848-.016-1.318 1.277-.017 1.778-.55.584-1.825-.017-8.78 8.49-.016 1.828 1.29 1.255 1.848.022 8.779-8.495.017-1.784.528-.578 1.758.017z"/>
    <path d="m19.442 67.095-.578.544H9.645l-.54-.539v-1.828l-1.307-1.288H5.951l-1.252 1.288V67.1l1.252 1.239h1.847l.595.589v1.828L9.645 72h9.219l1.302-1.244v-1.828l.59-.59h.022zM40.3 56.272l.012-.011-.017-1.784 1.291-1.305 1.847-.016 1.313 1.277.017 1.778.55.584 1.825-.017 8.78 8.49.022 1.828-1.291 1.255-1.847.022-8.78-8.495-.021-1.784-.523-.578-1.764.017z"/>
    <path d="m55.94 67.095.578.544h9.213l.545-.539v-1.828l1.302-1.288h1.847l1.257 1.288V67.1l-1.257 1.239h-1.847l-.59.589v1.828L65.731 72h-9.213l-1.302-1.244v-1.828l-.595-.59h-.017z"/>
  </g>
</svg>
