<svg xmlns="http://www.w3.org/2000/svg" fill="none" viewBox="0 0 227 203">
  <path fill="#E81899" d="m221.905 163.55-38.715-52.585a24.57 24.57 0 0 0-17.066-9.891 4.8 4.8 0 0 1-3.613-2.372 4.8 4.8 0 0 1-.243-4.326c2.656-6.118 2.818-13.22-.04-19.716l-26.193-59.808A24.38 24.38 0 0 0 113.684.243a24.4 24.4 0 0 0-22.35 14.609L65.14 74.66a24.6 24.6 0 0 0-.04 19.716 4.85 4.85 0 0 1-.243 4.326 4.82 4.82 0 0 1-3.613 2.372 24.58 24.58 0 0 0-17.066 9.891L5.463 163.55a24.4 24.4 0 0 0-1.483 26.657 24.45 24.45 0 0 0 23.833 12.048l64.91-7.223a24.54 24.54 0 0 0 17.092-9.825 4.82 4.82 0 0 1 3.869-1.955c1.524 0 2.953.729 3.869 1.955a24.54 24.54 0 0 0 17.093 9.825l64.909 7.223a24.4 24.4 0 0 0 23.833-12.048 24.4 24.4 0 0 0-1.483-26.657M82.073 82.166l26.233-59.875a5.9 5.9 0 0 1 5.392-3.531 5.9 5.9 0 0 1 5.392 3.53l26.233 59.876a6.12 6.12 0 0 1-.485 5.795 6.11 6.11 0 0 1-5.123 2.763H87.667a6.13 6.13 0 0 1-5.123-2.763c-1.132-1.725-1.294-3.908-.471-5.795m13.467 91.155a6.11 6.11 0 0 1-4.786 3.314l-64.976 7.224a5.91 5.91 0 0 1-5.756-2.896 5.87 5.87 0 0 1 .364-6.43l38.756-52.638a6.1 6.1 0 0 1 5.258-2.48 6.1 6.1 0 0 1 4.96 3.046l.04.067 25.95 44.93.041.067a6.09 6.09 0 0 1 .162 5.809zm23.483-20.323a6.18 6.18 0 0 1-5.339 3.086 6.18 6.18 0 0 1-5.338-3.072l-19.937-34.513a6.13 6.13 0 0 1 0-6.159 6.18 6.18 0 0 1 5.338-3.086h39.861a6.154 6.154 0 0 1 5.339 9.231zm88.338 27.965a5.91 5.91 0 0 1-5.757 2.91l-64.976-7.224a6.11 6.11 0 0 1-4.785-3.315 6.08 6.08 0 0 1 .161-5.809l.041-.067 25.95-44.93.04-.067a6.1 6.1 0 0 1 4.961-3.046 6.13 6.13 0 0 1 5.257 2.48l38.758 52.638a5.9 5.9 0 0 1 .35 6.43"/>
</svg>
