<svg xmlns="http://www.w3.org/2000/svg" version="1.0" viewBox="0 0 96 96">
  <path fill="currentColor" d="M0 7.3v7.4l22.1 14.7 22 14.7 6.5-4.6c3.5-2.5 6.4-4.7 6.4-4.9s-6.4-4.5-14.2-9.7l-14.1-9.4 20.9-.3c23.2-.3 26.1.3 28.4 5.8 2.6 6.2 3.5 5.5-57.7 45.9L0 80.2v15.9l38.8-.3c43.1-.3 42.3-.2 49.5-7.5 4.5-4.4 6.9-9.5 7.5-15.5.8-8.1-5.9-19.2-14.1-23.5-3-1.5-3-1.7-1.3-2.7 4.5-2.5 10.6-9 12.6-13.2 2.5-5.5 2.9-14.8.6-19.1-2.3-4.6-8.8-9.9-15-12.2C73.2.1 71.2 0 36.5 0H0zm70.1 53.8c9.4 6.7 11.2 11.3 6.1 16.2l-2.7 2.6-21.8.3c-11.9.2-21.7.1-21.7-.2 0-.4 33-22.8 33.8-22.9.2-.1 3 1.8 6.3 4"/>
</svg>
