<svg xmlns="http://www.w3.org/2000/svg" version="1.0" viewBox="0 0 400 400">
  <path d="M128 83.1c-11.3 2.2-22.2 10.9-27.4 21.9l-3.1 6.5v138l2.3 5.6c3.8 9.5 4.6 10.2 57.8 54.3 21.3 17.5 25.7 19.9 37.9 20 12.9.1 17.4-2.1 36.9-18.3 9-7.5 23.7-19.7 32.6-27.1 19.1-15.9 24.1-21.1 27.2-28.8l2.3-5.7v-138l-3.1-6.5c-5.4-11.4-16.1-19.7-28.3-22-6.6-1.2-128.6-1.2-135.1.1m19.4 16c2 2.2 4.2 5.1 4.8 6.4 4 8.8-8.3 12.4-18.5 5.3-3.4-2.4-9.9-10.8-9.4-12.2.6-1.7 7.6-3.4 13.8-3.5 5.4-.1 5.8.1 9.3 4m36.5-.6c3.7 4.2 3.9 6.8.9 8.9-2.8 2-7.1 2-11.2.1-3.6-1.7-13.6-10.2-13.6-11.6 0-.5 4.7-.9 10.4-.9h10.4zm33.9-.3c.4 3.6-3.5 6.3-8.1 5.4-3.3-.7-12.7-6.5-12.7-7.9 0-.4 4.6-.6 10.3-.5l10.2.3zm19.9 2.5c.7 12.2 8.7 24.2 20 29.8 5.1 2.6 6.9 2.9 15 3h9.3v90.6l-3.3-3.4c-2.1-2.3-5.1-4-8.6-5.1-11.2-3.3-12.1-2.1-7.9 10.5 3.7 11 6.8 14.9 12 14.9 1.8 0 4.4-.7 5.6-1.6 2.1-1.5 2.2-1.4 2.2 1.9 0 6.7-3 12.9-9.3 19-3.2 3.2-6.1 5.6-6.3 5.4-.4-.4-22-63.1-38-110.1-3.5-10.4-7.1-19.7-8-20.8-1-1-2.7-1.8-3.8-1.8-2.7 0-57.2 10.9-60.2 12.1-1.3.4-2.6 1.9-2.9 3.1-.3 1.3-4.6 29.7-9.5 63.1-4.8 33.5-9.1 61.1-9.4 61.5-.4.3-2.3-1-4.3-3l-3.6-3.6 4.1-27.8C141 169 143 155.2 143 152.8c0-5.1-1.8-5.4-17.7-2.4-8 1.5-14.7 2.5-14.9 2.3-.3-.2-.3-8.5-.2-18.3l.3-17.9 3.8 5.2c6.5 8.8 18.8 15.3 29.3 15.3 5 0 73.5-13.6 78-15.5 6.6-2.7 11.2-12.7 10-21.8l-.7-4.8 3.2.3c3.2.3 3.3.5 3.6 5.5m-27.8 57.9c3.5 2.5 5.2 7.4 4 11.7-1.4 5-5.1 7.7-10.6 7.7-3.7 0-5-.5-7.4-3.1-4.1-4.4-4.1-10.8 0-15 2.4-2.3 3.8-2.9 7.3-2.9 2.4 0 5.4.7 6.7 1.6m-93.2 8.5c4.5 3.3 5.4 4.5 5.1 6.7-.3 2.7-4 5.5-9 6.7l-2.8.7v-9.1c0-5 .3-9.1.7-9.1.3 0 3 1.8 6 4.1m-.3 30.4c3.6 2.9 4.6 4.2 4.6 6.6 0 3.1-1.8 4.3-8.2 5.6l-2.8.5v-8.1c0-4.4.4-8.1.9-8.1.4 0 2.9 1.6 5.5 3.5m2.9 35.3c1.3 2.9-1.2 5.7-6 6.7l-3.3.7v-14.3l4.1 2.3c2.3 1.3 4.6 3.3 5.2 4.6"/>
  <path d="M233 135.1c-.9 2-.5 4.2 2.4 12.4 1.9 5.5 7.1 20.8 11.6 34s8.7 24.6 9.2 25.2c2 2.5 5.4 1.2 12.6-4.9 9.1-7.9 9.2-9.3 1.5-14.7-12.3-8.4-16.7-15.8-16.6-28.1 0-5 .7-9.6 2.2-13.8 2.3-6.6 2.1-9.6-.5-10.6-.9-.3-6-.9-11.4-1.2-9.8-.7-9.9-.7-11 1.7"/>
</svg>
