<svg xmlns="http://www.w3.org/2000/svg" fill="none" viewBox="0 0 220 220">
  <g clip-path="url(#zeronetwork_svg__a)">
    <path fill="#FE5161" d="M110 220C49.25 220 0 170.75 0 110S49.25 0 110 0s110 49.25 110 110-49.239 110-110 110"/>
    <path fill="#fff" d="M110.501 51C72.164 51 57 74.429 57 108.926S72.164 168 110.501 168 164 143.421 164 108.926C164 74.43 148.838 51 110.501 51m.005 98.095c-17.485 0-26.542-10.261-29.275-27.531-.206-1.302.79-2.485 2.103-2.485h54.074c1.309 0 2.304 1.176 2.106 2.476-2.659 17.275-11.517 27.54-29.006 27.54zm-27.399-48.743c-1.294 0-2.283-1.15-2.109-2.44 2.425-17.96 11.493-28.007 29.508-28.007s26.876 10.05 29.229 28.016c.169 1.286-.818 2.431-2.11 2.431z"/>
  </g>
  <defs>
    <clipPath id="zeronetwork_svg__a">
      <path fill="#fff" d="M0 0h220v220H0z"/>
    </clipPath>
  </defs>
</svg>
