<svg xmlns="http://www.w3.org/2000/svg" fill="none" viewBox="0 0 512 512">
  <path fill="url(#zircuit_svg__a)" fill-rule="evenodd" d="M50 256.51C50 142.455 142.183 50 255.883 50c113.72 0 205.904 92.455 205.893 206.5 0 40.396-11.568 78.079-31.555 109.9a208 208 0 0 1-18.376 24.912L256.157 235.164 122.278 369.427l-22.104 22.169a205 205 0 0 1-18.416-24.871C61.639 334.843 50 297.038 50 256.51m356.618 80.466 1.885-3.779.01.01c11.811-23.632 18.051-50.159 18.051-76.697 0-94.385-76.563-171.174-170.671-171.174S85.233 162.125 85.233 256.51c0 26.68 6.3 53.319 18.223 77.043l1.895 3.759 150.806-151.251zM255.891 463c51.258 0 98.15-18.786 134.193-49.875v-.01L256.165 278.801 121.992 413.359C157.984 444.316 204.633 463 255.891 463" clip-rule="evenodd"/>
  <defs>
    <linearGradient id="zircuit_svg__a" x1="255.888" x2="256.499" y1="50" y2="463" gradientUnits="userSpaceOnUse">
      <stop stop-color="#169E00"/>
      <stop offset=".49" stop-color="#00C537"/>
      <stop offset="1" stop-color="#00B1C9"/>
    </linearGradient>
  </defs>
</svg>
