<svg xmlns="http://www.w3.org/2000/svg" xml:space="preserve" viewBox="0 0 1024 1024">
  <path fill="currentColor" d="M106.721 614.112c-1.53-12.241-1.176-24.084-.896-35.885.976-41.003 6.055-81.478 15.884-121.353 13.165-53.415 34.404-103.232 65.864-148.479 34.211-49.202 77.56-88.563 129.422-118.476 39.017-22.504 80.848-37.409 125.215-45.238 30.124-5.315 60.511-6.662 90.994-5.718 29.645.919 59 4.66 87.672 12.388 73.098 19.701 135.534 57.367 186.933 112.919 47.886 51.756 79.744 112.441 98.38 180.238 6.836 24.866 11.364 50.146 14.298 75.791 2.764 24.173 4.553 48.368 3.706 72.654-1.754 50.346-10.592 99.159-33.658 144.562-28.267 55.638-70.673 97.103-126.37 125-35.101 17.582-72.333 28.514-111.01 34.81-28.92 4.706-58.007 7.145-87.294 8.233-14.154.525-28.301.948-42.428.629-22.758-.514-45.498-1.526-68.197-3.705-28.011-2.69-55.737-6.806-82.899-14.185-33.312-9.05-64.402-22.634-90.338-46.144-14.63-13.262-25.504-29.34-34.468-46.822-7.754-15.125-19.825-25.253-36.008-30.475q-12.114-3.908-24.22-7.844c-27.28-8.866-45.896-27.386-58.721-52.472-11.052-21.617-17.072-44.668-19.898-68.643-.835-7.084-1.317-14.21-1.963-21.785M873.86 468.455c-5.02-22.119-11.83-43.66-20.55-64.611-25.252-60.682-62.272-112.66-114.16-153.447-42.886-33.71-91.152-55.811-144.76-66.519-26.864-5.365-53.953-7.878-81.212-8.378-14.748-.27-29.538 1.059-44.274 2.627-30.1 3.202-59.414 9.68-87.683 20.474-59.094 22.565-108.253 59.012-148.25 107.785-28.81 35.13-50.144 74.586-64.76 117.55-19.054 56.015-29.156 113.54-27.995 172.89.356 18.174 2.083 36.153 6.16 53.843 4.308 18.694 11.104 36.353 24.266 50.82 10.403 11.436 23.49 17.66 38.998 16.964 15.604-.701 28.862-7.5 39.81-18.555 7.85-7.926 15.246-16.305 23.139-24.187 28.66-28.621 69.438-28.837 98.919-1.095 11.983 11.277 19.74 25.075 25.906 39.91 6.804 16.365 14.463 32.24 24.861 46.63 21.586 29.872 49.757 49.54 87.1 53.299 28.434 2.862 54.502-4.664 77.506-21.804 27.747-20.675 45.48-48.676 58.022-80.37 7.432-18.784 11.826-38.456 16.787-57.955 5.243-20.604 12.688-40.282 28.081-55.493 22.895-22.623 50.251-30.025 81.656-21.682 16.364 4.347 31.273 12.28 46.9 18.438 11.03 4.346 22.427 6.755 34.056 2.913 19.05-6.292 28.886-23.744 30.187-43.685 1.887-28.92-1.868-57.415-8.71-86.362"/>
  <path fill="currentColor" d="M404.58 510.86c-43.71 11.295-86.773-21.92-92.087-65.423-5.183-42.425 23.86-81.308 66.793-86.604 30.559-3.77 64.301 16.67 76.856 46.554 18.298 43.554-5.479 92.506-51.561 105.473m259.542-1.53c-35.557 12.373-73.27-7.227-88.87-39.976-18.495-38.825-2.264-87.004 36.555-104.187 28.406-12.575 54.851-7.28 78.019 12.835 46.107 40.036 29.585 111.786-25.704 131.328"/>
</svg>
