<svg width="570" height="609" viewBox="0 0 570 609" fill="none" xmlns="http://www.w3.org/2000/svg">
  <path d="M304.5 609C136.602 609 0 472.405 0 304.5C0 136.595 136.595 0 304.5 0C410.001 0 507.062 54.2199 562.574 142.813C568.827 152.788 566.305 165.904 556.809 172.865L492.821 219.763C482.193 227.557 467.167 224.556 460.345 213.274C422.256 150.336 364.646 124.147 304.5 124.147C205.056 124.147 124.154 205.049 124.154 304.493C124.154 403.937 205.056 484.839 304.5 484.839C364.784 484.839 430.369 445.597 461.637 386.077C468.16 373.656 484.27 370.092 495.343 378.699L561.289 429.98C570.23 436.934 572.578 449.439 566.819 459.192C542.095 501.06 507.632 536.531 466.243 562.519C417.823 592.925 361.895 608.993 304.5 608.993V609Z" fill="#111111"/>
  <path d="M307.904 432.516L260.909 479.511C246.647 475.961 233.059 470.703 220.353 463.978L293.878 390.453C297.595 386.736 302.638 384.645 307.897 384.645C313.156 384.645 318.199 386.736 321.916 390.453L391.009 459.546C378.671 466.896 365.667 472.794 352.412 477.038L307.897 432.523L307.904 432.516ZM251.607 404.472C254.198 395.177 258.734 382.95 266.98 370.106C280.596 348.897 297.56 336.56 307.904 330.224C317.741 336.886 331.829 348.161 344.514 365.695C355.059 380.262 361.068 394.218 364.562 404.472C372.106 387.994 389.397 337.886 352.502 312.739C301.061 277.671 303.138 257.72 303.138 257.72C303.138 257.72 303.117 261.416 296.518 274.205C286.695 293.253 276.476 302.617 266.799 312.246C266.799 312.246 255.726 324.153 249.627 332.774C241.853 343.757 236.532 363.965 251.572 404.423" fill="#111111"/>
  <path d="M266.806 312.246C266.806 312.246 255.733 324.153 249.634 332.774C241.86 343.756 236.539 363.965 251.579 404.423C165.855 329.39 254.128 252.802 252.364 258.63C245.799 280.304 266.806 312.246 266.806 312.246ZM287.723 288.661C290.724 284.41 293.677 279.637 296.497 274.163C303.09 261.374 303.117 257.678 303.117 257.678C303.117 257.678 301.04 277.63 352.481 312.697C389.376 337.845 372.092 387.959 364.541 404.43C364.541 404.43 408.077 376.671 401.908 329.766C394.482 273.35 363.964 278.442 341.283 236.657C320.13 197.686 356.26 166.46 356.26 166.46C356.26 166.46 307.89 163.862 285.743 214.705C262.409 268.293 287.73 288.654 287.73 288.654L287.723 288.661Z" fill="#FF6D01"/>
</svg>
