<svg xmlns="http://www.w3.org/2000/svg" viewBox="0 0 280 280">
  <g fill="none" fill-rule="evenodd">
    <path fill="#FE815F" d="M228.124 179.948c0 33.361-27.45 60.406-61.312 60.406H51v-40.271h115.812c11.287 0 20.437-9.015 20.437-20.135s-9.15-20.136-20.437-20.136h-40.875v-40.27h40.875c11.287 0 20.437-9.015 20.437-20.136s-9.15-20.135-20.437-20.135H51V39h115.812c33.862 0 61.312 27.045 61.312 60.406 0 15.471-5.903 29.584-15.612 40.27 9.709 10.688 15.612 24.8 15.612 40.272" opacity=".8"/>
    <path fill="#000" fill-rule="nonzero" d="M51 200.083h99.47c-21.128 24.453-54.768 40.27-92.658 40.27q-3.43 0-6.812-.17zm120.308-40.27H132.75V119.54h38.558a88.4 88.4 0 0 1 2.316 20.136c0 6.896-.797 13.63-2.316 20.135M150.47 79.27H51v-40.1q3.382-.17 6.812-.171c37.89 0 71.53 15.817 92.659 40.27" opacity=".12"/>
    <path fill="#FF6238" fill-rule="nonzero" d="M51 39c56.436 0 102.187 45.075 102.187 100.677S107.437 240.354 51 240.354v-40.271c33.862 0 61.312-27.045 61.312-60.406 0-33.362-27.45-60.406-61.312-60.406z"/>
  </g>
</svg>
