<svg xmlns="http://www.w3.org/2000/svg" fill="currentColor" viewBox="0 0 1000 1000">
  <path d="M257.778 155.556H742.222V844.444H671.111V528.889H670.414C662.554 441.677 589.258 373.333 500 373.333C410.742 373.333 337.446 441.677 329.586 528.889H328.889V844.444H257.778V155.556Z"/>
  <path d="M128.889 253.333L157.778 351.111H182.222V746.667C169.949 746.667 160 756.616 160 768.889V795.556H155.556C143.283 795.556 133.333 805.505 133.333 817.778V844.444H382.222V817.778C382.222 805.505 372.273 795.556 360 795.556H355.556V768.889C355.556 756.616 345.606 746.667 333.333 746.667H311.111V351.111H335.556L364.444 253.333H128.889Z"/>
  <path d="M635.556 253.333L664.444 351.111H688.889V746.667C676.616 746.667 666.667 756.616 666.667 768.889V795.556H662.222C649.949 795.556 640 805.505 640 817.778V844.444H888.889V817.778C888.889 805.505 878.939 795.556 866.667 795.556H862.222V768.889C862.222 756.616 852.273 746.667 840 746.667H817.778V351.111H842.222L871.111 253.333H635.556Z"/>
</svg>
