<svg xmlns="http://www.w3.org/2000/svg" fill="none" viewBox="0 0 1080 1080">
  <rect width="1080" height="1080" fill="url(#karak_svg__a)" rx="540"/>
  <g filter="url(#karak_svg__b)">
    <path fill="#fff" d="M653.545 685.985h-99.409c-2.051 0-3.077 0-3.99-.3a6 6 0 0 1-2.177-1.274c-.709-.649-1.228-1.573-2.266-3.421C434.33 482.753 359.467 429.992 210.976 466.46c-6.377 1.566-9.565 2.349-11.577 1.293-1.65-.866-2.941-2.732-3.168-4.581-.277-2.256 1.406-4.706 4.772-9.607 92.771-135.097 417.508-51.874 461.884 221.47.602 3.709.903 5.563.343 7.056a6.1 6.1 0 0 1-2.639 3.103c-1.384.791-3.272.791-7.046.791"/>
  </g>
  <g filter="url(#karak_svg__c)">
    <path fill="#fff" d="M472.113 406.87c144.109 65.648 186.562 186.41 201.554 274.108a6.01 6.01 0 0 0 5.941 5.007h171.768c4.314 0 7.218-4.416 5.509-8.377l-120.822-280a6 6 0 0 0-5.509-3.623h-255.92c-6.716 0-8.633 10.1-2.521 12.885"/>
  </g>
  <defs>
    <filter id="karak_svg__b" width="515.325" height="343.98" x="172.202" y="390.005" color-interpolation-filters="sRGB" filterUnits="userSpaceOnUse">
      <feFlood flood-opacity="0" result="BackgroundImageFix"/>
      <feColorMatrix in="SourceAlpha" result="hardAlpha" values="0 0 0 0 0 0 0 0 0 0 0 0 0 0 0 0 0 0 127 0"/>
      <feOffset dy="24"/>
      <feGaussianBlur stdDeviation="12"/>
      <feComposite in2="hardAlpha" operator="out"/>
      <feColorMatrix values="0 0 0 0 0 0 0 0 0 0 0 0 0 0 0 0 0 0 0.1 0"/>
      <feBlend in2="BackgroundImageFix" result="effect1_dropShadow_1244_2"/>
      <feBlend in="SourceGraphic" in2="effect1_dropShadow_1244_2" result="shape"/>
    </filter>
    <filter id="karak_svg__c" width="436.961" height="340" x="444.421" y="393.985" color-interpolation-filters="sRGB" filterUnits="userSpaceOnUse">
      <feFlood flood-opacity="0" result="BackgroundImageFix"/>
      <feColorMatrix in="SourceAlpha" result="hardAlpha" values="0 0 0 0 0 0 0 0 0 0 0 0 0 0 0 0 0 0 127 0"/>
      <feOffset dy="24"/>
      <feGaussianBlur stdDeviation="12"/>
      <feComposite in2="hardAlpha" operator="out"/>
      <feColorMatrix values="0 00 0 0 0 0 0 0 0 0 0 0 0 0 0 0 0 0.1 0"/>
      <feBlend in2="BackgroundImageFix" result="effect1_dropShadow_1244_2"/>
      <feBlend in="SourceGraphic" in2="effect1_dropShadow_1244_2" result="shape"/>
    </filter>
    <linearGradient id="karak_svg__a" x1="0" x2="1080" y1="540" y2="540" gradientUnits="userSpaceOnUse">
      <stop stop-color="#DF5E00"/>
      <stop offset="0" stop-color="#DF5E00"/>
    </linearGradient>
  </defs>
</svg>
