<svg xmlns="http://www.w3.org/2000/svg" id="lisk_svg__Layer_1" data-name="Layer 1" viewBox="-30 0 155.42 136.29">
  <defs>
    <style>
      .lisk_svg__cls-1{fill:#74869b}
    </style>
  </defs>
  <path d="m45.08 136.12 17.8-20a.5.5 0 0 0-.38-.84H42.94a.5.5 0 0 1-.38-.17L25.94 96.47a.51.51 0 0 1-.06-.59l27.76-47.66a.52.52 0 0 0 0-.51L42.07 27.85a.51.51 0 0 0-.87 0L.07 98.47a.5.5 0 0 0 .06.59l33 37.06a.52.52 0 0 0 .38.17H44.7a.49.49 0 0 0 .38-.17" class="lisk_svg__cls-1"/>
  <path d="M57.27.25 45.71 20.11a.47.47 0 0 0 0 .51l12 20.61 31.83 54.64a.53.53 0 0 1-.06.59l-16.77 18.83-17.95 20.16a.5.5 0 0 0 .37.84H81.9a.48.48 0 0 0 .37-.17l33-37.06a.5.5 0 0 0 .06-.59L58.14.25a.51.51 0 0 0-.87 0" class="lisk_svg__cls-1"/>
</svg>
