<svg xmlns="http://www.w3.org/2000/svg" version="1.0" viewBox="0 0 812 958">
  <g fill="currentColor">
    <path d="M512.5 68c-7.2 1.5-13.7 7.1-16 13.6-1.7 4.9-.5 7.4 3.5 7.4 3.7 0 8-1.9 8-3.6 0-2.5 5.1-5.4 9.7-5.4 6.5 0 11.1 2.3 12.8 6.4 3.3 7.7.5 12.5-9.7 17.1-3.5 1.6-7.6 3.8-9.1 4.9-3.5 2.6-7.1 8.6-8.7 14.4-1 3.9-.9 4.5.7 5.8 2.5 1.9 6.7 1.7 8.5-.4.9-.9 2.5-3.6 3.7-5.9 1.7-3.5 3.2-4.7 9.8-7.8 13.2-6.2 18.2-12.8 18.3-23.8 0-8.7-4.9-16.5-13-20.7-3.8-1.9-13.7-3-18.5-2M138.9 129c-14.7 2.5-29 16.5-32.9 32.3-1.6 6-.7 9.3 2.9 11.1 5.2 2.7 6.8 1.3 12.7-11 5.8-12.3 8.2-14.7 17.3-17.9 5.1-1.7 15.3-2 21.5-.4 10.5 2.6 20.2 14.9 19.9 25-.1 5.9-3.3 13.2-7.5 17.1-1.8 1.7-7.4 6.2-12.4 9.9-9.6 7.2-15.3 13.1-18.3 18.9-1 1.9-2.4 8.1-3.1 13.7-1.2 9.2-1.1 10.4.4 12.7 1.3 2.1 2.5 2.6 5.5 2.6 2.2 0 4.4-.6 5.1-1.5.7-.8 1.9-5.2 2.6-9.7.8-4.6 2.6-10.7 4-13.5 2.1-4.5 3.8-6.1 11.1-11 16.7-11.2 21.9-17.4 24.7-29.3 2.1-8.8 2-13.5-.5-21.1-4-12.3-8-16.8-20.3-23.4-8.6-4.7-21.3-6.4-32.7-4.5M499.5 138.2c-2.9 1.6-4.5 3.9-4.5 6.6 0 4.2 6.4 7.9 10.4 6.1 5.1-2.4 5.3-8.9.4-12.3-2.6-1.9-3.6-1.9-6.3-.4M753 160.9c-8.1 2.6-18 10.4-19.5 15.2-1.1 3.3.4 6.9 3 7.9 3.3 1.3 6.5-.1 9.3-4 3.5-4.7 7.9-7 13.8-7 9.9 0 19.4 7.3 19.4 15.1 0 4.8-3.8 11.9-7.9 14.7-3.1 2-8.6 3.9-16.4 5.6-6.3 1.4-16.7 15.5-16.7 22.6 0 3.3 2.8 6 6.1 6 3.2 0 4.3-.9 6.4-5 3.6-7.2 9.8-12.1 19-15 2.2-.7 6.8-3 10.2-5.2 5.2-3.3 6.8-5 9.3-10.1 7-14 .7-30.8-14.4-38.2-5.7-2.8-17-4.2-21.6-2.6M531.5 180.8c-16.7 1-40.8 6.9-59.4 14.6-3.6 1.4-7.2 2.6-8.1 2.6s-5.8-1.3-11-2.9c-28.8-8.9-58.1-12.2-85.3-9.6-55.2 5.4-95.7 22-138 56.5-8.1 6.6-28.4 30.5-36.9 43.3-15 22.8-26.4 51.4-30.9 77.7-4.6 26.5-4.9 29.9-5.9 67.5-1.2 47.2-2.7 56.1-13 78.1-4.5 9.6-19.6 33.4-28 43.9-2.1 2.7-8.6 11.8-14.3 20-25.9 37.5-39.3 65.7-45.6 95.9-4.9 23.3-3.9 39.8 3.3 55.2 4.6 9.7 8.2 13.5 16.8 17.4 6.5 3 8.1 3.4 16.3 3.3 7.3 0 10.3-.5 15.9-2.6l6.8-2.7-.6 2.3c-.4 1.2-1.8 10.3-3.2 20.2-1.9 13.5-2.4 20.1-1.9 26.5 1.7 24.5 8.2 41.7 22 58.3 9.5 11.4 26 23.7 41.5 30.9 12.9 6 15.8 7.1 33.1 12.8 29.3 9.7 66.1 16.4 114.6 21 42.3 4 152.5 4 188.8 0 5-.6 13.7-1.5 19.5-2 30.9-3 70.6-10.5 90.5-17 28-9.2 40.8-14.9 55.8-25 18.1-12.2 28.8-24.3 36.7-41.4 6.2-13.5 9.8-34.5 8.5-50-1.1-13.6-6.5-44.6-9.5-54.1-1.5-5-3.5-11.7-4.5-15-.9-3.3-2.5-8.7-3.5-12-6.3-20.3-16.3-60.6-17.2-69-.3-2.8-.1-3 5.2-4.3 3-.7 8.2-2.2 11.5-3.2 3.3-1.1 6.7-2 7.5-2 2.2 0 7.6 5.9 21.9 23.5 23.1 28.6 25.9 31.7 31.7 35.8 5.8 4.2 5.9 4.2 16 4.5 9.6.4 10.4.2 16-2.7 6.2-3.1 10.6-6.8 14.9-12.5 2.5-3.3 2.5-3.5 2.5-21.7l-.1-18.4-4.2-5.2c-2.3-2.8-6.9-8.4-10.2-12.5-13.1-15.8-22.5-27.6-22.5-28.2 0-.3.7-.6 1.5-.6 1.4 0 2.4-.7 10.2-7.4 4.8-4.1 8.6-10 11.3-17.4 1.9-5.3 2.2-7.5 1.8-15.5-.7-11.2-3.3-19.6-9.3-29.2-7.8-12.6-18-20.9-35.7-29.4-14.1-6.8-17.5-7.2-64.2-8l-7-.1 2.6-2.8c5.2-5.6 14.6-21 19.2-31.7 2.7-6.1 5.9-13.4 7.1-16.2 2.8-6.2 7.9-28.1 9.6-40.7 1.5-11.4.7-38.3-1.5-50-5-26.8-17.5-56.3-32.3-76.6-7.9-10.8-32-34-42.8-41.2-20.3-13.6-44.8-23.5-71.6-28.9-5.9-1.2-34.3-2.6-42.4-2.1m38.5 14.7c13.8 1.8 26.9 5.6 41 11.9 38.5 17.4 65.6 44.1 83.8 82.6 5.9 12.5 8.6 20.5 11.9 35.8 2.5 11.6 2.7 14.6 2.8 34.2 0 19.9-.2 22.4-2.8 34-6.9 31-23.2 61.6-44.2 82.5-26.4 26.3-58 42.5-95 48.5-20.6 3.4-38.4 2.4-62.5-3.5-29.7-7.3-47.7-16.7-73.5-38.6-11.5-9.7-27.3-30.6-35.4-46.7-14.3-28.4-20.1-53.7-18.8-82.2.4-7.4.8-14.4 1.1-15.5.2-1.1.7-4.5 1.1-7.5 1-7.6 9.4-32.7 14.4-43 15.2-31.2 39.7-57.6 67.6-72.9 34.4-18.8 67.5-24.8 108.5-19.6m-167 2.6c11.5 1 29.9 4.5 39.9 7.4l5.2 1.6-10.3 7.7c-17.2 12.8-34.4 31.5-45.7 49.6-23.1 37-32.6 82.8-25.5 123.3 3.3 19.5 12.4 45.5 20.5 59.1 6.4 10.9 19.7 28.6 28.5 38.1 21.8 23.5 57 43.4 88.9 50.1 28.2 5.9 61.6 5.2 87.6-2.1 10.8-3 34.6-13.2 42.6-18.2 2.4-1.5 5.1-2.7 6.1-2.7.9 0 4.8 3.3 8.4 7.4 5.2 5.7 6.9 8.3 7.4 11.4.4 2.5.2 4.2-.5 4.6-4.1 2.6 3 16.1 18.4 35.4 6.9 8.7 15.9 19.7 20 24.7 4.1 4.9 7.5 9.2 7.5 9.5s-6.1 2.1-13.5 3.9c-7.5 1.8-14.2 4-15 4.8-2 2-1.9 7.9.5 22 1.9 10.9 7.3 33.7 10.5 44.3 19.4 63.2 22 75.2 22 102 0 18.8-1.7 27.2-8.3 40.9-3.4 7.1-6.3 11.3-11.5 16.8-21.7 22.9-52.8 37.2-103.2 47.6-47.2 9.7-91.6 13.6-162 14-73.7.4-124.7-3.5-172-13.3-31.7-6.6-45.4-10.6-64.5-18.7-14.2-6.1-19.7-9.3-31-18.4-11.8-9.6-17.5-16.1-23.3-27-5.6-10.5-7.5-17.2-8.7-30.3-1.7-19.5 2.2-50.1 9.5-74 3.6-11.9 16.8-64.6 20-80.4 3.1-14.6 2.8-16.8-2.3-19.2-2.1-.9-3-.8-5.1.8-2.2 1.6-2.8 3.4-4.3 12.4-2.2 13.5-5 25.3-13.6 56.8-3.8 14-7.2 26.7-7.6 28.2-.4 1.9-2.3 3.8-5.9 6.1-8 5.1-14.3 7.2-21.7 7.2-14.9-.1-23.2-9.9-26-30.6-2.2-15.9 2-37.6 11.8-60.4 8.2-19 33.3-60.4 51.6-85 22.4-30 31.6-48.8 36.6-74.1 1.1-6 2.3-11.8 2.6-12.9s.9-18.4 1.4-38.5c1-39.9 2.3-53.4 6.8-70.5 9.4-35.2 16.2-50.3 34.1-75.5 9.7-13.7 32.2-36.2 45.6-45.7 20.7-14.6 55-29.9 77.6-34.6 30.6-6.4 47.3-7.7 69.9-5.6m335.1 288.4c8.4 2.2 14.1 4.8 23.3 10.9 12.7 8.2 20.5 18.5 24.7 32.5 1.9 6.5 2.1 8.1 1.1 13.3-4 21.4-22.2 29.7-43.4 19.6-9.1-4.4-12.6-7.3-17.8-15-8.5-12.8-10.1-26.4-4-35.7 5.4-8 3.2-12.9-4.8-10.8-3.4.9-4.8.8-7.7-.6-1.9-.9-6.1-2-9.3-2.3-5.4-.6-6-1-11.5-6.8l-5.7-6.1 13.7-.5c20-.7 34.8-.2 41.4 1.5M678 498.1l4.9 5.6-5.2 3.9c-2.9 2.1-7 5.3-9.2 7.1l-3.9 3.3-3.8-4.2c-5.6-6.3-9.4-12.1-8.2-12.5 1.6-.5 13.8-9.9 15.4-11.8 1.3-1.6 1.5-1.5 3.3.6 1 1.3 4 4.9 6.7 8m25.2 14.4 4.5 1.6-1.4 6.4c-1.3 5.6-1.3 7.2.1 14.1 3.1 15 12.4 28.3 25.6 36.9 8.4 5.4 13 7.1 21.2 8l6.7.7 4.2 5.7c5.8 7.7 24.1 30.1 30.7 37.5 6.5 7.3 10.2 14.6 10.2 20.1 0 11-14.7 24.5-26.8 24.5-5.7 0-9.3-2.3-15.8-10.2-2.4-2.9-7.1-8.5-10.4-12.3-3.2-3.9-10.8-13.1-16.7-20.6-5.9-7.4-12.5-15.5-14.5-18-2.1-2.4-8.6-10.3-14.5-17.6-5.9-7.2-14.5-17.6-19-23-12.1-14.8-19.3-25.8-19.3-29.5 0-4 3.1-8 12.5-15.9 12.1-10.3 14.5-11.1 22.7-8.4"/>
    <path d="M524.5 207.1c-22.6 2.9-51.3 14.4-71.5 28.7-9.6 6.8-27.6 25.4-34.6 35.7-9.1 13.4-16.8 29.6-21.4 44.7-4.6 15.8-6 24.9-6 40.6 0 33.9 8.9 62.5 28.2 90.9 22.3 32.9 53.6 53.5 95.8 63.2 17 3.9 44.4 3.7 61.9-.5 16.9-4.1 42.3-15.4 55-24.4 21.5-15.3 41.7-40.4 51.5-64.2 8.9-21.6 12.4-37.1 13.3-60.3.5-13 .3-16.6-1.6-26.5-5.8-29.9-19.1-57.1-38.9-79.7-19.9-22.7-55.2-41.9-86.3-47.2-13-2.2-32.2-2.6-45.4-1m30.5 12.4c20.5 1.7 42.7 8.9 63 20.5 6.8 3.9 20 15.1 28.5 24.3 15.7 17.1 26.9 37.4 33.1 60.2 2.4 8.8 2.8 12.3 3.2 29.1.6 29.4-2.6 46-13.1 66.9-15.3 30.7-38.3 53.7-66.3 66.5-16.9 7.8-22.4 9.4-37.8 11.5-41.9 5.7-77.8-3.8-109.1-28.8-15.4-12.3-27.6-28-37.8-48.4-9.2-18.2-13.4-35.3-14.4-57.9-1.3-29.6 5.5-54.8 21.4-79.7 17.8-28 45.7-49 76.9-58.2 13.5-4 36.9-7.8 42.9-6.9 1.1.2 5.4.6 9.5.9"/>
    <path d="M539.6 233.6c-2 2-2.1 6.3 0 7.1 2.4.9 7.8-1.1 8.2-3.1.5-2.2-2.5-5.6-4.9-5.6-1 0-2.5.7-3.3 1.6M520 234.8c-2.6 2.1-2.1 5.5 1.1 7.3 3.1 1.6 8.9-1.4 8.9-4.7 0-1.3-.6-2.6-1.2-2.8-4.8-1.5-6.8-1.5-8.8.2M559.3 234c-2.7 1.1-2.9 2.7-.7 5.8 1 1.4 2.5 2.2 4.4 2.2 2.4 0 3.1-.5 3.6-2.7 1.2-4.8-2.3-7.4-7.3-5.3M503.3 238.1c-4.8 1.8-5 7.9-.3 9.4 3.3 1 8-2.7 8-6.4 0-1.8-5.3-3.9-7.7-3M577.7 238.8c-2.2 2.4-2.1 3.8.3 6.2 2.8 2.8 6.4 2.6 8.1-.6 1.3-2.4 1.2-2.8-1.4-5-3.4-2.9-4.8-3-7-.6M483.5 247.5c-3 2.9-3.1 3.5-.6 6.2 2.1 2.2 6.9 2.1 8.3-.1 2.1-3.1-.4-8.6-3.8-8.6-.8 0-2.6 1.1-3.9 2.5M595 246.5c-1.1 1.3-1 2.2.3 5 1.4 2.8 2.1 3.3 4.4 3 1.5-.2 3.4-.4 4.1-.4 1.9-.1 1.4-4.9-.8-7.1-2.4-2.4-6.3-2.6-8-.5M468.8 256.6c-3.3 1.7-3.7 5.1-.9 8.5l1.8 2.3 3.2-3.2c3.5-3.5 3.7-5.7.6-7.8-1.7-1-2.5-1-4.7.2M611.5 256.4c-1.8 1.3-1.8 1.4.1 4.7 2.3 3.9 5.7 4.9 8.5 2.3 2.5-2.2 2.4-3-.6-5.9-2.7-2.8-5.2-3.1-8-1.1M628.7 268.8c-2.3 2.6-2.1 5.5.6 8 3.1 2.9 4.2 2.8 6.6-.7l2.1-2.9-2.6-3.1c-3-3.6-4.4-3.8-6.7-1.3M453.2 269.2c-1.9 2.4-2.3 6.2-.8 8.3 1.2 1.6 1.9 1.8 4.1 1 4.1-1.5 5.7-4.4 4.2-7.5-1.4-2.8-5.7-3.9-7.5-1.8M441.2 283.6c-2.4 1.7-3 6.2-1 8.2 3 3 8.8-.1 8.8-4.6 0-1.8-3.3-5.2-5-5.2-.3 0-1.6.7-2.8 1.6M640 284.1c-1.7 3-.8 6.2 2.2 7.8 2.4 1.4 2.8 1.4 4.7-.3 2.6-2.4 2.6-3.7 0-7-2.5-3.1-5.4-3.4-6.9-.5M430.6 301.2c-2 2.8-2 3.8.2 6.6 1.5 1.9 2.2 2.1 4.4 1.3 2.9-1.1 4.6-6.5 2.7-8.7-1.7-2.1-5.6-1.7-7.3.8M650.4 300.5c-2.5 1.7-2.2 5.5.7 8.1 1.6 1.4 2.3 1.5 4.9.4 3.4-1.4 3.7-3 1.3-7.1-1.9-3.2-3.8-3.6-6.9-1.4M424.8 318.7c-3.3 3.8-3.9 5.9-1.9 7.7 2.1 1.9 5.5 2.1 6.8.3 1.8-2.3 2.1-5.6.6-7.6-1.7-2.6-3.5-2.7-5.5-.4M658 318.8c-2.3 1.9-2.3 4.7-.1 8.1 1.1 1.7 7 .5 7.8-1.6.7-1.9-2.5-8.3-4.2-8.3-.7 0-2.3.8-3.5 1.8M419 337.5c-2.9 3.5-.7 9.5 3.6 9.5 4.2 0 5.8-5.6 2.4-9-2.4-2.4-4.3-2.5-6-.5M661.6 337.6c-2.1 2.1-2 5.7.2 7.7 2.6 2.4 4.9 2.1 6.7-.7 1.4-2 1.4-2.9.4-4.8-2.1-4.1-4.7-4.9-7.3-2.2M663.1 351.4c-1.8 2.2-1.8 6.7 0 7.9.9.5 2.8.7 4.2.3 2.1-.5 2.7-1.2 2.7-3.4 0-3.4-.9-4.7-3.6-5.6-1.3-.4-2.6-.1-3.3.8M419.1 356.8c-3 2.7-3.4 5.5-1 8.1 2.6 2.8 5 2.4 6.7-1.1 2.4-5.1-1.8-10.4-5.7-7M661.5 370c-2.1 2.3-1.4 6.5 1.4 7.9 2.5 1.4 7.1-2.1 7.1-5.3 0-4.6-5.2-6.2-8.5-2.6M419.6 375.6c-2.2 2.1-2 5.7.3 7.8 4.7 4.2 10.3-1.5 6.7-6.8-1.9-2.9-4.7-3.3-7-1M658.7 387.8c-2.3 2.5-2.1 5.5.4 7.8 1.9 1.7 2.3 1.7 4.7.3 3.6-2 4.1-5.7 1-8.1-2.9-2.2-4.1-2.2-6.1 0M426.4 395c-2.9 1.1-3.7 2.6-3 5.4.8 3.3 4.8 4.9 7.5 3 2.5-1.8 2.7-4.1.5-7.2-1.7-2.4-1.9-2.5-5-1.2M652 406.9c-2.4 4.5-.5 10.6 2.9 9.4 5.2-1.9 6.7-7 2.9-9.7-3-2.1-4.5-2-5.8.3M432.2 413.2c-1.8 1.8-1.5 5.3.6 7.1 3.5 3.2 8.2 1.5 8.2-2.8s-6-7.1-8.8-4.3M642 425c-3.6 3.6-2 8 3 8 1.4 0 3.1-.5 3.8-1.2s1.2-2.4 1.2-3.8c0-5-4.4-6.6-8-3M441.5 429c-1.6 2.6 2.1 10 5.1 10 3.6 0 5.9-6.5 3.1-8.9-2.1-1.7-7.4-2.5-8.2-1.1M631.5 439.5c-3 3.1-3.1 4.6-.6 6.9 1.7 1.6 2.3 1.6 4.8.4 3.1-1.5 4-4.6 2.3-7.7-1.4-2.8-3.4-2.6-6.5.4M455.3 443.7c-2 .7-1.5 5.1.8 7.4 2.9 2.9 7 2.2 8.2-1.4 1.6-4.8-3.6-8.2-9-6M616.4 453.5c-3.6 3.6-2.9 6.9 1.4 7.3 4.2.4 7.2-2.1 7.2-5.8 0-4.6-4.7-5.4-8.6-1.5M469.2 457.7c-2.1 4 2.7 9.1 7.4 7.9 1.8-.5 2.4-1.3 2.4-3.6 0-5-7.7-8.3-9.8-4.3M600.8 464.4c-3.4 2.9-3.5 4.1-.3 6.2 2.3 1.5 2.7 1.5 5.1 0 3.7-2.5 4.1-4.6 1.5-6.8-2.9-2.3-3-2.3-6.3.6M486.6 467.6c-2.3 2.3-1.9 5.1 1 7 5.6 3.7 11.1-2 6.3-6.5-2.7-2.5-5.2-2.7-7.3-.5M581.6 472.2c-2.2 3.2-2 5.7.7 6.9 3.6 1.6 7.7-.4 7.7-3.9 0-1.5-.5-3.3-1.2-4-1.9-1.9-5.5-1.4-7.2 1M504.2 474.2c-2.9 2.9.3 8.8 4.9 8.8 1.9 0 4.9-3.1 4.9-5.2 0-3.7-7-6.4-9.8-3.6M565.3 476c-3.1 1.3-4.6 4.5-3.3 7 2.1 3.9 11 1.6 11-2.8 0-1.4-3.6-5.2-4.7-5.1-.5 0-1.8.4-3 .9M524.8 478.1c-2.7 1.5-2.3 5.7.6 7 3.1 1.4 7.2.5 8.1-1.8.4-1.3-.2-2.5-2.2-4-3.1-2.5-4-2.7-6.5-1.2M543.3 480.4c-2.4 2.1-2.6 2.6-1.3 4.1 2.4 2.9 6 3.7 8.6 2 3.3-2.1 3-5.1-.6-7-3.7-1.9-3.4-1.9-6.7.9M263.5 347.5c-13.9 3.1-26.2 11.3-32.4 21.5-4.1 6.8-1.7 13.5 4.6 12.8 2.1-.2 3.2-1.2 4.5-3.9 2.2-4.7 9.4-12 13.9-14.1 5.8-2.8 14.9-4.8 21.5-4.8 11.9 0 18-5.4 12.4-11-1.7-1.7-3.3-2-10.2-1.9-4.6.1-11 .7-14.3 1.4M278 386.7c-4.8 1.8-9.1 8.5-9.2 14.3-.1 8.2 5.9 14.1 15 14.8 5.5.4 6.1.2 9.5-2.7 8.5-7.5 6.9-21.6-2.9-25.7-3.3-1.4-9.6-1.7-12.4-.7M359 460.4c-13.2 3-23 7.7-28.4 13.6-3 3.4-3.6 4.7-3.1 6.8 1.4 6 6.8 6.5 13.5 1.2 5.6-4.4 15.2-8.6 22.8-9.9 3.7-.7 7.7-1.4 8.8-1.6 3-.6 5-5.8 3.6-9-1-2.2-1.8-2.5-6.4-2.4-2.9.1-7.8.7-10.8 1.3M733.1 247.1c-5.8 3.5-6.5 7.6-2.2 12 4 4 8.1 3.9 11.5-.2 3.2-3.8 3.3-6 .1-9.7-3.2-3.8-5.6-4.4-9.4-2.1M138 262.7c-2.8 3.2-3.2 4.1-2.7 7.7 1.7 12.3 18.8 13.1 20.4.9.5-4 .3-4.6-3.5-8.3-5.4-5.4-9.6-5.6-14.2-.3M61.3 331.4c-5.2 1.7-10 4.6-13.5 8.3-3.6 3.8-6.8 13.2-6.8 20.3 0 4.7.4 6.2 2.5 8.4 2.9 3.1 6.5 3.4 9 .6 1.5-1.6 1.7-3 1.2-7.8-.6-5.4-.4-6.3 2.3-10.5 3.5-5.5 7.3-7.7 13.5-7.7 8 0 13.5 5 13.5 12.2 0 1.9-1.6 7.4-3.6 12.4-5 12.2-4.9 21.2.2 27.4 2.8 3.3 6.7 4 9.8 1.7 1.5-1.1 1.7-2.1 1.1-5.8-1.5-9.1-.9-15.1 2.1-22.4 6.1-14.9 1.9-29.6-10.1-35.7-5-2.6-15.4-3.3-21.2-1.4M92.2 404.7c-.7.3-1.9 1.8-2.7 3.4-4 7.7 4.9 14.3 11.9 8.8 6.5-5.1-1.2-15.4-9.2-12.2"/>
  </g>
</svg>
