<svg xmlns="http://www.w3.org/2000/svg" fill="none" viewBox="0 0 50 50">
  <circle cx="25" cy="25" r="25" fill="#fff"/>
  <path fill="#FF0420" fill-rule="evenodd" d="M25 50c13.807 0 25-11.193 25-25S38.807 0 25 0 0 11.193 0 25s11.193 25 25 25m-9.409-18.133a7.4 7.4 0 0 0 2.223.323q2.755 0 4.389-1.273 1.635-1.292 2.28-3.895.19-.818.361-1.634.19-.818.323-1.653.228-1.292-.076-2.261a3.53 3.53 0 0 0-1.007-1.634q-.703-.665-1.729-.988a6.8 6.8 0 0 0-2.204-.342q-2.775 0-4.408 1.33t-2.261 3.895q-.19.835-.38 1.653-.171.818-.323 1.634-.21 1.292.076 2.261a3.6 3.6 0 0 0 1.007 1.615q.703.646 1.729.969m4.275-3.021a2.85 2.85 0 0 1-1.805.608q-1.045 0-1.501-.608t-.228-1.938q.152-.836.304-1.577.17-.741.38-1.539.323-1.33 1.083-1.938a2.85 2.85 0 0 1 1.805-.608q1.026 0 1.501.608t.228 1.938q-.133.798-.304 1.539-.152.741-.361 1.577-.323 1.33-1.102 1.938m5.774 3.021a.38.38 0 0 0 .304.133h2.584a.53.53 0 0 0 .361-.133.54.54 0 0 0 .21-.342l.873-4.161h2.565q2.452 0 3.895-1.045 1.464-1.045 1.938-3.23.228-1.102-.019-1.919a2.9 2.9 0 0 0-.874-1.387q-.626-.551-1.577-.817-.93-.266-2.09-.266h-5.054a.58.58 0 0 0-.36.133.54.54 0 0 0-.21.342l-2.622 12.35q-.038.21.076.342m7.011-7.125h-2.185l.741-3.401h2.28q.684 0 1.007.228a.86.86 0 0 1 .4.608q.056.38-.039.874-.19.855-.817 1.273a2.4 2.4 0 0 1-1.387.418" clip-rule="evenodd"/>
</svg>
