<svg xmlns="http://www.w3.org/2000/svg" fill="none" viewBox="0 0 50 50">
  <circle cx="25" cy="25" r="25" fill="#fff"/>
  <path fill="#FF0420" fill-rule="evenodd" d="M25 50c13.807 0 25-11.193 25-25S38.807 0 25 0 0 11.193 0 25s11.193 25 25 25m-9.409-18.133a7.368 7.368 0 0 0 2.223.323c1.837 0 3.3-.424 4.389-1.273 1.09-.861 1.85-2.16 2.28-3.895.127-.545.247-1.09.361-1.634.127-.545.234-1.096.323-1.653.152-.861.127-1.615-.076-2.261a3.532 3.532 0 0 0-1.007-1.634c-.469-.443-1.045-.773-1.729-.988a6.815 6.815 0 0 0-2.204-.342c-1.85 0-3.319.443-4.408 1.33-1.09.887-1.843 2.185-2.261 3.895-.127.557-.253 1.108-.38 1.653-.114.545-.222 1.09-.323 1.634-.14.861-.114 1.615.076 2.261a3.618 3.618 0 0 0 1.007 1.615c.469.43 1.045.754 1.729.969m4.275-3.021a2.85 2.85 0 0 1-1.805.608c-.697 0-1.197-.203-1.501-.608-.304-.405-.38-1.051-.228-1.938.101-.557.203-1.083.304-1.577.114-.494.24-1.007.38-1.539.215-.887.576-1.533 1.083-1.938a2.85 2.85 0 0 1 1.805-.608c.684 0 1.184.203 1.501.608.317.405.393 1.051.228 1.938-.089.532-.19 1.045-.304 1.539-.101.494-.222 1.02-.361 1.577-.215.887-.583 1.533-1.102 1.938m5.774 3.021a.38.38 0 0 0 .304.133h2.584a.53.53 0 0 0 .361-.133.544.544 0 0 0 .21-.342l.873-4.161h2.565c1.634 0 2.933-.348 3.895-1.045.976-.697 1.622-1.773 1.938-3.23.152-.735.146-1.374-.019-1.919a2.898 2.898 0 0 0-.874-1.387c-.418-.367-.943-.64-1.577-.817-.62-.177-1.317-.266-2.09-.266h-5.054a.579.579 0 0 0-.36.133.544.544 0 0 0-.21.342l-2.622 12.35c-.025.14 0 .253.076.342m7.011-7.125h-2.185l.741-3.401h2.28c.456 0 .792.076 1.007.228a.862.862 0 0 1 .4.608c.037.253.025.545-.039.874-.126.57-.399.994-.817 1.273a2.39 2.39 0 0 1-1.387.418" clip-rule="evenodd"/>
</svg>
