<svg width="24px" height="24px" viewBox="0 0 24 24" version="1.1" xmlns="http://www.w3.org/2000/svg"
    xmlns:xlink="http://www.w3.org/1999/xlink">
    <title>Paradex_logo_mono_light_nobg</title>
    <g id="Paradex_logo_mono_light_nobg" stroke="none" stroke-width="1" fill="none"
        fill-rule="evenodd">
        <path fill="#04040F" x="0" y="0" width="1080" height="1080" d="M0 0H24V24H0V0z" />
        <path
            d="m16.2 8.888 1.607 2.461h-1.522L14.748 8.993h-2.086v-1.228h2.824c0.554 0 1.003 -0.419 1.003 -0.936 0 -0.257 -0.112 -0.491 -0.294 -0.659 -0.181 -0.17 -0.432 -0.275 -0.71 -0.275H12.662V4.667h2.824c0.642 0 1.221 0.242 1.642 0.634a2.238 2.238 0 0 1 0.314 0.364c0.231 0.337 0.366 0.736 0.366 1.164 0 0.336 -0.082 0.652 -0.229 0.936 -0.273 0.529 -0.77 0.941 -1.378 1.123M10.973 5.664a2.222 2.222 0 0 0 -0.314 -0.364C10.239 4.908 9.659 4.667 9.018 4.667H6.193v1.228h2.825c0.278 0 0.528 0.105 0.709 0.274 0.182 0.169 0.294 0.402 0.294 0.66 0 0.517 -0.449 0.935 -1.003 0.935H6.193v3.585h1.237v-2.357h1.588c0.922 0 1.718 -0.501 2.092 -1.228 0.146 -0.283 0.228 -0.6 0.228 -0.935 0 -0.429 -0.134 -0.828 -0.365 -1.165M17.807 12.651h-1.513l-1.412 2.176 -1.412 -2.176h-1.513l2.169 3.341L11.957 19.333h1.513l1.412 -2.176L16.294 19.333h1.513l-2.169 -3.341zm-6.533 3.341c0 0.923 -0.372 1.758 -0.974 2.362C9.699 18.959 8.868 19.333 7.95 19.333H6.193v-1.23h1.757c1.16 0 2.1 -0.945 2.1 -2.111 0 -0.583 -0.235 -1.111 -0.615 -1.493 -0.38 -0.382 -0.905 -0.619 -1.485 -0.619H6.193v-1.23h1.757c1.835 0 3.324 1.495 3.324 3.341"
            id="Combined-Shape-Copy-2" fill="#CC38FF" />
    </g>
</svg>