<svg xmlns="http://www.w3.org/2000/svg" fill="none" viewBox="0 0 443 443">
  <path fill="#fff" d="M442.649 221.325c0 122.234-99.09 221.324-221.324 221.324C99.09 442.649 0 343.559 0 221.325 0 99.09 99.09 0 221.325 0c122.234 0 221.324 99.09 221.324 221.325"/>
  <path fill="#000" fill-rule="evenodd" d="M221.325 426.649c113.397 0 205.324-91.927 205.324-205.324C426.649 107.927 334.722 16 221.325 16 107.927 16 16 107.927 16 221.325c0 113.397 91.927 205.324 205.325 205.324m0 16c122.234 0 221.324-99.09 221.324-221.324C442.649 99.09 343.559 0 221.325 0 99.09 0 0 99.09 0 221.325c0 122.234 99.09 221.324 221.325 221.324" clip-rule="evenodd"/>
  <path fill="#000" stroke="#000" stroke-width="12" d="M120.847 121.312h129.35v129.35h-129.35z"/>
  <path fill="#000" d="M186.451 185.987h141.35v141.35h-141.35z"/>
  <path fill="#fff" stroke="#000" stroke-width="12" d="M192.226 191.987h57.969v57.969h-57.969z"/>
</svg>
