<svg xmlns="http://www.w3.org/2000/svg" fill="none" viewBox="0 0 200 200">
  <path fill="currentColor" d="m22.211 105.036 34.46-28.297a35.67 35.67 0 0 0 13.026-27.58v-2.74c0-9.71-7.861-17.582-17.557-17.582H22.775a4.706 4.706 0 0 0-4.725 4.711v69.517c0 2.156 2.49 3.336 4.161 1.971M179.408 41.79l-51.842.01c-4.704 0-8.599 3.521-9.204 8.068-.092.646-.061 1.324.021 1.97v.093a7.97 7.97 0 0 0 3.741 5.717l-7.595 2.155a67.8 67.8 0 0 0-24.497 12.8l-70.035 57.333a5.33 5.33 0 0 0-1.947 4.116v34.394a2.556 2.556 0 0 0 2.542 2.545h41.94c1.323 0 2.389-1.016 2.532-2.329 1.159-10.665 10.189-18.978 21.145-18.978 10.957 0 19.987 8.303 21.145 18.978.144 1.313 1.209 2.329 2.532 2.329h9.911c.984 0 1.886-.574 2.306-1.457l39.266-83.147a57.6 57.6 0 0 1 14.216-18.804l5.053-4.413a3.84 3.84 0 0 0 1.312-2.884v-15.95a2.55 2.55 0 0 0-2.542-2.546m-32.214 19.892c-3.393 0-6.15-2.761-6.15-6.159s2.757-6.158 6.15-6.158 6.15 2.761 6.15 6.158-2.757 6.159-6.15 6.159"/>
</svg>
