<svg xmlns="http://www.w3.org/2000/svg" fill="none" viewBox="0 0 668 668">
  <path fill="#fff" d="m248.9 354.7 61.7 61.7-53.4 53.4-.2.2-61.7 61.7h-.1c0 .1-44 44.1-44 44.1-17 17-44.6 17-61.7 0-17-17-17-44.6 0-61.7l159.3-159.3zM573.001 154l-43.8 43.8-61.7 61.7-53.5 53.5-61.7-61.7 115.2-115.2 43.8-43.8c17-17 44.6-17 61.7 0 17 17 17 44.6 0 61.7M310.201 523.1l-61.6 61.6-32.3-32.2 61.6-61.7zM174.598 115.5l-61.6 61.6-18.6-18.6c-17-17-17-44.6 0-61.6s44.6-17 61.6 0zM446.401 387.3l-61.6 61.6-53.4-53.4-61.6-61.6-.3-.3-52.7-52.7 61.6-61.6 52.9 53 61.7 61.7.2.2zM577.7 580.3c-17 17-44.6 17-61.6 0L488 552.2l61.6-61.6 28.1 28.1c17 17 17 44.6 0 61.6M414.476 83.17l-61.66 61.66 32.527 32.527 61.66-61.66zM80.5 251.6l61.7 61.7L393.6 62.2l-33-33S349.1 19 335.4 18.4 314.2 22 314.2 22s-6.3 2.5-10.3 6.4c0 0-1.5 1.2-4 3.7s-9.2 9.1-9.2 9.1zM112.698 448.9l61.6-61.6-114.7-114.8-32.1 32.2s-11.5 10.1-11.4 29.4 11.9 29.9 11.9 29.9l84.8 84.8zM269.5 605.7l251.2-251.2 61.7 61.7-217.9 218.3s-14.9 20.3-43.3 13.8c0 0-10.7-1.8-20.2-11.2s-31.5-31.5-31.5-31.5zM488 279.9l115.2 115.3 32.5-32.1s12-11.5 11.3-29.7-8.3-25.5-8.3-25.5-2.6-3.9-4.4-5l-84.7-84.7z"/>
</svg>
